<?xml version="1.0" encoding="utf-8"?>
<!-- Generator: Adobe Illustrator 21.1.0, SVG Export Plug-In . SVG Version: 6.00 Build 0)  -->
<svg version="1.1" id="Capa_1" xmlns="http://www.w3.org/2000/svg" xmlns:xlink="http://www.w3.org/1999/xlink" x="0px" y="0px"
	 viewBox="0 0 221 43" style="enable-background:new 0 0 221 43;" xml:space="preserve">
<style type="text/css">
	.st0{fill:#FFFFFF;}
</style>
<path class="st0" d="M28.5,19.9c-0.1-1.3-0.4-2.7-1.1-3.9L21.3,5.5c-0.5-0.8-0.8-1.7-1-2.6L20,3.3c-1.5,2.6-1.5,5.9,0,8.5l4.9,8.5
	c1.5,2.6,1.5,5.9,0,8.5l-0.3,0.4c-0.2-0.9-0.5-1.8-1-2.6l-4.5-7.8l-2.9-5c-0.5-0.8-0.8-1.7-1-2.6l-0.3,0.4c-1.5,2.6-1.5,5.8,0,8.5
	l0,0l4.9,8.5c1.5,2.6,1.5,5.9,0,8.5l-0.3,0.4c-0.2-0.9-0.5-1.8-1-2.6l-6.1-10.6c-0.8-1.4-1.2-3-1.1-4.6c-6.3,2-10.8,5.6-10.8,9.8
	c0,5.9,8.8,10.6,19.6,10.6s19.6-4.8,19.6-10.6C39.6,25.3,35.1,21.7,28.5,19.9z M47,38.1c0.1-1.5,0.3-2.5,0.7-3.7
	c2.1,1,4.7,1.4,6.7,1.4c3.4,0,5.3-1.1,5.3-3.3c0-2.1-1.4-3.1-4.9-4.6L53,27.1c-3.5-1.5-5.8-3.5-5.8-7.3c0-4.2,2.9-6.9,8.9-6.9
	c2.4,0,4.6,0.3,6.7,1.1c-0.1,1.5-0.4,2.6-0.7,3.7c-2-0.7-4.3-1.1-6-1.1c-3.2,0-4.7,1.2-4.7,3.2c0,1.9,1.4,3,4,4.1l2,0.8
	c4.7,2,6.6,4.1,6.6,7.6c0,4.2-3.2,7.1-9.4,7.1C51.5,39.5,49.1,39,47,38.1z M83.7,20.5v18.4H80l-0.2-2.2c-1,1.6-2.6,2.6-5.2,2.6
	c-4.9,0-8.1-3.5-8.1-9.7c0-6.5,3.5-10.1,10.3-10.1C79.4,19.5,81.6,19.8,83.7,20.5z M79.7,34.7V23.1c-0.8-0.1-1.8-0.2-2.9-0.2
	c-4.2,0-6.1,2.6-6.1,6.7c0,3.7,1.5,6.4,5.1,6.4C77.3,36,78.6,35.5,79.7,34.7z M104.4,26.5v12.3h-4V27.2c0-2.9-1-4.3-5-4.3
	c-1,0-2.1,0.1-3.2,0.3v15.7h-4V20.5c2.6-0.6,5.4-1,7.3-1C102.2,19.5,104.4,22.1,104.4,26.5z M115.6,35.9c1.2,0,2.3-0.2,3.2-0.6
	c-0.1,1.1-0.3,2.4-0.5,3.4c-1.1,0.4-2.3,0.6-3.4,0.6c-3.9,0-6.4-1.8-6.4-6.3V13.7c1.2-0.4,2.8-0.6,4-0.6V20h6.4
	c-0.1,1.2-0.2,2.4-0.4,3.5h-6v9C112.5,34.9,113.7,35.9,115.6,35.9z M137.3,20.5v18.4h-3.7l-0.2-2.2c-1,1.6-2.6,2.6-5.2,2.6
	c-4.9,0-8.1-3.5-8.1-9.7c0-6.5,3.5-10.1,10.3-10.1C133,19.5,135.2,19.8,137.3,20.5z M133.3,34.7V23.1c-0.8-0.1-1.8-0.2-2.9-0.2
	c-4.2,0-6.1,2.6-6.1,6.7c0,3.7,1.5,6.4,5.1,6.4C130.9,36,132.2,35.5,133.3,34.7z M158,26.5v12.3h-4V27.2c0-2.9-1-4.3-5-4.3
	c-1,0-2.1,0.1-3.2,0.3v15.7h-4V20.5c2.6-0.6,5.4-1,7.3-1C155.8,19.5,158,22.1,158,26.5z M178.5,13.1v25.7h-3.7l-0.2-2.4
	c-1,1.7-2.6,2.8-5.3,2.8c-4.9,0-8.1-3.5-8.1-9.7c0-6.5,3.5-10.1,10.3-10.1c1.1,0,2.1,0.1,3,0.3v-6.1
	C175.7,13.3,177.2,13.1,178.5,13.1z M174.5,34.6V23.3c-1.1-0.2-2.2-0.4-3.2-0.4c-4,0-5.9,2.5-5.9,6.7c0,3.7,1.5,6.4,5.1,6.4
	C172.1,36,173.4,35.4,174.5,34.6z M198.8,31h-12.9c0.5,3.3,2.4,4.9,6,4.9c2.2,0,4.4-0.5,6.5-1.4c-0.1,1.1-0.4,2.5-0.6,3.7
	c-1.8,0.8-3.8,1.2-6,1.2c-6.8,0-10-3.7-10-10c0-5.5,2.5-9.8,9-9.8c5.8,0,8.3,3.8,8.3,8.4C199,29,199,29.9,198.8,31z M185.9,27.6h9.1
	c0-3-1.6-4.8-4.4-4.8C187.7,22.8,186.2,24.5,185.9,27.6z M213,19.6c0,1.2-0.1,2.7-0.4,3.5c-1-0.1-1.9-0.1-3.1-0.1c-1,0-2,0.1-3,0.2
	v15.7h-4V20.5c1.7-0.6,4.6-1,6.9-1C210.7,19.5,212.1,19.5,213,19.6z"/>
</svg>
