<?xml version="1.0" encoding="utf-8"?>
<!-- Generator: Adobe Illustrator 21.1.0, SVG Export Plug-In . SVG Version: 6.00 Build 0)  -->
<svg version="1.1" id="Capa_1" xmlns="http://www.w3.org/2000/svg" xmlns:xlink="http://www.w3.org/1999/xlink" x="0px" y="0px"
	 viewBox="0 0 14 16" style="enable-background:new 0 0 14 16;" xml:space="preserve">
<style type="text/css">
	.st0{fill:#FFFFFF;}
</style>
<title>Group 23 Copy</title>
<desc>Created with Sketch.</desc>
<g id="Page-1">
	<g id="Group-23-Copy">
		<g id="Group-3" transform="translate(6.892857, 0.062959)">
			<polygon id="Stroke-1" class="st0" points="-0.7,0 0.8,0 0.8,8.7 -0.7,8.7 			"/>
		</g>
		<g>
			<path class="st0" d="M7,15.8c-3.8,0-6.9-3.1-6.9-6.9c0-2.9,1.8-5.5,4.6-6.5l0.5-0.2l0.6,1.7L5.3,4c-2,0.7-3.4,2.7-3.4,4.8
				C1.9,11.7,4.2,14,7,14s5.1-2.3,5.1-5.1c0-2.1-1.3-4-3.3-4.8L8.4,3.9L9,2.2l0.5,0.2c2.7,1,4.4,3.6,4.4,6.5
				C13.9,12.7,10.8,15.8,7,15.8z"/>
		</g>
	</g>
</g>
</svg>
