<?xml version="1.0" encoding="UTF-8"?>
<svg width="17px" height="17px" viewBox="0 0 17 17" version="1.1" xmlns="http://www.w3.org/2000/svg" xmlns:xlink="http://www.w3.org/1999/xlink">
    <!-- Generator: Sketch 50.2 (55047) - http://www.bohemiancoding.com/sketch -->
    <title>Shape Copy 2</title>
    <desc>Created with Sketch.</desc>
    <defs></defs>
    <g id="Page-1" stroke="none" stroke-width="1" fill="none" fill-rule="evenodd">
        <g id="Assets" transform="translate(-89.000000, -47.000000)" fill="#FFFFFF" fill-rule="nonzero">
            <path d="M105.466818,56.4096102 L105.466818,54.0572076 L103.61262,53.8681753 C103.433701,53.1033078 103.117134,52.3773679 102.678381,51.7258087 L103.887347,50.2429549 L102.223863,48.5794703 L100.699842,49.8220429 C100.058265,49.4240262 99.3519664,49.1413929 98.6129249,48.98694 L98.4096102,47 L96.0572076,47 L95.8522125,49.0062633 C95.125929,49.1680959 94.43301,49.4540174 93.803942,49.8514479 L92.2429549,48.5794703 L90.5794703,50.2429549 L91.8346451,51.7837786 C91.417043,52.4176922 91.1141791,53.120109 90.939892,53.8589337 L89,54.0572076 L89,56.4096102 L90.8844425,56.6020031 C91.0346032,57.3794175 91.3262052,58.1226608 91.7447497,58.7947783 L90.5803104,60.2230227 L92.2437951,61.8865073 L93.6317126,60.7556738 C94.3129114,61.2163964 95.0756307,61.5431539 95.8790971,61.7184786 L96.0572076,63.4668178 L98.4096102,63.4668178 L98.5860403,61.738642 C99.402589,61.5713585 100.179116,61.2478531 100.872912,60.785919 L102.223863,61.8865073 L103.887347,60.2230227 L102.769956,58.8510679 C103.209704,58.1616064 103.514742,57.39502 103.66891,56.5919214 L105.466818,56.4096102 Z M97.2334089,58.5519768 C95.4006145,58.5519768 93.914841,57.0662033 93.914841,55.2334089 C93.914841,53.4006145 95.4006145,51.914841 97.2334089,51.914841 C99.0662033,51.914841 100.551977,53.4006145 100.551977,55.2334089 C100.551977,56.1135478 100.202343,56.9576385 99.5799907,57.5799907 C98.9576385,58.2023429 98.1135478,58.5519768 97.2334089,58.5519768 Z" id="Shape-Copy-2"></path>
        </g>
    </g>
</svg>