<?xml version="1.0" encoding="UTF-8"?>
<svg width="17px" height="17px" viewBox="0 0 17 17" version="1.1" xmlns="http://www.w3.org/2000/svg" xmlns:xlink="http://www.w3.org/1999/xlink">
    <!-- Generator: Sketch 50.2 (55047) - http://www.bohemiancoding.com/sketch -->
    <title>Shape Copy</title>
    <desc>Created with Sketch.</desc>
    <defs></defs>
    <g id="Page-1" stroke="none" stroke-width="1" fill="none" fill-rule="evenodd">
        <path d="M16.4668178,9.40961015 L16.4668178,7.05720762 L14.6126205,6.86817527 C14.4337012,6.10330778 14.1171344,5.37736793 13.6783806,4.72580867 L14.8873475,3.24295493 L13.2238628,1.57947028 L11.6998421,2.8220429 C11.0582653,2.42402619 10.3519664,2.1413929 9.61292494,1.98694 L9.40961015,0 L7.05720762,0 L6.85221254,2.00626331 C6.12592902,2.16809594 5.43301001,2.4540174 4.80394204,2.85144793 L3.24295493,1.57947028 L1.57947028,3.24295493 L2.83464506,4.78377859 C2.41704296,5.4176922 2.11417905,6.12010896 1.93989195,6.85893369 L0,7.05720762 L0,9.40961015 L1.88444246,9.60200308 C2.03460317,10.3794175 2.32620515,11.1226608 2.74474968,11.7947783 L1.58031042,13.2230227 L3.24379507,14.8865073 L4.63171257,13.7556738 C5.31291135,14.2163964 6.07563067,14.5431539 6.87909714,14.7184786 L7.05720762,16.4668178 L9.40961015,16.4668178 L9.58604034,14.738642 C10.402589,14.5713585 11.179116,14.2478531 11.8729117,13.785919 L13.2238628,14.8865073 L14.8873475,13.2230227 L13.7699563,11.8510679 C14.2097039,11.1616064 14.5147421,10.39502 14.6689101,9.59192135 L16.4668178,9.40961015 Z M8.23340888,11.5519768 C6.40061446,11.5519768 4.91484102,10.0662033 4.91484102,8.23340888 C4.91484102,6.40061446 6.40061446,4.91484102 8.23340888,4.91484102 C10.0662033,4.91484102 11.5519768,6.40061446 11.5519768,8.23340888 C11.5519768,9.11354781 11.2023429,9.95763853 10.5799907,10.5799907 C9.95763853,11.2023429 9.11354781,11.5519768 8.23340888,11.5519768 Z" id="Shape-Copy" fill="#DDDDDD" fill-rule="nonzero"></path>
    </g>
</svg>