<?xml version="1.0" encoding="UTF-8"?>
<svg width="28px" height="19px" viewBox="0 0 28 19" version="1.1" xmlns="http://www.w3.org/2000/svg" xmlns:xlink="http://www.w3.org/1999/xlink">
    <!-- Generator: Sketch 47.1 (45422) - http://www.bohemiancoding.com/sketch -->
    <title>Group 8</title>
    <desc>Created with Sketch.</desc>
    <defs></defs>
    <g id="Page-1" stroke="none" stroke-width="1" fill="none" fill-rule="evenodd">
        <g id="Group-8" fill="#FFFFFF">
            <path d="M27.9861972,12.0925828 L24.8461037,2.24098805 C24.7828307,2.04220027 24.5177309,1.94758275 24.2530929,2.0294633 L23.5159861,2.25736416 L23.236569,2.34333874 L25.8589328,10.5709692 C25.9088122,10.7260874 25.891262,10.896217 25.8095152,11.0486058 C25.7097564,11.2382957 25.5227086,11.3861356 25.2950183,11.4566438 L6,17.4216418 L6.42536052,18.7585692 C6.48909532,18.9578119 6.754657,19.0528843 7.01975682,18.970094 L27.6218004,12.6006971 C27.8869003,12.5188165 28.049932,12.2913705 27.9861972,12.0925828" id="Fill-114-Copy"></path>
            <path d="M23.9867454,10.092015 L20.9399632,0.242078911 C20.8776559,0.042378087 20.6194617,-0.0526958817 20.3635087,0.0296409046 L19.6480954,0.25709059 L1.75559057,5.95697972 L0.367348079,6.3995968 C0.11005031,6.48147869 -0.0481833357,6.70847348 0.0132274559,6.9072645 L3.06045783,16.7585653 C3.12231687,16.9578112 3.3800629,17.0528852 3.63736066,16.9700935 L23.6335212,10.6005925 C23.8903708,10.5191655 24.0481562,10.290806 23.9867454,10.092015 M18.7520357,9.8777574 L19.0631239,10.9031006 L18.0931024,11.2069734 L17.8057716,10.2616925 C17.1396662,10.4368287 16.4444243,10.4463816 16.0082733,10.354037 L15.9491037,9.09760498 C16.4309767,9.19813774 17.0728764,9.2254317 17.7102935,9.02709558 C18.2800243,8.85013972 18.5929055,8.5016868 18.4745665,8.11229294 C18.3598135,7.73381666 17.9738668,7.59370766 17.1625272,7.57369208 C16.004239,7.54366872 15.1373158,7.2693644 14.8441577,6.30452284 C14.5761019,5.41883376 14.9754961,4.54133287 15.9652409,4.0150143 L15.6788066,3.06927851 L16.6398631,2.76859002 L16.9056777,3.64472621 C17.5587837,3.46231156 18.0455875,3.47413895 18.4369132,3.52599747 L18.4839798,4.74285329 C18.2024764,4.69963785 17.6717437,4.61411677 16.966192,4.83565277 C16.3278783,5.03444379 16.209091,5.3874457 16.2947075,5.66629902 C16.3910821,5.98518348 16.8007862,6.09663382 17.737637,6.14257866 C19.0312979,6.19625679 19.6584052,6.59884273 19.9331849,7.50500228 C20.2021372,8.39023646 19.8229144,9.33688205 18.7520357,9.8777574" id="Fill-116-Copy"></path>
        </g>
    </g>
</svg>