<?xml version="1.0" encoding="UTF-8"?>
<svg width="38px" height="34px" viewBox="0 0 38 34" version="1.1" xmlns="http://www.w3.org/2000/svg" xmlns:xlink="http://www.w3.org/1999/xlink">
    <!-- Generator: Sketch 47.1 (45422) - http://www.bohemiancoding.com/sketch -->
    <title>Cuentas y Chequeras</title>
    <desc>Created with Sketch.</desc>
    <defs>
        <polygon id="path-1" points="0.000316666666 26.3225806 34.4927056 26.3225806 34.4927056 0.799219355 0.000316666666 0.799219355"></polygon>
    </defs>
    <g id="Welcome" stroke="none" stroke-width="1" fill="none" fill-rule="evenodd">
        <g id="OLB-SuperNet---SuperMovil" transform="translate(-166.000000, -313.000000)">
            <g id="Group-7" transform="translate(166.000000, 301.000000)">
                <g id="Cuentas-y-Chequeras" transform="translate(0.000000, 12.000000)">
                    <g id="Page-1">
                        <g id="Group-3" transform="translate(0.000000, 7.351348)">
                            <mask id="mask-2" fill="white">
                                <use xlink:href="#path-1"></use>
                            </mask>
                            <g id="Clip-2"></g>
                            <path d="M28.3092611,19.4509613 C24.9737056,19.4509613 22.2598722,16.809929 22.2598722,13.5612839 C22.2598722,10.3126387 24.9737056,7.67050968 28.3092611,7.67050968 L34.4927056,7.67050968 L34.4927056,3.74405806 C34.4927056,2.12412258 33.7010389,0.799219355 32.1620389,0.799219355 L2.79648333,0.799219355 C1.25853889,0.799219355 0.000316666666,2.12412258 0.000316666666,3.74405806 L0.000316666666,23.3774129 C0.000316666666,24.9973484 1.25853889,26.3233484 2.79648333,26.3233484 L32.1620389,26.3233484 C33.7010389,26.3233484 34.4927056,24.9973484 34.4927056,23.3774129 L34.4927056,19.4509613 L28.3092611,19.4509613 Z" id="Fill-1" fill="#C2C2C2" mask="url(#mask-2)"></path>
                        </g>
                        <path d="M36.2939056,16.9854129 L28.3086278,16.9854129 C26.0011833,16.9854129 24.1244056,18.7468323 24.1244056,20.9129613 C24.1244056,23.0779935 26.0011833,24.8394129 28.3086278,24.8394129 L36.2939056,24.8394129 C36.84385,24.8394129 37.2892944,24.3688968 37.2892944,23.7908968 L37.2892944,18.0350258 C37.2892944,17.455929 36.84385,16.9854129 36.2939056,16.9854129 M27.5011278,21.8934774 C26.9870722,21.8934774 26.5690722,21.4547677 26.5690722,20.9129613 C26.5690722,20.3700581 26.9870722,19.9302516 27.5011278,19.9302516 C28.0151833,19.9302516 28.4342389,20.3700581 28.4342389,20.9129613 C28.4342389,21.4547677 28.0151833,21.8934774 27.5011278,21.8934774" id="Fill-4" fill="#C2C2C2"></path>
                        <path d="M29.73595,6.09214194 C30.4621722,6.09214194 30.7651167,5.46588387 30.7651167,4.70143226 L30.7651167,1.14020645 C30.7651167,0.375754839 30.3281167,-0.125470968 29.6166722,0.0280774194 L2.83722778,5.81356129 C2.12472778,5.96710968 2.21022778,6.09214194 2.93645,6.09214194 L29.73595,6.09214194 Z" id="Fill-6" fill="#C2C2C2"></path>
                    </g>
                </g>
            </g>
        </g>
    </g>
</svg>