<?xml version="1.0" encoding="UTF-8"?>
<svg width="15px" height="16px" viewBox="0 0 15 16" version="1.1" xmlns="http://www.w3.org/2000/svg" xmlns:xlink="http://www.w3.org/1999/xlink">
    <!-- Generator: Sketch 50.2 (55047) - http://www.bohemiancoding.com/sketch -->
    <title>Group 6 Copy 8</title>
    <desc>Created with Sketch.</desc>
    <defs>
        <polygon id="path-1" points="0.0145013645 0.0637262273 7.07006472 0.0637262273 7.07006472 7.00949075 0.0145013645 7.00949075 0.0145013645 0.0637262273"></polygon>
        <polygon id="path-3" points="14.1964912 0.0980398801 14.1964912 7.11579775 7.09829864 7.11579775 0.000106042885 7.11579775 0.000106042885 0.0980398801"></polygon>
    </defs>
    <g id="Page-1" stroke="none" stroke-width="1" fill="none" fill-rule="evenodd">
        <g id="Group-6-Copy-8">
            <g id="Page-1">
                <g id="Group-3" transform="translate(3.741627, 0.000000)">
                    <mask id="mask-2" fill="white">
                        <use xlink:href="#path-1"></use>
                    </mask>
                    <g id="Clip-2"></g>
                    <path d="M3.54254815,7.00949075 C5.49082105,7.00949075 7.07006472,5.45468894 7.07006472,3.53656934 C7.07006472,1.61844973 5.49082105,0.0636479261 3.54254815,0.0636479261 C1.59401014,0.0636479261 0.0145013645,1.61844973 0.0145013645,3.53656934 C0.0145013645,5.45468894 1.59401014,7.00949075 3.54254815,7.00949075" id="Fill-1" fill="#DDDDDD" mask="url(#mask-2)"></path>
                </g>
                <g id="Group-6" transform="translate(0.000000, 7.967015)">
                    <mask id="mask-4" fill="white">
                        <use xlink:href="#path-3"></use>
                    </mask>
                    <g id="Clip-5"></g>
                    <path d="M9.12430097,0.0980398801 L5.07187212,0.0980398801 C1.80097934,0.0980398801 0.000106042885,3.24032346 0.000106042885,7.11579775 L14.1965973,7.11579775 C14.1965973,3.24032346 12.3949287,0.0980398801 9.12430097,0.0980398801" id="Fill-4" fill="#DDDDDD" mask="url(#mask-4)"></path>
                </g>
            </g>
        </g>
    </g>
</svg>