<svg id="Capa_1" data-name="Capa 1" xmlns="http://www.w3.org/2000/svg" viewBox="0 0 195.2 37.33"><defs><style>.cls-1{fill:#ec0000;}.cls-2{fill:#6d6d6d;}</style></defs><title>santander plus</title><path class="cls-1" d="M9.5,15.75C6,14.39,4.86,13.34,4.86,11.41c0-1.61,1.3-3.24,4.2-3.24a9.4,9.4,0,0,1,4.5,1.12l.52.28L15.29,6l-.36-.2A11.66,11.66,0,0,0,9.17,4.51c-5,0-8.57,3-8.57,7.27,0,3.47,2.2,5.86,6.91,7.53,3.23,1.24,4.38,2.42,4.38,4.49,0,2.32-1.81,3.76-4.72,3.76A11,11,0,0,1,1.66,26l-.55-.34L0,29.34l.31.21a13.31,13.31,0,0,0,6.64,1.67c6.81,0,9.23-4.14,9.23-7.68S14.18,17.56,9.5,15.75Z"/><path class="cls-1" d="M33.19,30.26a24.25,24.25,0,0,1-.29-4.2v-6.7c0-5.12-2.53-7.83-7.31-7.83a11.58,11.58,0,0,0-6.16,1.67l-.33.21,1.08,3.12.54-.35a8.39,8.39,0,0,1,4.39-1.25c2.36,0,3.53,1.15,3.57,3.52-6.95.08-10.77,2.62-10.77,7.16a5.62,5.62,0,0,0,6,5.64A7.09,7.09,0,0,0,29,28.5l.27,2.35h4Zm-4.46-8.56h0v2.61a2.87,2.87,0,0,1-.16.87,4,4,0,0,1-3.86,2.66,2.38,2.38,0,0,1-2.57-2.61C22.18,22.9,24.38,21.71,28.73,21.71Z"/><path class="cls-1" d="M46.32,11.54A7.17,7.17,0,0,0,40.74,14l-.13-2.07h-3.9l0,.54c.1,1.37.15,2.81.15,4.81V30.85h4.26V19.59a4.22,4.22,0,0,1,.2-1.37c.48-1.56,2.61-2.93,4.57-2.93,2.49,0,3,1.67,3,4.75V30.85h4.26V19.66C53.15,13.66,49.47,11.54,46.32,11.54Z"/><path class="cls-1" d="M66.61,15.42V11.94H62V6.65L57.77,7.77v4.18H55v3.48h2.78v9.27c0,2.43.44,4,1.38,5A5,5,0,0,0,63,31.22a8.47,8.47,0,0,0,3.08-.48l.33-.14-.21-3.41-.59.16a6.69,6.69,0,0,1-1.76.21c-1,0-1.94-.36-1.94-3V15.42Z"/><path class="cls-1" d="M84.88,30.26a24.25,24.25,0,0,1-.29-4.2v-6.7c0-5.12-2.53-7.83-7.31-7.83a11.58,11.58,0,0,0-6.16,1.67l-.33.21,1.08,3.12.54-.35a8.39,8.39,0,0,1,4.39-1.25c2.36,0,3.53,1.15,3.57,3.52-6.95.08-10.77,2.62-10.77,7.16a5.62,5.62,0,0,0,6,5.64,7.32,7.32,0,0,0,5.24-2.11l.15,1.7h4Zm-8.45-2.41a2.38,2.38,0,0,1-2.57-2.61c0-2.35,2.21-3.54,6.56-3.54h0v2.61a2.87,2.87,0,0,1-.16.87A4,4,0,0,1,76.44,27.86Z"/><path class="cls-1" d="M96.48,11.54A6.64,6.64,0,0,0,91.25,14l-.12-2H87.41l0,.54c.1,1.37.14,2.81.14,4.81V30.85h4.07V19.59a4.48,4.48,0,0,1,.19-1.38c.46-1.61,2.87-2.86,4.63-2.86,2.3,0,2.41,1.61,2.41,4.68V30.85h4.07V19.66C102.95,13.66,99.47,11.54,96.48,11.54Z"/><path class="cls-1" d="M122.86,30.31c-.11-1.39-.13-3.47-.13-4.58V3.58h-5v9.74a6,6,0,0,0-4.43-1.79,6.87,6.87,0,0,0-4.89,2.09,11.14,11.14,0,0,0-2.84,8c0,5.56,3.11,9.6,7.39,9.6,2.37,0,4.07-.54,5.16-1.65l.05,1.24h4.74Zm-9.07-2.68c-.89,0-3.58,0-3.58-6.12,0-2.93.63-6.42,3.65-6.42a4,4,0,0,1,3.74,3.39,5.92,5.92,0,0,1,.12,1.25v3.11a5.67,5.67,0,0,1-.12,1.3A4.06,4.06,0,0,1,113.79,27.63Z"/><path class="cls-1" d="M134.08,11.54c-5.24,0-8.9,4.18-8.9,10.16,0,5.79,3.65,9.53,9.31,9.53a14.92,14.92,0,0,0,6.16-1.15l.54-.25L139.25,27l-.38.16c-1.16.49-1.68.57-3.94.57-3.09,0-4.69-1.71-4.88-5.22h11.77l.07-.59a11.76,11.76,0,0,0,.1-1.42C142,16.35,139.91,11.54,134.08,11.54Zm-.26,3.33a3.69,3.69,0,0,1,2.75,1,5.16,5.16,0,0,1,1.26,3.26h-7.69C130.58,16.2,131.73,14.87,133.82,14.87Z"/><path class="cls-1" d="M155.22,11.66a4,4,0,0,0-1-.13c-2.16,0-3.71.48-4.69,1.47l0-1.07h-3.86l0,.53c.1,1.52.15,3.24.15,5.55V30.85H150v-10a8.64,8.64,0,0,1,.14-1.43c.42-2.33,1.91-3.77,3.87-3.77a4.41,4.41,0,0,1,1,.1l.61.14V11.76Z"/><polygon class="cls-1" points="174.28 16 157.62 16 157.62 12 170.28 12 170.28 0 174.28 0 174.28 16"/><polygon class="cls-2" points="195.2 16 178.53 16 178.53 0 182.53 0 182.53 12 195.2 12 195.2 16"/><polygon class="cls-1" points="182.53 37.33 178.53 37.33 178.53 21.17 195.2 21.17 195.2 25.17 182.53 25.17 182.53 37.33"/><polygon class="cls-2" points="174.28 37.33 170.28 37.33 170.28 25.17 157.62 25.17 157.62 21.17 174.28 21.17 174.28 37.33"/></svg>