<?xml version="1.0" encoding="UTF-8"?>
<svg width="273px" height="38px" viewBox="0 0 273 38" version="1.1" xmlns="http://www.w3.org/2000/svg" xmlns:xlink="http://www.w3.org/1999/xlink">
    <!-- Generator: Sketch 47.1 (45422) - http://www.bohemiancoding.com/sketch -->
    <title>Page 1</title>
    <desc>Created with Sketch.</desc>
    <defs>
        <polygon id="path-1" points="0 37.334 272.792 37.334 272.792 0 0 0"></polygon>
    </defs>
    <g id="mOLB-consulta-saldos-Prop-2" stroke="none" stroke-width="1" fill="none" fill-rule="evenodd">
        <g id="Page-1">
            <path d="M50.2017,26.7227 C51.6447,27.6107 53.7537,28.3507 55.9737,28.3507 C59.2667,28.3507 61.1917,26.6117 61.1917,24.0947 C61.1917,21.7637 59.8597,20.4317 56.4927,19.1367 C52.4217,17.6937 49.9057,15.5847 49.9057,12.0697 C49.9057,8.1837 53.1247,5.2977 57.9727,5.2977 C60.5257,5.2977 62.3757,5.8897 63.4857,6.5187 L62.5977,9.1457 C61.7837,8.7017 60.1187,7.9617 57.8617,7.9617 C54.4567,7.9617 53.1617,9.9967 53.1617,11.6997 C53.1617,14.0307 54.6797,15.1767 58.1197,16.5097 C62.3387,18.1377 64.4847,20.1727 64.4847,23.8357 C64.4847,27.6847 61.6357,31.0147 55.7517,31.0147 C53.3467,31.0147 50.7197,30.3117 49.3877,29.4237 L50.2017,26.7227 Z" id="Fill-1" fill="#6D6D6D"></path>
            <path d="M78.063,21.5049 C74.511,21.4309 70.478,22.0599 70.478,25.5379 C70.478,27.6479 71.884,28.6469 73.549,28.6469 C75.88,28.6469 77.36,27.1659 77.878,25.6499 C77.989,25.3169 78.063,24.9459 78.063,24.6129 L78.063,21.5049 Z M78.544,30.6449 L78.285,28.3879 L78.174,28.3879 C77.175,29.7939 75.251,31.0519 72.698,31.0519 C69.071,31.0519 67.221,28.4979 67.221,25.9079 C67.221,21.5789 71.07,19.2109 77.989,19.2479 L77.989,18.8779 C77.989,17.3979 77.582,14.7339 73.919,14.7339 C72.254,14.7339 70.515,15.2519 69.256,16.0659 L68.517,13.9189 C69.997,12.9569 72.143,12.3279 74.4,12.3279 C79.876,12.3279 81.209,16.0659 81.209,19.6539 L81.209,26.3529 C81.209,27.9059 81.282,29.4239 81.504,30.6449 L78.544,30.6449 Z" id="Fill-3" fill="#6D6D6D"></path>
            <path d="M86.2021,17.583 C86.2021,15.732 86.1651,14.215 86.0541,12.735 L88.9401,12.735 L89.1251,15.695 L89.1991,15.695 C90.0871,13.993 92.1601,12.328 95.1191,12.328 C97.5991,12.328 101.4471,13.809 101.4471,19.951 L101.4471,30.645 L98.1911,30.645 L98.1911,20.321 C98.1911,17.435 97.1181,15.029 94.0471,15.029 C91.9001,15.029 90.2351,16.547 89.6801,18.359 C89.5321,18.767 89.4581,19.321 89.4581,19.877 L89.4581,30.645 L86.2021,30.645 L86.2021,17.583 Z" id="Fill-5" fill="#6D6D6D"></path>
            <path d="M110.2524,7.5918 L110.2524,12.7358 L114.9144,12.7358 L114.9144,15.2148 L110.2524,15.2148 L110.2524,24.8718 C110.2524,27.0918 110.8814,28.3508 112.6934,28.3508 C113.5454,28.3508 114.1744,28.2388 114.5814,28.1278 L114.7294,30.5708 C114.1004,30.8288 113.1014,31.0148 111.8434,31.0148 C110.3254,31.0148 109.1054,30.5328 108.3274,29.6458 C107.4024,28.6838 107.0694,27.0918 107.0694,24.9838 L107.0694,15.2148 L104.2944,15.2148 L104.2944,12.7358 L107.0694,12.7358 L107.0694,8.4428 L110.2524,7.5918 Z" id="Fill-7" fill="#6D6D6D"></path>
            <path d="M127.7524,21.5049 C124.2004,21.4309 120.1674,22.0599 120.1674,25.5379 C120.1674,27.6479 121.5734,28.6469 123.2384,28.6469 C125.5694,28.6469 127.0494,27.1659 127.5674,25.6499 C127.6794,25.3169 127.7524,24.9459 127.7524,24.6129 L127.7524,21.5049 Z M128.2334,30.6449 L127.9754,28.3879 L127.8634,28.3879 C126.8644,29.7939 124.9404,31.0519 122.3874,31.0519 C118.7614,31.0519 116.9104,28.4979 116.9104,25.9079 C116.9104,21.5789 120.7594,19.2109 127.6794,19.2479 L127.6794,18.8779 C127.6794,17.3979 127.2724,14.7339 123.6084,14.7339 C121.9434,14.7339 120.2044,15.2519 118.9454,16.0659 L118.2064,13.9189 C119.6864,12.9569 121.8324,12.3279 124.0894,12.3279 C129.5654,12.3279 130.8984,16.0659 130.8984,19.6539 L130.8984,26.3529 C130.8984,27.9059 130.9724,29.4239 131.1934,30.6449 L128.2334,30.6449 Z" id="Fill-9" fill="#6D6D6D"></path>
            <path d="M135.8921,17.583 C135.8921,15.732 135.8551,14.215 135.7451,12.735 L138.6301,12.735 L138.8161,15.695 L138.8891,15.695 C139.7781,13.993 141.8501,12.328 144.8101,12.328 C147.2891,12.328 151.1371,13.809 151.1371,19.951 L151.1371,30.645 L147.8811,30.645 L147.8811,20.321 C147.8811,17.435 146.8081,15.029 143.7371,15.029 C141.5901,15.029 139.9251,16.547 139.3711,18.359 C139.2221,18.767 139.1491,19.321 139.1491,19.877 L139.1491,30.645 L135.8921,30.645 L135.8921,17.583 Z" id="Fill-11" fill="#6D6D6D"></path>
            <path d="M168.3794,20.0244 C168.3794,19.6184 168.3424,19.0624 168.2314,18.6554 C167.7504,16.5844 165.9744,14.8804 163.5314,14.8804 C160.1644,14.8804 158.1664,17.8414 158.1664,21.8004 C158.1664,25.4264 159.9424,28.4244 163.4574,28.4244 C165.6414,28.4244 167.6394,26.9814 168.2314,24.5394 C168.3424,24.0944 168.3794,23.6514 168.3794,23.1324 L168.3794,20.0244 Z M171.6354,4.3724 L171.6354,26.0194 C171.6354,27.6104 171.6724,29.4234 171.7834,30.6444 L168.8604,30.6444 L168.7124,27.5364 L168.6384,27.5364 C167.6394,29.5344 165.4564,31.0514 162.5324,31.0514 C158.2034,31.0514 154.8734,27.3884 154.8734,21.9494 C154.8364,15.9914 158.5364,12.3284 162.9024,12.3284 C165.6414,12.3284 167.4914,13.6234 168.3054,15.0664 L168.3794,15.0664 L168.3794,4.3724 L171.6354,4.3724 Z" id="Fill-13" fill="#6D6D6D"></path>
            <path d="M188.1362,19.9512 C188.1732,17.8792 187.2852,14.6592 183.6222,14.6592 C180.3292,14.6592 178.8862,17.6932 178.6272,19.9512 L188.1362,19.9512 Z M178.5902,22.2822 C178.6632,26.6852 181.4762,28.4982 184.7322,28.4982 C187.0642,28.4982 188.4692,28.0922 189.6912,27.5732 L190.2452,29.9042 C189.0992,30.4232 187.1372,31.0142 184.2882,31.0142 C178.7752,31.0142 175.4822,27.3882 175.4822,21.9862 C175.4822,16.5842 178.6632,12.3282 183.8812,12.3282 C189.7282,12.3282 191.2822,17.4722 191.2822,20.7642 C191.2822,21.4302 191.2072,21.9492 191.1702,22.2822 L178.5902,22.2822 Z" id="Fill-15" fill="#6D6D6D"></path>
            <path d="M195.0552,18.3223 C195.0552,16.2143 195.0182,14.4003 194.9072,12.7353 L197.7562,12.7353 L197.8682,16.2513 L198.0152,16.2513 C198.8292,13.8443 200.7902,12.3283 202.9742,12.3283 C203.3442,12.3283 203.6032,12.3653 203.8992,12.4393 L203.8992,15.5103 C203.5662,15.4363 203.2332,15.3993 202.7882,15.3993 C200.4942,15.3993 198.8672,17.1383 198.4222,19.5813 C198.3482,20.0243 198.2752,20.5433 198.2752,21.0973 L198.2752,30.6443 L195.0552,30.6443 L195.0552,18.3223 Z" id="Fill-17" fill="#6D6D6D"></path>
            <path d="M217.8101,18.0264 C218.5131,18.2124 219.4011,18.2864 220.4741,18.2864 C224.3601,18.2864 226.7281,16.3984 226.7281,12.9574 C226.7281,9.6644 224.3971,8.0724 220.8441,8.0724 C219.4381,8.0724 218.3661,8.1834 217.8101,8.3324 L217.8101,18.0264 Z M214.5911,6.0014 C216.1451,5.7414 218.1801,5.5194 220.7701,5.5194 C223.9531,5.5194 226.2841,6.2594 227.7641,7.5914 C229.1331,8.7754 229.9471,10.5894 229.9471,12.8084 C229.9471,15.0664 229.2811,16.8424 228.0231,18.1374 C226.3211,19.9514 223.5451,20.8764 220.4011,20.8764 C219.4381,20.8764 218.5501,20.8394 217.8101,20.6544 L217.8101,30.6444 L214.5911,30.6444 L214.5911,6.0014 Z" id="Fill-19" fill="#6D6D6D"></path>
            <mask id="mask-2" fill="white">
                <use xlink:href="#path-1"></use>
            </mask>
            <g id="Clip-22"></g>
            <polygon id="Fill-21" fill="#6D6D6D" mask="url(#mask-2)" points="233.72 30.644 236.976 30.644 236.976 4.372 233.72 4.372"></polygon>
            <path d="M257.1782,25.7598 C257.1782,27.6108 257.2152,29.2388 257.3252,30.6448 L254.4402,30.6448 L254.2542,27.7218 L254.1812,27.7218 C253.3292,29.1638 251.4432,31.0518 248.2602,31.0518 C245.4482,31.0518 242.0802,29.4968 242.0802,23.2068 L242.0802,12.7358 L245.3372,12.7358 L245.3372,22.6528 C245.3372,26.0568 246.3732,28.3508 249.3332,28.3508 C251.5162,28.3508 253.0332,26.8328 253.6252,25.3908 C253.8112,24.9088 253.9212,24.3178 253.9212,23.7248 L253.9212,12.7358 L257.1782,12.7358 L257.1782,25.7598 Z" id="Fill-23" fill="#6D6D6D" mask="url(#mask-2)"></path>
            <path d="M261.8755,27.3145 C262.8375,27.9435 264.5395,28.6095 266.1685,28.6095 C268.5365,28.6095 269.6465,27.4255 269.6465,25.9455 C269.6465,24.3905 268.7215,23.5405 266.3155,22.6525 C263.0975,21.5045 261.5795,19.7285 261.5795,17.5835 C261.5795,14.6965 263.9105,12.3285 267.7595,12.3285 C269.5725,12.3285 271.1635,12.8455 272.1625,13.4385 L271.3485,15.8065 C270.6455,15.3625 269.3505,14.7705 267.6855,14.7705 C265.7615,14.7705 264.6885,15.8805 264.6885,17.2125 C264.6885,18.6925 265.7615,19.3585 268.0925,20.2475 C271.2005,21.4305 272.7915,22.9855 272.7915,25.6495 C272.7915,28.7935 270.3495,31.0145 266.0945,31.0145 C264.1335,31.0145 262.3195,30.5335 261.0625,29.7935 L261.8755,27.3145 Z" id="Fill-24" fill="#6D6D6D" mask="url(#mask-2)"></path>
            <polygon id="Fill-25" fill="#EC0000" mask="url(#mask-2)" points="16.6665 16 -0.0005 16 -0.0005 12 12.6665 12 12.6665 0 16.6665 0"></polygon>
            <polygon id="Fill-26" fill="#6D6D6D" mask="url(#mask-2)" points="37.5835 16 20.9165 16 20.9165 0 24.9165 0 24.9165 12 37.5835 12"></polygon>
            <polygon id="Fill-27" fill="#EC0000" mask="url(#mask-2)" points="24.9165 37.334 20.9165 37.334 20.9165 21.167 37.5835 21.167 37.5835 25.167 24.9165 25.167"></polygon>
            <polygon id="Fill-28" fill="#6D6D6D" mask="url(#mask-2)" points="16.6665 37.334 12.6665 37.334 12.6665 25.167 -0.0005 25.167 -0.0005 21.167 16.6665 21.167"></polygon>
        </g>
    </g>
</svg>