<?xml version="1.0" encoding="UTF-8"?>
<svg width="70px" height="61px" viewBox="0 0 70 61" version="1.1" xmlns="http://www.w3.org/2000/svg" xmlns:xlink="http://www.w3.org/1999/xlink">
    <!-- Generator: Sketch 48.2 (47327) - http://www.bohemiancoding.com/sketch -->
    <title>Group 2</title>
    <desc>Created with Sketch.</desc>
    <defs></defs>
    <g id="OLB-Bloqueo-Temporal-1" stroke="none" stroke-width="1" fill="none" fill-rule="evenodd" transform="translate(-98.000000, -166.000000)">
        <g id="Group-6" transform="translate(82.000000, 166.000000)" fill="#EC0000">
            <g id="Group-2" transform="translate(16.000000, 0.000000)">
                <path d="M32.8890592,1.26230087 C33.456198,0.258207316 34.8970414,0.242968596 35.4852901,1.23484248 L69.2901682,58.2348425 C69.8831751,59.2347393 69.1625192,60.5 68,60.5 L2,60.5 C0.851586642,60.5 0.129148193,59.2622342 0.693937218,58.2623009 L32.8890592,1.26230087 Z M34.2267868,4.99396266 L4.569975,57.5 L65.3664393,57.5 L34.2267868,4.99396266 Z" id="Path-3" fill-rule="nonzero"></path>
                <path d="M35.371582,42.3095703 L33.628418,42.3095703 L32.7817383,24.7285156 L36.2182617,24.7285156 L35.371582,42.3095703 Z M32.4829102,47.2402344 C32.4829102,45.7350185 33.146966,44.9824219 34.4750977,44.9824219 C35.1170279,44.9824219 35.6123029,45.1761048 35.9609375,45.5634766 C36.3095721,45.9508483 36.4838867,46.509762 36.4838867,47.2402344 C36.4838867,47.9485713 36.3068052,48.4991842 35.9526367,48.8920898 C35.5984683,49.2849955 35.1059602,49.4814453 34.4750977,49.4814453 C33.8995739,49.4814453 33.4236672,49.3071306 33.0473633,48.9584961 C32.6710593,48.6098615 32.4829102,48.0371134 32.4829102,47.2402344 Z" id="!"></path>
            </g>
        </g>
    </g>
</svg>