<?xml version="1.0" encoding="UTF-8"?>
<svg width="26px" height="19px" viewBox="0 0 26 19" version="1.1" xmlns="http://www.w3.org/2000/svg" xmlns:xlink="http://www.w3.org/1999/xlink">
    <!-- Generator: Sketch 47.1 (45422) - http://www.bohemiancoding.com/sketch -->
    <title>Group Copy 2</title>
    <desc>Created with Sketch.</desc>
    <defs></defs>
    <g id="Welcome" stroke="none" stroke-width="1" fill="none" fill-rule="evenodd">
        <g id="Group-Copy-2" fill="#FFFFFF">
            <path d="M11.8113309,1.01685362 C10.4905457,0.111323785 9.49585657,0 7.65408972,0 C3.42641957,0 0,2.86068394 0,6.39075635 C0,7.81917064 0.563432079,9.13674306 1.51181176,10.2017888 C1.84080207,11.2557503 1.22334225,12.205135 0.909306052,12.6113945 C0.824405328,12.7212726 0.753011537,12.9680162 0.929566452,13.0494609 C2.57837711,13.8171613 4.08584735,12.8176568 4.71729649,12.2918808 C4.99370623,12.3877831 5.278799,12.4721193 5.57064524,12.5400702 C4.8432004,11.459603 4.42641503,10.2133549 4.42641503,8.88566214 C4.42641503,5.00330537 7.26335343,2.08816434 11.8113309,1.01685362" id="Fill-45"></path>
            <path d="M25.724437,8.92325199 C25.724437,4.79270582 21.2618427,1.44576345 15.7563202,1.44576345 C10.2512801,1.44576345 5.78868574,4.79270582 5.78868574,8.92325199 C5.78868574,13.0528343 10.2512801,16.3997767 15.7563202,16.3997767 C16.547923,16.3997767 17.316371,16.33038 18.0544284,16.2007433 C18.6492159,17.0325392 19.9878495,18.5264947 21.6704275,18.0195137 C21.8566302,17.9631289 21.8214157,17.7086745 21.7533986,17.5886762 C21.4904958,17.1255499 20.9878449,16.0349624 21.5580305,15.0036511 C24.0804503,13.6470431 25.724437,11.429242 25.724437,8.92325199 L25.724437,8.92325199 Z M16.433114,13.629212 C16.433114,13.8595703 16.2454641,14.0475196 16.0143991,14.0475196 L14.8402607,14.0475196 C14.6091956,14.0475196 14.4215457,13.8595703 14.4215457,13.629212 L14.4215457,12.4566979 C14.4215457,12.2268215 14.6091956,12.0383903 14.8402607,12.0383903 L16.0143991,12.0383903 C16.2454641,12.0383903 16.433114,12.2268215 16.433114,12.4566979 L16.433114,13.629212 Z M16.232922,10.9314174 C16.2319572,11.3453877 15.9314279,11.2894848 15.9314279,11.2894848 L14.7765851,11.2894848 C14.7765851,11.2894848 14.5064465,11.3222555 14.5064465,10.8499727 C14.6063013,9.77625242 15.0693962,9.13963458 15.5218784,8.6249428 C16.0472017,8.04326397 16.5720425,7.61820952 16.5720425,6.88087016 C16.5720425,5.94497929 15.7640384,5.59076725 14.9405979,5.59076725 C14.3144551,5.59076725 13.6883122,5.76763231 13.1031726,6.0066652 C12.7679112,6.15461499 12.7211193,5.82016171 12.7211193,5.82016171 L12.6347714,4.94402906 C12.6347714,4.94402906 12.5600009,4.58596165 12.8803082,4.50355313 C13.7023015,4.27656827 14.5561327,4.11657045 15.4089991,4.11657045 C17.0399613,4.11657045 18.6439096,4.83945217 18.6439096,6.65436722 C18.6439096,8.50639019 16.3940404,9.32131886 16.232922,10.9314174 L16.232922,10.9314174 Z" id="Fill-47"></path>
        </g>
    </g>
</svg>