<?xml version="1.0" encoding="UTF-8"?>
<svg width="20px" height="20px" viewBox="0 0 20 20" version="1.1" xmlns="http://www.w3.org/2000/svg" xmlns:xlink="http://www.w3.org/1999/xlink">
    <!-- Generator: Sketch 47.1 (45422) - http://www.bohemiancoding.com/sketch -->
    <title>Group 15</title>
    <desc>Created with Sketch.</desc>
    <defs></defs>
    <g id="Pago-TDC-otros-bancos" stroke="none" stroke-width="1" fill="none" fill-rule="evenodd">
        <g id="Group-15" fill="#FFFFFF">
            <path d="M17.1587831,18.5227848 C17.1404125,19.646049 16.95633,19.7481337 15.6897879,19.7481337 L1.47073229,19.7481337 C0.116630652,19.7481337 0,19.6316166 0,18.2778449 L0,3.47028881 C0,2.194997 0.103651311,2.01751565 1.25,2.00136685 L1.25,16.9250519 C1.25,18.3960829 1.37682533,18.5227848 2.84821412,18.5227848 L17.1587831,18.5227848 Z" id="Combined-Shape"></path>
            <path d="M19.1605202,16.2778449 C19.1605202,17.6306291 19.0429012,17.7471463 17.6897879,17.7471463 L3.4697439,17.7471463 C2.11663065,17.7471463 2,17.6306291 2,16.2778449 L2,1.46930138 C2,0.117504613 2.11663065,0 3.4697439,0 L17.6897879,0 C19.0429012,0 19.1605202,0.117504613 19.1605202,1.46930138 L19.1605202,16.2778449 Z M14.800124,5.05808224 L17.2266347,7.50889274 L17.2266347,2 L12,2.0059246 L12,6.49578574 L14.800124,5.05808224 Z" id="Combined-Shape"></path>
        </g>
    </g>
</svg>