<?xml version="1.0" encoding="UTF-8"?>
<svg width="20px" height="30px" viewBox="0 0 20 30" version="1.1" xmlns="http://www.w3.org/2000/svg" xmlns:xlink="http://www.w3.org/1999/xlink">
    <!-- Generator: Sketch 47.1 (45422) - http://www.bohemiancoding.com/sketch -->
    <title>Combined Shape</title>
    <desc>Created with Sketch.</desc>
    <defs></defs>
    <g id="Welcome" stroke="none" stroke-width="1" fill="none" fill-rule="evenodd">
        <path d="M2.00232374,16.0040666 C0.745097028,14.3320493 0,12.253038 0,10 C0,4.4771525 4.4771525,0 10,0 C15.5228475,0 20,4.4771525 20,10 C20,12.2538185 19.2543867,14.3334897 17.9963695,16.005804 L16.7591151,17.9837954 L10,30 L2.00232374,16.0040666 Z M10.5,12 C12.4329966,12 14,10.4329966 14,8.5 C14,6.56700338 12.4329966,5 10.5,5 C8.56700338,5 7,6.56700338 7,8.5 C7,10.4329966 8.56700338,12 10.5,12 Z" id="Combined-Shape" fill="#FFFFFF"></path>
    </g>
</svg>