<?xml version="1.0" encoding="UTF-8"?>
<svg width="16px" height="26px" viewBox="0 0 16 26" version="1.1" xmlns="http://www.w3.org/2000/svg" xmlns:xlink="http://www.w3.org/1999/xlink">
    <!-- Generator: Sketch 47.1 (45422) - http://www.bohemiancoding.com/sketch -->
    <title>Group 16</title>
    <desc>Created with Sketch.</desc>
    <defs></defs>
    <g id="Pago-TDC-otros-bancos" stroke="none" stroke-width="1" fill="none" fill-rule="evenodd">
        <g id="Group-16" fill="#FFFFFF">
            <path d="M3.21293628,12.8727676 C4.27457549,13.5846511 5.62747765,13.5624264 6.64784671,12.9241621 C6.77829836,13.0151443 7.15565939,13.2827662 7.19574362,13.3642566 C7.24436651,13.462647 7.28397637,13.5434429 7.33781732,13.8258812 C7.39189546,14.1087826 7.50621854,13.9840004 7.50621854,13.9840004 C7.58947041,13.8934812 7.71470399,13.7372141 7.78538506,13.6374347 L7.87480374,13.5098744 C7.94524762,13.4094004 8.08684696,13.3839347 8.18954798,13.4526922 C8.292249,13.5214497 8.47606723,13.5598799 8.59869178,13.5376552 L8.94284694,13.4753799 C9.06547149,13.4531552 9.24928971,13.4908908 9.35199074,13.5598799 L9.46441634,13.6353511 C9.56735455,13.7038771 9.66720935,13.8448648 9.68665851,13.9481168 C9.70610766,14.0511374 9.79742381,14.1219785 9.88945152,14.1055415 C9.98147923,14.0886415 10.1408674,14.1312387 10.2433313,14.1997647 C10.3460323,14.2689853 10.4484961,14.4224743 10.4712659,14.5426264 L10.4833623,14.6051332 C10.506132,14.7250537 10.6085959,14.8790058 10.7110597,14.9475318 L11.0253296,15.1584345 C11.1277934,15.2269605 11.2871816,15.2165427 11.3794465,15.1345893 C11.3794465,15.1345893 11.5829511,14.954014 11.9859281,15.223951 C12.3886679,15.4938879 12.3502439,15.6712221 12.3502439,15.6712221 C12.3243908,15.7904482 12.3874819,15.9439372 12.4899458,16.0124632 L12.6789821,16.139329 C12.7814459,16.2080865 12.9655013,16.2465166 13.0878887,16.224292 L14.4718621,15.9738016 C14.5942494,15.9518084 14.6756038,15.835592 14.6528341,15.716366 L14.6428723,15.6633509 C14.6201026,15.5436619 14.5176387,15.3897098 14.4149377,15.3209523 L8.00359509,11.0223335 C8.26473556,9.85484459 7.80009052,8.59683649 6.72825236,7.87823929 C5.31297059,6.92906129 3.38015157,7.27909962 2.40982851,8.6581858 C1.43903108,10.037272 1.79765451,11.9231266 3.21293628,12.8727676 M3.05046468,9.08763096 C3.33034276,8.69013374 3.8872527,8.58942827 4.29568494,8.86306934 C4.70316845,9.1362474 4.80705539,9.68051995 4.5274145,10.0777857 C4.24753642,10.4752829 3.68991493,10.5759884 3.28219424,10.3025788 C2.87399918,10.0291692 2.77082379,9.48535969 3.05046468,9.08763096" id="Fill-84" transform="translate(8.260356, 11.787386) rotate(56.000000) translate(-8.260356, -11.787386) "></path>
            <path d="M15.1308867,24.352414 L15.1308867,0.854023766 C15.1308867,0.38433304 14.7366696,0 14.255917,0 L0.874969723,0 C0.393759268,0 0,0.38433304 0,0.854023766 L0,24.352414 C0,24.8221047 0.393759268,25.2064377 0.874969723,25.2068846 L14.255917,25.2064377 C14.7366696,25.2064377 15.1308867,24.8216578 15.1308867,24.352414 M5.31117153,1.51319962 L9.82063087,1.51319962 C10.0591757,1.51319962 10.2528503,1.69419367 10.2528503,1.91496172 C10.2528503,2.13617666 10.0591757,2.31583001 9.82063087,2.31583001 L5.31117153,2.31583001 C5.07216881,2.31583001 4.87666275,2.13617666 4.87666275,1.91496172 C4.87666275,1.69419367 5.07216881,1.51319962 5.31117153,1.51319962 M8.56563767,23.671787 C8.47177645,23.7634012 8.34815435,23.8139008 8.21537506,23.8143477 L6.90635442,23.8156884 L6.85598987,23.813007 C6.60187778,23.7888745 6.4100346,23.5819603 6.40957674,23.3321438 L6.40820316,22.0544599 C6.4077453,21.7876613 6.63026508,21.5704684 6.90314941,21.5700215 L8.21171218,21.5682339 C8.48917511,21.5682339 8.70803201,21.7863206 8.70940559,22.0517785 L8.71077916,23.3294624 C8.71123702,23.4586162 8.65904103,23.5806196 8.56563767,23.671787 M13.267398,20.1917854 L1.86440435,20.1917854 C1.55672269,20.1917854 1.3026106,19.9477786 1.3026106,19.6474625 L1.3026106,4.18520804 C1.3026106,3.88667959 1.55672269,3.641779 1.86440435,3.641779 L13.267398,3.641779 C13.5769111,3.641779 13.8273604,3.88667959 13.8273604,4.18520804 L13.8273604,19.6470156 C13.8273604,19.9477786 13.5769111,20.1917854 13.267398,20.1917854" id="Fill-58"></path>
        </g>
    </g>
</svg>