<?xml version="1.0" encoding="UTF-8"?>
<svg width="28px" height="28px" viewBox="0 0 28 28" version="1.1" xmlns="http://www.w3.org/2000/svg" xmlns:xlink="http://www.w3.org/1999/xlink">
    <!-- Generator: Sketch 47.1 (45422) - http://www.bohemiancoding.com/sketch -->
    <title>Shape</title>
    <desc>Created with Sketch.</desc>
    <defs></defs>
    <g id="Welcome" stroke="none" stroke-width="1" fill="none" fill-rule="evenodd">
        <g id="OLB-SuperNet---SuperMovil" transform="translate(-1202.000000, -22.000000)" fill-rule="nonzero" fill="#FFFFFF">
            <g id="Group-26" transform="translate(1202.000000, 21.000000)">
                <g id="Group-24">
                    <g id="engrane-config-copy" transform="translate(0.000000, 1.000000)">
                        <path d="M28,16 L28,12 L24.8471429,11.6785714 C24.5429104,10.377999 24.0046237,9.14361866 23.2585714,8.03571429 L25.3142857,5.51428571 L22.4857143,2.68571429 L19.8942857,4.79857143 C18.8033555,4.12178809 17.6023725,3.64120147 16.3457143,3.37857143 L16,0 L12,0 L11.6514286,3.41142857 C10.4164639,3.68660703 9.23823185,4.17278481 8.16857143,4.84857143 L5.51428571,2.68571429 L2.68571429,5.51428571 L4.82,8.13428571 C4.10991387,9.2121856 3.59492734,10.4065675 3.29857143,11.6628571 L0,12 L0,16 L3.20428571,16.3271429 C3.45961736,17.64905 3.95545425,18.912853 4.66714286,20.0557143 L2.68714286,22.4842857 L5.51571429,25.3128571 L7.87571429,23.39 C9.03401738,24.1734077 10.3309371,24.7290227 11.6971429,25.0271429 L12,28 L16,28 L16.3,25.0614286 C17.6884506,24.7769813 19.0088487,24.2268963 20.1885714,23.4414286 L22.4857143,25.3128571 L25.3142857,22.4842857 L23.4142857,20.1514286 C24.1620279,18.9790756 24.6807114,17.6755803 24.9428571,16.31 L28,16 Z M14,19.6428571 C10.8835361,19.6428571 8.35714286,17.1164639 8.35714286,14 C8.35714286,10.8835361 10.8835361,8.35714286 14,8.35714286 C17.1164639,8.35714286 19.6428571,10.8835361 19.6428571,14 C19.6428571,15.4965788 19.0483435,16.9318616 17.9901026,17.9901026 C16.9318616,19.0483435 15.4965788,19.6428571 14,19.6428571 Z" id="Shape"></path>
                    </g>
                </g>
            </g>
        </g>
    </g>
</svg>