<?xml version="1.0" encoding="UTF-8"?>
<svg width="22px" height="29px" viewBox="0 0 22 29" version="1.1" xmlns="http://www.w3.org/2000/svg" xmlns:xlink="http://www.w3.org/1999/xlink">
    <!-- Generator: Sketch 47.1 (45422) - http://www.bohemiancoding.com/sketch -->
    <title>Group 12</title>
    <desc>Created with Sketch.</desc>
    <defs></defs>
    <g id="Pago-TDC-otros-bancos" stroke="none" stroke-width="1" fill="none" fill-rule="evenodd">
        <g id="Group-12" fill="#FFFFFF">
            <path d="M10.4997472,17 C5.80536633,17 2,13.1946337 2,8.49924146 C2,3.80536633 5.80536633,1.77635684e-15 10.4997472,1.77635684e-15 C15.194128,1.77635684e-15 19,3.80536633 19,8.49924146 C19,13.1946337 15.194128,17 10.4997472,17 Z M10.6940494,12.0878434 C12.1460861,11.8718861 12.9424705,10.9269354 12.9593664,9.80680148 C12.9772806,8.6603907 12.3957783,7.95953909 10.9058989,7.40719327 C9.82959236,6.99905869 9.39304178,6.71549959 9.39972229,6.31219118 C9.40399981,5.95900378 9.67456332,5.59805394 10.4938804,5.61149253 C11.4001764,5.62427082 11.9876793,5.9239068 12.3000957,6.08036784 L12.6999,4.66297336 C12.2625309,4.45492257 11.6987617,4.2567037 10.8682991,4.21882024 L10.8854574,3.11034021 L9.65136127,3.09169993 L9.63226047,4.28804852 C8.2803618,4.51803289 7.48627306,5.37580822 7.46816078,6.49612531 C7.44976805,7.71699801 8.35911825,8.36125675 9.6998327,8.83505763 C10.6393346,9.16577121 11.0374462,9.47328175 11.0299471,9.95209847 C11.0225537,10.4448318 10.527147,10.7269414 9.7960385,10.7143989 C8.97793781,10.7007771 8.23892327,10.4259509 7.7140585,10.1275791 L7.31359079,11.5950814 C7.78814967,11.8666961 8.60319403,12.1193731 9.44610935,12.1705575 L9.42822493,13.3667229 L10.6739749,13.3851007 L10.6940494,12.0878434 Z" id="Combined-Shape"></path>
            <path d="M20.2917534,21.1165572 C19.7586826,21.4465227 17.9313017,23.8955181 14.1500056,23.5976034 C14.0671738,23.5923492 9.72231664,23.2902311 8.83911643,23.2334854 C8.32942149,23.2009092 7.9340649,22.7916049 8.40412254,22.4348429 L8.40259803,22.433792 L10.6807261,20.8181171 C11.7311143,20.0515253 10.7945562,18.7589854 9.96674661,19.0390357 C9.33153358,19.2649675 6.09499612,20.9095407 4.98667641,21.9115218 L4.98616824,21.9115218 L4.98413556,21.9136235 L4.86674819,22.0250131 C3.40982357,23.4715019 0,29 0,29 L5.82261677,29 C5.82261677,29 6.61587081,27.9297139 6.80491021,27.6533415 C7.18146449,27.1026985 8.29283322,26.0487005 9.3345826,26.0487005 C10.2066031,26.0487005 15.764463,26.2205137 17.6396119,25.276329 C19.8338918,24.4414323 21.8421814,21.9556573 21.9859936,21.4302346 C22.1292976,20.9048119 21.1454797,20.5879819 20.2917534,21.1165572" id="Fill-273"></path>
        </g>
    </g>
</svg>