<?xml version="1.0" encoding="utf-8"?>
<!-- Generator: Adobe Illustrator 21.1.0, SVG Export Plug-In . SVG Version: 6.00 Build 0)  -->
<svg version="1.1" id="Capa_1" xmlns="http://www.w3.org/2000/svg" xmlns:xlink="http://www.w3.org/1999/xlink" x="0px" y="0px"
	 viewBox="0 0 18.4 17.2" style="enable-background:new 0 0 18.4 17.2;" xml:space="preserve">
<style type="text/css">
	.st0{filter:url(#Adobe_OpacityMaskFilter);}
	.st1{fill:#FFFFFF;}
	.st2{mask:url(#mask-2_2_);fill:#FFFFFF;}
</style>
<g>
	<title>icon_paper</title>
	<desc>Created with Sketch.</desc>
	<g id="Page-3">
		<g id="Saldos-Cuentas-01" transform="translate(-1077.000000, -136.000000)">
			<g id="Group-42" transform="translate(901.000000, 133.000000)">
				
					<g id="Page-1-Copy-4" transform="translate(181.500000, 9.750000) rotate(-16.000000) translate(-181.500000, -9.750000) translate(177.000000, 3.000000)">
					<g id="Clip-2">
					</g>
					<defs>
						<filter id="Adobe_OpacityMaskFilter" filterUnits="userSpaceOnUse" x="5" y="4.4" width="12.4" height="10.3">
							<feColorMatrix  type="matrix" values="1 0 0 0 0  0 1 0 0 0  0 0 1 0 0  0 0 0 1 0"/>
						</filter>
					</defs>
					<mask maskUnits="userSpaceOnUse" x="5" y="4.4" width="12.4" height="10.3" id="mask-2_2_">
						<g class="st0">
							<polygon id="path-1_2_" class="st1" points="13,3.1 8.6,1.9 5.1,14.7 9.4,15.9 13.8,17.1 17.3,4.3 							"/>
						</g>
					</mask>
					<path id="Fill-1" class="st2" d="M9.2,10.2c0.4,0.2,0.7,0.4,1.1,0.5c0.4,0.1,0.8,0.1,1.1,0.1l1,5.5c0.1,0.3,0.2,0.5,0.5,0.6
						c0.1,0,0.2,0,0.3,0c0.4-0.1,0.6-0.5,0.6-0.8l-1-5.5c0.8-0.3,1.4-0.8,1.9-1.5c0.6-0.9,0.8-2,0.6-3c-0.2-1.1-0.8-2-1.7-2.6
						c-0.4-0.2-0.7-0.4-1.1-0.5c-1.7-0.5-3.5,0.2-4.5,1.7c-0.6,0.9-0.8,2-0.6,3C7.7,8.7,8.3,9.6,9.2,10.2 M9,5.2
						c0.7-1.1,2-1.6,3.3-1.2c0.3,0.1,0.6,0.2,0.8,0.4c0.7,0.4,1.1,1.1,1.3,1.9c0.2,0.8,0,1.6-0.4,2.2c-0.7,1.1-2,1.6-3.3,1.2
						c-0.3-0.1-0.6-0.2-0.8-0.4C9.2,8.9,8.7,8.2,8.6,7.5C8.4,6.7,8.5,5.9,9,5.2"/>
				</g>
			</g>
		</g>
	</g>
	<path class="st1" d="M8.8,15.7c-0.1,0-0.2,0.1-0.2,0.2c0,0,0,0.1-0.1,0.1H1.4c0,0-0.1,0-0.1-0.1V4.7c0,0,0-0.1,0.1-0.1H2
		c0.1,0,0.2-0.1,0.2-0.2c0-0.1-0.1-0.2-0.2-0.2H1.4c-0.2,0-0.5,0.2-0.5,0.5v11.3c0,0.2,0.2,0.5,0.5,0.5h7.2c0.2,0,0.5-0.2,0.5-0.5
		C9,15.8,8.9,15.7,8.8,15.7z"/>
	<path class="st1" d="M8,6.8H3.6c-0.1,0-0.2-0.1-0.2-0.2c0-0.1,0.1-0.2,0.2-0.2h4.3C7.8,6,7.7,5.6,7.7,5.2h-4C3.5,5.2,3.4,5.2,3.4,5
		c0-0.1,0.1-0.2,0.2-0.2h4c0-0.6,0.1-1.1,0.3-1.6H2.9c-0.2,0-0.3,0.1-0.3,0.3v11.3c0,0.2,0.1,0.3,0.3,0.3H10c0.2,0,0.3-0.1,0.3-0.3
		V9.1C9.3,8.6,8.5,7.8,8,6.8z M7.5,11.5H3.6c-0.1,0-0.2-0.1-0.2-0.2c0-0.1,0.1-0.2,0.2-0.2h3.8c0.1,0,0.2,0.1,0.2,0.2
		C7.7,11.4,7.6,11.5,7.5,11.5z M7.5,9.9H3.6c-0.1,0-0.2-0.1-0.2-0.2c0-0.1,0.1-0.2,0.2-0.2h3.8c0.1,0,0.2,0.1,0.2,0.2
		C7.7,9.9,7.6,9.9,7.5,9.9z M8.5,8.4H3.6c-0.1,0-0.2-0.1-0.2-0.2C3.4,8,3.5,8,3.6,8h4.9C8.6,8,8.7,8,8.7,8.2
		C8.7,8.3,8.6,8.4,8.5,8.4z"/>
</g>
</svg>
