<?xml version="1.0" encoding="UTF-8"?>
<svg width="22px" height="20px" viewBox="0 0 22 20" version="1.1" xmlns="http://www.w3.org/2000/svg" xmlns:xlink="http://www.w3.org/1999/xlink">
    <!-- Generator: Sketch 47.1 (45422) - http://www.bohemiancoding.com/sketch -->
    <title>Fill 41 Copy 3</title>
    <desc>Created with Sketch.</desc>
    <defs></defs>
    <g id="Welcome" stroke="none" stroke-width="1" fill="none" fill-rule="evenodd">
        <path d="M20.954156,3.81021363 L11.2014536,0.0523517054 C11.0251059,-0.015505604 10.7352713,-0.0176129739 10.5580798,0.0472940177 L0.322319707,3.81527132 C0.145550129,3.88017831 0,4.08838646 0,4.27720679 L0,4.82175117 C0,5.01099298 0.154409703,5.16525245 0.343413929,5.16525245 L1.91577721,5.16525245 L1.90101126,5.25797673 L1.90101126,19.5695469 C1.90101126,19.7583672 2.05542096,19.9126267 2.24442518,19.9126267 L8.50054945,19.9126267 L8.50054945,13.4994788 C8.50054945,13.4248779 8.56256646,13.3633427 8.63808377,13.3633427 L12.7493476,13.3633427 C12.824443,13.3633427 12.8860381,13.4248779 12.8860381,13.4994788 L12.8860381,19.9126267 L19.0864736,19.9126267 C19.2754779,19.9126267 19.4307313,19.7583672 19.4307313,19.5695469 L19.4307313,5.25797673 L19.4159654,5.16525245 L20.9313743,5.16525245 C21.1208004,5.16525245 21.2752101,5.01099298 21.2752101,4.82175117 L21.2752101,4.27720679 C21.2752101,4.08838646 21.1300818,3.87849242 20.954156,3.81021363" id="Fill-41-Copy-3" fill="#FFFFFF"></path>
    </g>
</svg>