<?xml version="1.0" encoding="UTF-8"?>
<svg width="20px" height="20px" viewBox="0 0 20 20" version="1.1" xmlns="http://www.w3.org/2000/svg" xmlns:xlink="http://www.w3.org/1999/xlink">
    <!-- Generator: Sketch 51.1 (57501) - http://www.bohemiancoding.com/sketch -->
    <title>Group 5</title>
    <desc>Created with Sketch.</desc>
    <defs></defs>
    <g id="Page-2-graficas-v1" stroke="none" stroke-width="1" fill="none" fill-rule="evenodd">
        <g id="Consolidados-01" transform="translate(-1126.000000, -205.000000)" fill="#FFFFFE">
            <g id="Group-5" transform="translate(1126.000000, 205.000000)">
                <polygon id="Fill-1" points="11.0038554 -9.63855422e-05 11.0038554 6.44207229 11.0038554 8.69604819 13.2578313 8.69604819 19.7 8.69604819 19.7 6.44207229 13.2578313 6.44207229 13.2578313 -9.63855422e-05"></polygon>
                <polygon id="Fill-2" points="6.44204819 -9.63855422e-05 6.44204819 6.44207229 0.000120481928 6.44207229 0.000120481928 8.69604819 6.44204819 8.69604819 8.6960241 8.69604819 8.6960241 6.44207229 8.6960241 -9.63855422e-05"></polygon>
                <polygon id="Fill-3" points="6.44204819 11.1245542 0.000120481928 11.1245542 0.000120481928 13.3782892 6.44204819 13.3782892 6.44204819 19.8204578 8.6960241 19.8204578 8.6960241 13.3782892 8.6960241 11.1245542"></polygon>
                <polygon id="Fill-4" points="13.2579759 11.1245542 11.004 11.1245542 11.004 13.3782892 11.004 19.8204578 13.2579759 19.8204578 13.2579759 13.3782892 19.6999036 13.3782892 19.6999036 11.1245542"></polygon>
            </g>
        </g>
    </g>
</svg>