<?xml version="1.0" encoding="utf-8"?>
<!-- Generator: Adobe Illustrator 21.1.0, SVG Export Plug-In . SVG Version: 6.00 Build 0)  -->
<svg version="1.1" id="Capa_1" xmlns="http://www.w3.org/2000/svg" xmlns:xlink="http://www.w3.org/1999/xlink" x="0px" y="0px"
	 viewBox="0 0 25.7 21.7" style="enable-background:new 0 0 25.7 21.7;" xml:space="preserve">
<style type="text/css">
	.st0{fill:#FFFFFF;}
</style>
<title>Fill 3</title>
<desc>Created with Sketch.</desc>
<path class="st0" d="M5.4,17.8c1-0.1,1.7-0.7,1.7-1.6c0.1-0.8-0.3-1.3-1.4-1.8c-0.8-0.3-1.1-0.5-1-0.8c0-0.2,0.2-0.5,0.8-0.4
	c0.7,0,1.1,0.3,1.3,0.4l0.3-1c-0.3-0.2-0.7-0.3-1.3-0.4v-0.8H4.9l-0.1,0.9c-1,0.1-1.6,0.7-1.6,1.5c0,0.9,0.6,1.3,1.5,1.8
	c0.6,0.3,0.9,0.5,0.9,0.8s-0.4,0.5-0.9,0.5c-0.6,0-1.1-0.2-1.5-0.5l-0.4,1c0.3,0.2,0.9,0.4,1.5,0.5l-0.1,0.9l0.9,0.1L5.4,17.8z
	 M2.8,8.3h17.8c0.6,0,1.1,0.5,1.1,1.1v4v7.2c0,0.6-0.5,1.1-1.1,1.1H1.1c-0.6,0-1.1-0.5-1.1-1.1V9.3c0-0.6,0.5-1.1,1.1-1.1h1.7V8.3z"
	/>
<path class="st0" d="M20.6,1.4l-0.5-0.9c-0.3-0.5-0.9-0.7-1.5-0.4L5.2,7.4h4.2L20.6,1.4z"/>
<path class="st0" d="M25.6,10.5L22,4.1l-6.4,3.4h5.3c1.2,0,2.2,1,2.2,2.1V13l2.1-1.1C25.7,11.6,25.9,11,25.6,10.5"/>
</svg>
