<?xml version="1.0" encoding="UTF-8"?>
<svg width="42px" height="71px" viewBox="0 0 42 71" version="1.1" xmlns="http://www.w3.org/2000/svg" xmlns:xlink="http://www.w3.org/1999/xlink">
    <!-- Generator: Sketch 48.2 (47327) - http://www.bohemiancoding.com/sketch -->
    <title>Page 1</title>
    <desc>Created with Sketch.</desc>
    <defs>
        <polygon id="path-1" points="42 35.4999775 42 0 0 0 0 35.4999775 0 70.9999551 42 70.9999551"></polygon>
    </defs>
    <g id="OLB-SuperToken-Bloquear-05" stroke="none" stroke-width="1" fill="none" fill-rule="evenodd" transform="translate(-151.000000, -351.000000)">
        <g id="Page-1" transform="translate(151.000000, 351.000000)">
            <g id="Group-3">
                <mask id="mask-2" fill="white">
                    <use xlink:href="#path-1"></use>
                </mask>
                <g id="Clip-2"></g>
                <path d="M38.3478261,54.7679171 C38.3478261,55.9151513 37.4032826,56.8448918 36.2377826,56.8448918 L5.76221739,56.8448918 C4.59671739,56.8448918 3.65217391,55.9151513 3.65217391,54.7679171 L3.65217391,12.1876892 C3.65217391,11.0404551 4.59671739,10.1107146 5.76221739,10.1107146 L36.2377826,10.1107146 C37.4032826,10.1107146 38.3478261,11.0404551 38.3478261,12.1876892 L38.3478261,54.7679171 Z M23.9673913,65.6812462 C23.9673913,66.3854044 23.3876087,66.9556513 22.6726957,66.9556513 L19.3273043,66.9556513 C18.6123913,66.9556513 18.0326087,66.3854044 18.0326087,65.6812462 L18.0326087,62.3882842 C18.0326087,61.6845753 18.6123913,61.1138791 19.3273043,61.1138791 L22.6726957,61.1138791 C23.3876087,61.1138791 23.9673913,61.6845753 23.9673913,62.3882842 L23.9673913,65.6812462 Z M14.8369565,4.49362595 L27.1630435,4.49362595 C27.7935,4.49362595 28.3043478,4.99646772 28.3043478,5.61704367 C28.3043478,6.23761962 27.7935,6.74046139 27.1630435,6.74046139 L14.8369565,6.74046139 C14.2065,6.74046139 13.6956522,6.23761962 13.6956522,5.61704367 C13.6956522,4.99646772 14.2065,4.49362595 14.8369565,4.49362595 Z M39.396,-4.49367089e-05 L2.604,-4.49367089e-05 C1.16595652,-4.49367089e-05 0,1.14763861 0,2.56314494 L0,68.4367652 C0,69.8522715 1.16595652,70.9999551 2.604,70.9999551 L39.396,70.9999551 C40.8340435,70.9999551 42,69.8522715 42,68.4367652 L42,2.56314494 C42,1.14763861 40.8340435,-4.49367089e-05 39.396,-4.49367089e-05 Z" id="Fill-1" fill="#EC0000" mask="url(#mask-2)"></path>
            </g>
            <path d="M21,14.8181818 C22.2271111,14.8181818 23.2222222,15.8359091 23.2222222,17.0909091 C23.2222222,18.3459091 22.2271111,19.3636364 21,19.3636364 C19.7728889,19.3636364 18.7777778,18.3459091 18.7777778,17.0909091 C18.7777778,15.8359091 19.7728889,14.8181818 21,14.8181818 M29,21.1818182 C29,16.6631818 25.4182222,13 21,13 C16.5817778,13 13,16.6631818 13,21.1818182 C13,24.3922727 14.8128889,27.1636364 17.4444444,28.5031818 L17.4444444,30.7272727 L16.1111111,33 L18.3333333,33 L20.1111111,37.0909091 L19.6666667,38.4545455 L20.1111111,40.2727273 L19.2222222,41.1818182 C19.2222222,41.1818182 18.7777778,43 19.2222222,43.4545455 C19.6666667,43.9090909 20.1111111,44.8181818 20.1111111,44.8181818 L20.1111111,46.6363636 L19.2222222,47.5454545 C19.2222222,47.5454545 18.7777778,48.4545455 19.2222222,49.3636364 C19.6666667,50.2727273 22.3333333,53 22.7777778,53 C23.2222222,53 23.6666667,51.6363636 23.6666667,51.6363636 L23.6666667,28.8881818 C26.7715556,27.7636364 29,24.7427273 29,21.1818182" id="Fill-4" fill="#EC0000"></path>
        </g>
    </g>
</svg>