<?xml version="1.0" encoding="UTF-8"?>
<svg width="308px" height="54px" viewBox="0 0 308 54" version="1.1" xmlns="http://www.w3.org/2000/svg" xmlns:xlink="http://www.w3.org/1999/xlink">
    <!-- Generator: Sketch 55.2 (78181) - https://sketchapp.com -->
    <title>Group 3</title>
    <desc>Created with Sketch.</desc>
    <defs>
        <path d="M28.33,0.643 C26.134,4.454 26.134,9.146 28.329,12.956 L28.329,12.956 L35.426,25.269 C37.621,29.079 37.621,33.773 35.426,37.582 L35.426,37.582 L35.055,38.226 C34.796,36.936 34.328,35.678 33.652,34.505 L33.652,34.505 L27.155,23.232 L23.007,16.034 C22.33,14.861 21.863,13.603 21.603,12.313 L21.603,12.313 L21.233,12.956 C19.045,16.753 19.038,21.428 21.211,25.23 L21.211,25.23 L21.21,25.231 L28.33,37.582 C30.525,41.392 30.525,46.086 28.33,49.896 L28.33,49.896 L27.958,50.539 C27.699,49.249 27.231,47.991 26.555,46.818 L26.555,46.818 L17.685,31.426 C16.495,29.361 15.951,27.038 16.05,24.736 L16.05,24.736 C6.554,27.221 0,32.499 0,38.608 L0,38.608 C0,47.109 12.684,54 28.33,54 L28.33,54 C43.975,54 56.658,47.109 56.658,38.608 L56.658,38.608 C56.658,32.499 50.105,27.219 40.608,24.734 L40.608,24.734 C40.523,22.788 39.98,20.858 38.974,19.113 L38.974,19.113 L30.104,3.721 C29.427,2.548 28.959,1.289 28.7,0 L28.7,0 L28.33,0.643 Z M68.133,23.782 C68.133,29.433 71.539,32.258 76.54,34.444 L76.54,34.444 L79.255,35.617 C84.257,37.802 86.279,39.241 86.279,42.333 L86.279,42.333 C86.279,45.478 83.512,47.078 78.563,47.078 L78.563,47.078 C75.636,47.078 71.805,46.385 68.826,45 L68.826,45 C68.24,46.704 67.92,48.197 67.814,50.383 L67.814,50.383 C70.794,51.769 74.359,52.407 78.722,52.407 L78.722,52.407 C87.769,52.407 92.398,48.197 92.398,42.067 L92.398,42.067 C92.398,36.896 89.578,33.858 82.82,30.979 L82.82,30.979 L79.947,29.753 C76.222,28.154 74.146,26.554 74.146,23.782 L74.146,23.782 C74.146,20.957 76.275,19.145 80.904,19.145 L80.904,19.145 C83.352,19.145 86.758,19.624 89.631,20.691 L89.631,20.691 C90.164,19.145 90.535,17.492 90.695,15.36 L90.695,15.36 C87.662,14.294 84.416,13.814 80.958,13.814 L80.958,13.814 C72.337,13.814 68.133,17.706 68.133,23.782 L68.133,23.782 Z M251.535,15.869 L251.535,24.665 C250.152,24.398 248.715,24.239 247.172,24.239 L247.172,24.239 C237.327,24.239 232.326,29.569 232.326,38.952 L232.326,38.952 C232.326,47.906 237.008,53.024 244.032,53.024 L244.032,53.024 C247.863,53.024 250.152,51.479 251.642,48.973 L251.642,48.973 L251.961,52.385 L257.335,52.385 L257.335,15.07 C255.42,15.07 253.344,15.23 251.535,15.869 L251.535,15.869 Z M238.604,38.586 C238.604,32.508 241.372,28.884 247.172,28.884 L247.172,28.884 C248.716,28.884 250.311,29.097 251.855,29.417 L251.855,29.417 L251.855,45.835 C250.258,47.061 248.343,47.861 246.001,47.861 L246.001,47.861 C240.787,47.861 238.604,44.023 238.604,38.586 L238.604,38.586 Z M156.977,15.923 L156.977,43.91 C156.977,50.412 160.595,53.024 166.289,53.024 L166.289,53.024 C167.939,53.024 169.641,52.812 171.237,52.171 L171.237,52.171 C171.557,50.626 171.77,48.813 171.93,47.214 L171.93,47.214 C170.652,47.693 169.056,48.015 167.353,48.015 L167.353,48.015 C164.533,48.015 162.831,46.682 162.831,43.216 L162.831,43.216 L162.831,30.155 L171.557,30.155 C171.823,28.61 171.983,26.957 172.09,25.146 L172.09,25.146 L162.831,25.146 L162.831,15.07 C161.021,15.07 158.786,15.336 156.977,15.923 L156.977,15.923 Z M292.604,25.353 L292.604,52.006 L298.458,52.006 L298.458,29.191 C299.895,28.978 301.332,28.871 302.769,28.871 L302.769,28.871 C304.418,28.871 305.802,28.924 307.185,29.084 L307.185,29.084 C307.505,27.965 307.717,25.832 307.717,24.073 L307.717,24.073 C306.441,23.913 304.418,23.86 302.609,23.86 L302.609,23.86 C299.309,23.86 295.106,24.5 292.604,25.353 L292.604,25.353 Z M262.465,38.093 C262.465,47.208 267.201,52.646 276.992,52.646 L276.992,52.646 C280.132,52.646 282.952,52.166 285.612,50.94 L285.612,50.94 C285.986,49.181 286.304,47.155 286.517,45.609 L286.517,45.609 C283.591,46.942 280.344,47.635 277.151,47.635 L277.151,47.635 C271.937,47.635 269.17,45.342 268.425,40.599 L268.425,40.599 L287.103,40.599 C287.316,39.053 287.422,37.719 287.422,36.067 L287.422,36.067 C287.422,29.351 283.803,23.86 275.448,23.86 L275.448,23.86 C266.137,23.86 262.465,30.15 262.465,38.093 L262.465,38.093 Z M275.555,28.884 C279.6,28.884 281.941,31.442 281.941,35.814 L281.941,35.814 L268.744,35.814 C269.223,31.282 271.405,28.884 275.555,28.884 L275.555,28.884 Z M204.698,25.353 L204.698,52.006 L210.551,52.006 L210.551,29.297 C212.148,29.031 213.797,28.871 215.181,28.871 L215.181,28.871 C221.034,28.871 222.418,30.897 222.418,35.108 L222.418,35.108 L222.418,52.006 L228.271,52.006 L228.271,34.095 C228.271,27.645 225.131,23.86 215.34,23.86 L215.34,23.86 C212.52,23.86 208.423,24.447 204.698,25.353 L204.698,25.353 Z M173.302,38.573 C173.302,47.528 177.985,52.646 185.009,52.646 L185.009,52.646 C188.734,52.646 191.022,51.153 192.512,48.808 L192.512,48.808 L192.831,52.006 L198.206,52.006 L198.206,25.353 C195.12,24.287 191.98,23.86 188.148,23.86 L188.148,23.86 C178.304,23.86 173.302,29.191 173.302,38.573 L173.302,38.573 Z M179.581,38.586 C179.581,32.615 182.401,28.884 188.468,28.884 L188.468,28.884 C190.118,28.884 191.448,28.991 192.672,29.204 L192.672,29.204 L192.672,45.942 C191.129,47.115 189.266,47.861 186.978,47.861 L186.978,47.861 C181.764,47.861 179.581,44.023 179.581,38.586 L179.581,38.586 Z M126.838,25.353 L126.838,52.006 L132.69,52.006 L132.69,29.297 C134.287,29.031 135.937,28.871 137.32,28.871 L137.32,28.871 C143.174,28.871 144.557,30.897 144.557,35.108 L144.557,35.108 L144.557,52.006 L150.41,52.006 L150.41,34.095 C150.41,27.645 147.271,23.86 137.479,23.86 L137.479,23.86 C134.66,23.86 130.562,24.447 126.838,25.353 L126.838,25.353 Z M95.442,38.573 C95.442,47.528 100.125,52.646 107.149,52.646 L107.149,52.646 C110.874,52.646 113.161,51.153 114.652,48.808 L114.652,48.808 L114.971,52.006 L120.345,52.006 L120.345,25.353 C117.259,24.287 114.12,23.86 110.288,23.86 L110.288,23.86 C100.443,23.86 95.442,29.191 95.442,38.573 L95.442,38.573 Z M101.721,38.586 C101.721,32.615 104.541,28.884 110.607,28.884 L110.607,28.884 C112.257,28.884 113.587,28.991 114.811,29.204 L114.811,29.204 L114.811,45.942 C113.268,47.115 111.405,47.861 109.118,47.861 L109.118,47.861 C103.903,47.861 101.721,44.023 101.721,38.586 L101.721,38.586 Z" id="path-1"></path>
    </defs>
    <g id="Desktop" stroke="none" stroke-width="1" fill="none" fill-rule="evenodd">
        <g id="popup" transform="translate(-903.000000, -975.000000)">
            <g id="Group">
                <g id="Group-3" transform="translate(903.000000, 975.000000)">
                    <mask id="mask-2" fill="white">
                        <use xlink:href="#path-1"></use>
                    </mask>
                    <g id="Clip-2"></g>
                    <polygon id="Fill-1" fill="#EC0000" mask="url(#mask-2)" points="-5 59 312.717 59 312.717 -5 -5 -5"></polygon>
                </g>
            </g>
        </g>
    </g>
</svg>