<?xml version="1.0" encoding="utf-8"?>
<!-- Generator: Adobe Illustrator 23.0.1, SVG Export Plug-In . SVG Version: 6.00 Build 0)  -->
<svg version="1.1" id="Icons" xmlns="http://www.w3.org/2000/svg" xmlns:xlink="http://www.w3.org/1999/xlink" x="0px" y="0px"
	 viewBox="0 0 30 30" style="enable-background:new 0 0 30 30;" xml:space="preserve">
<style type="text/css">
	.st0{clip-path:url(#SVGID_2_);}
	.st1{clip-path:url(#SVGID_4_);}
	.st2{clip-path:url(#SVGID_6_);}
	.st3{clip-path:url(#SVGID_8_);}
	.st4{clip-path:url(#SVGID_10_);}
	.st5{clip-path:url(#SVGID_12_);}
	.st6{fill:#E31313;}
	.st7{fill:none;stroke:#EC0000;stroke-miterlimit:10;}
</style>
<title>Stroke_Home 88px copy 47 copia 2</title>
<g>
	<defs>
		<path id="SVGID_1_" d="M14.2,19.4L14,19.4c-0.3-0.1-0.5-0.1-0.8-0.2c-0.3-0.1-0.5-0.2-0.8-0.3c-0.4-0.2-0.5-0.6-0.4-1
			c0.2-0.4,0.6-0.5,1-0.4c0.1,0.1,0.4,0.2,0.6,0.3c0.2,0.1,0.4,0.1,0.6,0.2c0.2,0,0.3,0.1,0.5,0.1c1.2,0,1.7-0.4,1.7-1.1
			c0-0.3-0.2-0.6-0.7-0.8c-0.2-0.1-1-0.4-1-0.4c0.1,0-0.8-0.3-1.1-0.5c-1-0.5-1.6-1.2-1.6-2.1c0-1.3,1-2.2,2.2-2.5c0,0,0,0,0-0.1V9
			c0-0.4,0.3-0.8,0.8-0.8c0.4,0,0.8,0.3,0.8,0.8v1.5c0,0,0,0,0,0.1c0.3,0,0.5,0.1,0.8,0.2c0.2,0.1,0.4,0.2,0.6,0.3
			c0.3,0.2,0.4,0.7,0.2,1c-0.2,0.3-0.7,0.4-1,0.2c-0.1,0-0.2-0.1-0.3-0.1C15.6,12,15.2,12,14.9,12c-0.7,0-1.3,0.5-1.3,1.1
			c0,0.2,0.3,0.5,0.8,0.8c0.3,0.1,1.1,0.5,1.1,0.5c-0.1,0,0.7,0.3,1,0.5c0.9,0.5,1.5,1.2,1.5,2.2c0,1.3-0.9,2.2-2.3,2.5
			c0,0,0,0.1,0,0.1V21c0,0.4-0.3,0.8-0.8,0.8c-0.4,0-0.8-0.3-0.8-0.8L14.2,19.4C14.2,19.5,14.2,19.5,14.2,19.4z M20.2,3.5l0.9,2.7
			c0.1,0.4,0,0.8-0.4,1c-0.4,0.1-0.8,0-1-0.4c0,0,0,0,0-0.1l-1.2-3.6c-0.3-0.8,0.2-1.6,0.9-1.9L23,0c0.4-0.1,0.8,0.1,1,0.5
			c0.1,0.4-0.1,0.8-0.5,1l-2.3,0.8c7,3.4,10,11.9,6.5,18.9c-2.4,4.9-7.3,7.9-12.7,8c-0.4,0-0.8-0.3-0.8-0.7c0-0.4,0.3-0.8,0.7-0.8
			c0,0,0.1,0,0.1,0c7,0,12.6-5.7,12.6-12.7C27.6,10,24.7,5.5,20.2,3.5L20.2,3.5z M9.8,26.5l-0.9-2.7C8.7,23.4,9,23,9.4,22.9
			c0.4-0.1,0.8,0.1,0.9,0.4l1.2,3.6c0.3,0.8-0.1,1.6-0.9,1.9L7,30c-0.4,0.1-0.8-0.1-1-0.5c-0.1-0.4,0.1-0.8,0.5-1l2.3-0.8
			c-7-3.4-10-11.9-6.5-18.9C4.7,4,9.6,0.9,15,0.8c0.4,0,0.8,0.3,0.8,0.7c0,0.4-0.3,0.8-0.7,0.8c0,0-0.1,0-0.1,0
			C8,2.4,2.4,8.1,2.4,15.1C2.4,20,5.3,24.5,9.8,26.5z"/>
	</defs>
	<clipPath id="SVGID_2_">
		<use xlink:href="#SVGID_1_"  style="overflow:visible;"/>
	</clipPath>
	<g class="st0">
		<g>
			<defs>
				<rect id="SVGID_3_" x="-433.4" y="-428.6" width="1079.8" height="1527.4"/>
			</defs>
			<clipPath id="SVGID_4_">
				<use xlink:href="#SVGID_3_"  style="overflow:visible;"/>
			</clipPath>
			<g class="st1">
				<g>
					<g>
						<defs>
							<rect id="SVGID_5_" x="0.7" y="-0.5" width="28.5" height="30.7"/>
						</defs>
						<clipPath id="SVGID_6_">
							<use xlink:href="#SVGID_5_"  style="overflow:visible;"/>
						</clipPath>
						<g class="st2">
							<g>
								<defs>
									<rect id="SVGID_7_" x="0.7" y="-0.5" width="28.5" height="30.7"/>
								</defs>
								<clipPath id="SVGID_8_">
									<use xlink:href="#SVGID_7_"  style="overflow:visible;"/>
								</clipPath>
								<g class="st3">
									<rect x="-2.8" y="-3.8" width="35.7" height="37.5"/>
								</g>
							</g>
							<g>
								<defs>
									<rect id="SVGID_9_" x="-3" y="-3" width="36" height="36"/>
								</defs>
								<clipPath id="SVGID_10_">
									<use xlink:href="#SVGID_9_"  style="overflow:visible;"/>
								</clipPath>
								<g class="st4">
									<g>
										<defs>
											<rect id="SVGID_11_" x="0.7" y="-0.5" width="28.5" height="30.7"/>
										</defs>
										<clipPath id="SVGID_12_">
											<use xlink:href="#SVGID_11_"  style="overflow:visible;"/>
										</clipPath>
										<g class="st5">
											<rect x="-6.8" y="-6.8" class="st6" width="43.5" height="43.5"/>
										</g>
									</g>
								</g>
							</g>
						</g>
					</g>
				</g>
			</g>
		</g>
	</g>
</g>
<rect x="-2035.2" y="-2095.2" class="st7" width="5135.9" height="7265.2"/>
</svg>
