<?xml version="1.0" encoding="UTF-8"?>
<svg width="44px" height="39px" viewBox="0 0 44 39" version="1.1" xmlns="http://www.w3.org/2000/svg" xmlns:xlink="http://www.w3.org/1999/xlink">
    <!-- Generator: Sketch 52.3 (67297) - http://www.bohemiancoding.com/sketch -->
    <title>Group</title>
    <desc>Created with Sketch.</desc>
    <g id="hoover" stroke="none" stroke-width="1" fill="none" fill-rule="evenodd">
        <g id="ICONOS_HOOVER" transform="translate(-1164.000000, -149.000000)">
            <g id="Group" transform="translate(1164.000000, 149.000000)">
                <path d="M40.812822,21.4805527 C40.240083,19.3580657 38.6668323,17.6392041 36.5878528,16.864545 L35.7942122,17.441546 L18.7659526,14.5911612 C17.3511389,14.4107835 15.9482024,14.1487625 14.5643259,13.8064399 C13.9352256,13.6273522 13.3898721,13.2351889 13.0237294,12.6985981 C12.6557505,12.0171684 12.4860683,11.248199 12.5335396,10.4771444 L12.5335396,0.789298212 C11.0337923,0.650817981 9.49319578,0.570037847 7.89424338,0.558497827 L5.56000628,0.558497827 C3.87194993,0.639194075 2.52005193,1.9709111 2.43212858,3.63968296 L2.43212858,19.1725489 L2.23371842,19.230249 C1.56894474,19.426548 0.994859116,19.8471688 0.611423645,20.4188709 C0.24194841,21.0708327 0.0678736396,21.8133436 0.10956267,22.5595445 L0.10956267,33.0205719 C0.10956267,33.4539616 0.464887675,33.8052933 0.903203282,33.8052933 L40.4626864,33.8052933 C40.901002,33.8052933 41.256327,33.4539616 41.256327,33.0205719 L41.256327,24.3655575 C41.2426842,23.3883552 41.0934566,22.4176283 40.812822,21.4805527" id="Path" fill="#FFD30F"></path>
                <path d="M10.8953914,13.86991 C11.5446414,14.8571588 12.5267453,15.5849476 13.6672979,15.9240334 L13.7606674,15.9528835 C14.9904791,16.2756832 16.2398967,16.5204457 17.5012823,16.6856747 L18.2132247,16.7953049 L34.2552691,19.4783594 C34.5118745,19.5197867 34.7714007,19.54101 35.0314029,19.5418295 C36.0375277,19.5393383 37.015917,19.2155245 37.8208162,18.6186279 L38.5385941,18.0877871 C37.9237389,17.5226329 37.2045268,17.0798913 36.420274,16.7837649 C35.9105919,17.159895 35.2677585,17.3141083 34.6404182,17.2107456 L18.5983738,14.5276911 C17.1853969,14.3478642 15.7843698,14.085836 14.4025826,13.7429698 C13.7711125,13.5655459 13.223381,13.1731589 12.8561505,12.635128 C12.4881716,11.9536983 12.3184895,11.1847289 12.3659607,10.4136743 L12.3659607,0.714288087 C11.6014981,0.645047972 10.8253643,0.598887895 10.0317236,0.558497827 L10.0317236,10.4136743 C9.97126906,11.624849 10.2672113,12.8273817 10.8837202,13.87568" id="Path" fill="#FFE058"></path>
                <rect id="Rectangle" fill="#FFD30F" x="4.77197713" y="33.4475527" width="32.4984159" height="3.08118514"></rect>
                <path d="M0.617373036,20.3040351 C0.243554697,20.956607 0.0673253765,21.7016707 0.109676469,22.4504787 L0.109676469,32.9288161 C0.109676469,33.3622058 0.465001474,33.7135374 0.90331708,33.7135374 L37.1773615,33.7135374 L37.9359886,26.2125249 L10.5087027,18.9192328 C9.27153038,18.593911 7.99569165,18.4347679 6.71556744,18.446092 C5.19657516,18.4510949 3.68655746,18.6766073 2.23383222,19.1154131 C1.60815671,19.3780431 1.05423704,19.7833765 0.617373036,20.2982651" id="Path" fill="#FFE058"></path>
                <path d="M37.0544761,39.0098419 C33.4061433,39.0098419 30.4485851,36.0855222 30.4485851,32.478191 C30.4485851,28.8708599 33.4061433,25.9465402 37.0544761,25.9465402 C40.702809,25.9465402 43.6603671,28.8708599 43.6603671,32.478191 C43.6571496,36.0842037 40.7014754,39.0066606 37.0544761,39.0098419" id="Path" fill="#1B416B"></path>
                <path d="M36.6634915,38.2597299 C33.2261744,38.2533593 30.4442968,35.494141 30.4485901,32.0954507 C30.4528834,28.6967604 33.2417233,25.9444218 36.6790458,25.9465414 C40.1163683,25.9486609 42.9017341,28.7044367 42.9017401,32.1031296 C42.898523,35.5020076 40.112673,38.2565489 36.6751627,38.2597299" id="Path" fill="#274B72"></path>
                <path d="M37.5,29 C35.5670034,29 34,30.5670034 34,32.5 C34,34.4329966 35.5670034,36 37.5,36 C39.4329966,36 41,34.4329966 41,32.5 C41,30.5670034 39.4329966,29 37.5,29" id="Path" fill="#8398BA"></path>
                <path d="M37.6147823,29.9855524 C36.370388,29.9832177 35.2472114,30.7226015 34.7693653,31.8586819 C34.2915191,32.9947624 34.5531913,34.3036078 35.4322765,35.1744659 C36.3113616,36.045324 37.6345843,36.3065408 38.7844832,35.8362236 C39.9343821,35.3659064 40.6843018,34.2567589 40.6843041,33.0263475 C40.6811062,31.3505244 39.3096439,29.9918972 37.6147823,29.9855524" id="Path" fill="#758CB2"></path>
                <path d="M6.70939391,39.0098419 C3.06106107,39.0098419 0.10350294,36.0855222 0.10350294,32.478191 C0.10350294,28.8708599 3.06106107,25.9465402 6.70939391,25.9465402 C10.3577268,25.9465402 13.3152849,28.8708599 13.3152849,32.478191 C13.3088608,36.0828879 10.3550625,39.00349 6.70939391,39.0098419" id="Path" fill="#1B416B"></path>
                <path d="M6.91363966,38.2597407 C3.47479589,38.2597407 0.687062213,35.5033369 0.687062213,32.1031404 C0.687062213,28.702944 3.47479589,25.9465402 6.91363966,25.9465402 C10.3524834,25.9465402 13.1402171,28.702944 13.1402171,32.1031404 C13.137,35.5020184 10.35115,38.2565597 6.91363966,38.2597407" id="Path" fill="#274B72"></path>
                <path d="M6.5,29 C4.56700338,29 3,30.5670034 3,32.5 C3,34.4329966 4.56700338,36 6.5,36 C8.43299662,36 10,34.4329966 10,32.5 C10,30.5670034 8.43299662,29 6.5,29" id="Path" fill="#8398BA"></path>
                <path d="M7.26377522,29.9855469 C5.56530225,29.9855469 4.18841785,31.3469572 4.18841785,33.026342 C4.18841785,34.7057267 5.56530225,36.067137 7.26377522,36.067137 C8.9622482,36.067137 10.3391326,34.7057267 10.3391326,33.026342 C10.3359213,31.3482742 8.96091628,29.988722 7.26377522,29.9855469" id="Path" fill="#758CB2"></path>
                <path d="M12.8562454,13.200595 C13.2234759,13.7711789 13.7712074,14.1873069 14.4026775,14.3754656 C15.7844647,14.7390765 17.1854918,15.0169585 18.5984687,15.2076656 L34.6405131,18.0530553 C35.2678534,18.1626719 35.9106868,17.999128 36.4203689,17.6002406 L36.4203689,17.4289053 C36.4203689,13.047617 31.9152913,8.64797142 31.4017591,8.15844201 C26.9258595,3.90565521 20.4016668,1.31726842 12.3660556,0.558497827 L12.3660556,10.8447347 C12.3185844,11.6624411 12.4882665,12.4779362 12.8562454,13.200595" id="Path" fill="#D9EEF3"></path>
                <path d="M31.6157037,7.87314485 C31.0582752,7.32463303 30.473867,6.80900487 29.8650259,6.32850745 L24.6129924,16.1952729 L34.8778,18.0866657 C35.5051403,18.1996057 36.1479738,18.0311034 36.6576558,17.6201221 L36.6576558,17.4435921 C36.6576558,12.9294681 32.1584138,8.39643018 31.6390461,7.89205878" id="Path" fill="#AFDCE6"></path>
            </g>
        </g>
    </g>
</svg>