<?xml version="1.0" encoding="UTF-8"?>
<svg width="268px" height="270px" viewBox="0 0 268 270" version="1.1" xmlns="http://www.w3.org/2000/svg" xmlns:xlink="http://www.w3.org/1999/xlink">
    <!-- Generator: Sketch 52.3 (67297) - http://www.bohemiancoding.com/sketch -->
    <title>Group 4</title>
    <desc>Created with Sketch.</desc>
    <defs>
        <path d="M201,13.3882857 L201,33.5781429 L67,33.5781429 L67,13.3882857 C67,9.682 63.9984,6.674 60.3,6.674 C56.6016,6.674 53.6,9.682 53.6,13.3882857 L53.6,33.5781429 L33.5,33.5781429 C15.0013,33.5781429 0,48.6114286 0,67.1495714 L0,241.754571 C0,260.292714 15.0013,275.326 33.5,275.326 L234.5,275.326 C252.9987,275.326 268,260.292714 268,241.754571 L268,67.1495714 C268,48.6114286 252.9987,33.5781429 234.5,33.5781429 L214.4,33.5781429 L214.4,13.3882857 C214.4,9.682 211.3984,6.674 207.7,6.674 C204.0016,6.674 201,9.682 201,13.3882857 Z M214.4,67.1025714 L214.4,47.0067143 L234.5,47.0067143 C245.6019,47.0067143 254.6,56.024 254.6,67.1495714 L254.6,101.043286 L13.4,101.043286 L13.4,67.1495714 C13.4,56.024 22.3981,47.0067143 33.5,47.0067143 L53.6,47.0067143 L53.6,67.1025714 C53.6,70.8088571 56.6016,73.8168571 60.3,73.8168571 C63.9984,73.8168571 67,70.8088571 67,67.1025714 L67,47.0067143 L201,47.0067143 L201,67.1025714 C201,70.8088571 204.0016,73.8168571 207.7,73.8168571 C211.3984,73.8168571 214.4,70.8088571 214.4,67.1025714 Z M13.4,241.754571 L13.4,114.471857 L254.6,114.471857 L254.6,241.754571 C254.6,252.880143 245.6019,261.897429 234.5,261.897429 L33.5,261.897429 C22.3981,261.897429 13.4,252.880143 13.4,241.754571 Z" id="path-1"></path>
    </defs>
    <g id="Page-1" stroke="none" stroke-width="1" fill="none" fill-rule="evenodd">
        <g id="Artboard-Copy" transform="translate(-703.000000, -429.000000)">
            <g id="Group-4" transform="translate(703.000000, 423.000000)">
                <mask id="mask-2" fill="white">
                    <use xlink:href="#path-1"></use>
                </mask>
                <g id="Clip-2"></g>
                <polygon id="Fill-1" fill="#EB0000" mask="url(#mask-2)" points="-33.5 308.897429 301.5 308.897429 301.5 -26.8974286 -33.5 -26.8974286"></polygon>
                <polygon id="Fill-3" fill="#EB0000" mask="url(#mask-2)" points="-60.3 335.714286 328.3 335.714286 328.3 -53.7142857 -60.3 -53.7142857"></polygon>
            </g>
        </g>
    </g>
</svg>