<?xml version="1.0" encoding="UTF-8"?>
<svg width="369px" height="369px" viewBox="0 0 369 369" version="1.1" xmlns="http://www.w3.org/2000/svg" xmlns:xlink="http://www.w3.org/1999/xlink">
    <!-- Generator: Sketch 52.3 (67297) - http://www.bohemiancoding.com/sketch -->
    <title>Group 2</title>
    <desc>Created with Sketch.</desc>
    <defs>
        <path d="M171,5.72328302 L171,22.933195 L57,22.933195 L57,5.72328302 C57,2.56403079 54.4464,0 51.3,0 C48.1536,0 45.6,2.56403079 45.6,5.72328302 L45.6,22.933195 L28.5,22.933195 C12.7623,22.933195 0,35.7476257 0,51.5496101 L0,200.383585 C0,216.185569 12.7623,229 28.5,229 L199.5,229 C215.2377,229 228,216.185569 228,200.383585 L228,51.5496101 C228,35.7476257 215.2377,22.933195 199.5,22.933195 L182.4,22.933195 L182.4,5.72328302 C182.4,2.56403079 179.8464,0 176.7,0 C173.5536,0 171,2.56403079 171,5.72328302 Z M182.4,51.5095471 L182.4,34.3797611 L199.5,34.3797611 C208.9449,34.3797611 216.6,42.0661302 216.6,51.5496101 L216.6,80.4407428 L11.4,80.4407428 L11.4,51.5496101 C11.4,42.0661302 19.0551,34.3797611 28.5,34.3797611 L45.6,34.3797611 L45.6,51.5095471 C45.6,54.6687994 48.1536,57.2328302 51.3,57.2328302 C54.4464,57.2328302 57,54.6687994 57,51.5095471 L57,34.3797611 L171,34.3797611 L171,51.5095471 C171,54.6687994 173.5536,57.2328302 176.7,57.2328302 C179.8464,57.2328302 182.4,54.6687994 182.4,51.5095471 Z M11.4,200.383585 L11.4,91.8873088 L216.6,91.8873088 L216.6,200.383585 C216.6,209.867065 208.9449,217.553434 199.5,217.553434 L28.5,217.553434 C19.0551,217.553434 11.4,209.867065 11.4,200.383585 Z" id="path-1"></path>
    </defs>
    <g id="Page-1" stroke="none" stroke-width="1" fill="none" fill-rule="evenodd">
        <g id="Artboard-Copy" transform="translate(-291.000000, -1717.000000)">
            <g id="Group-2" transform="translate(292.000000, 1718.000000)">
                <circle id="Oval-Copy-4" stroke="#979797" fill="#EB0000" cx="183.5" cy="183.5" r="183.5"></circle>
                <g id="Group-4-Copy-2" transform="translate(64.000000, 69.000000)">
                    <mask id="mask-2" fill="white">
                        <use xlink:href="#path-1"></use>
                    </mask>
                    <g id="Clip-2"></g>
                    <polygon id="Fill-1" fill="#EB0000" mask="url(#mask-2)" points="-28 257 257 257 257 -29 -28 -29"></polygon>
                    <polygon id="Fill-3" fill="#FFFFFF" mask="url(#mask-2)" points="-51 280 280 280 280 -51 -51 -51"></polygon>
                </g>
            </g>
        </g>
    </g>
</svg>