<?xml version="1.0" encoding="utf-8"?>
<!-- Generator: Adobe Illustrator 23.0.1, SVG Export Plug-In . SVG Version: 6.00 Build 0)  -->
<svg version="1.1" id="Icons" xmlns="http://www.w3.org/2000/svg" xmlns:xlink="http://www.w3.org/1999/xlink" x="0px" y="0px"
	 viewBox="0 0 32 30" style="enable-background:new 0 0 32 30;" xml:space="preserve">
<style type="text/css">
	.st0{fill:none;stroke:#EC0000;stroke-width:2;stroke-linecap:round;stroke-linejoin:round;}
	.st1{fill:none;stroke:#EC0000;stroke-width:3;stroke-linecap:round;stroke-linejoin:round;}
	.st2{fill:#EC0000;}
	.st3{fill:none;stroke:#EC0000;stroke-miterlimit:10;}
</style>
<title>Stroke_Home 88px copy 47 copia</title>
<path class="st0" d="M28.5,22.1V7.5c0-1.2-0.9-2.1-2.1-2.1H5.6c-1.2,0-2.1,0.9-2.1,2.1c0,0,0,0,0,0v14.6"/>
<path class="st0" d="M1,22.1v2.7c0,1.2,1,2.3,2.3,2.3c0,0,0,0,0,0h25.5c1.2,0,2.3-1,2.3-2.3v-2.7L1,22.1z"/>
<polyline class="st1" points="18.1,22.1 18.1,22.9 13.9,22.9 13.9,22.1 "/>
<ellipse class="st0" cx="16" cy="14" rx="5.3" ry="5.2"/>
<path class="st2" d="M15.6,16.5c-0.4,0-0.9-0.2-1.2-0.4l0.3-0.5c0.3,0.2,0.7,0.4,1.2,0.4c0.6,0,1-0.2,1-0.6c0-0.5-0.6-0.6-1.2-0.9
	c-0.5-0.2-1.1-0.6-1.1-1.3c0-0.6,0.4-1,1.1-1.1v-0.9h0.6V12c0.4,0,0.7,0.2,1.1,0.4L17,12.9c-0.3-0.2-0.7-0.3-1.1-0.3
	c-0.5,0-0.8,0.2-0.8,0.6c0,0.4,0.5,0.6,1,0.8c0.6,0.3,1.3,0.6,1.3,1.3c0,0.7-0.4,1.1-1.2,1.2v1h-0.6L15.6,16.5z"/>
<rect x="-2036.2" y="-1853.2" class="st3" width="5135.9" height="7265.2"/>
</svg>
