<?xml version="1.0" encoding="utf-8"?>
<!-- Generator: Adobe Illustrator 23.0.1, SVG Export Plug-In . SVG Version: 6.00 Build 0)  -->
<svg version="1.1" id="Icons" xmlns="http://www.w3.org/2000/svg" xmlns:xlink="http://www.w3.org/1999/xlink" x="0px" y="0px"
	 viewBox="0 0 33 33" style="enable-background:new 0 0 33 33;" xml:space="preserve">
<style type="text/css">
	.st0{fill:none;stroke:#EC0000;stroke-miterlimit:10;}
	.st1{fill:none;stroke:#EC0000;stroke-width:2;stroke-linecap:round;stroke-linejoin:round;}
	.st2{fill:none;stroke:#EC0000;stroke-width:2;stroke-linejoin:round;}
</style>
<title>Stroke_Home 88px copy 47 copia 7</title>
<rect x="-2349.7" y="-2335.7" class="st0" width="5135.9" height="7265.2"/>
<path class="st1" d="M31.5,21.9L21.3,4.3c-1-1.7-2.8-2.8-4.8-2.8l0,0c-2,0-3.8,1.1-4.8,2.8L1.5,21.9"/>
<path class="st2" d="M26.6,13.4v16c0,1.2-0.9,2.1-2.1,2.1l0,0h-16c-1.2,0-2.1-0.9-2.1-2.1l0,0v-16"/>
<path class="st1" d="M13.2,19.6h6.5c0.3,0,0.6,0.3,0.6,0.6v0v11.3l0,0h-7.8l0,0V20.2C12.6,19.9,12.9,19.6,13.2,19.6z"/>
</svg>
