<?xml version="1.0" encoding="UTF-8"?>
<svg width="26px" height="34px" viewBox="0 0 26 34" version="1.1" xmlns="http://www.w3.org/2000/svg" xmlns:xlink="http://www.w3.org/1999/xlink">
    <!-- Generator: Sketch 52.1 (67048) - http://www.bohemiancoding.com/sketch -->
    <title>Group 4</title>
    <desc>Created with Sketch.</desc>
    <defs>
        <path d="M8.9375,4.30355 L8.9375,5.95 C8.9375,5.95765 8.9375,5.96615 8.9383125,5.9738 C5.1276875,7.684 2.4375,11.7232 2.4375,16.39905 L2.4375,22.20625 C1.0391875,22.58365 0,23.91985 0,25.5 C0,27.37085 1.456,28.9 3.2410625,28.9 L8.125,28.9 L8.125,29.3845 C8.125,31.94895 10.336625,34 13,34 C14.967875,34 16.7415625,32.87205 17.4988125,31.16015 C17.7458125,30.6017 17.875,29.9999 17.875,29.3845 L17.875,28.9 L22.7589375,28.9 C24.544,28.9 26,27.37085 26,25.5 C26,23.91985 24.9608125,22.58365 23.5625,22.20625 L23.5625,16.39905 C23.5625,11.7232 20.8723125,7.68485 17.0625,5.9738 C17.0625,5.96615 17.0625,5.95765 17.0625,5.95 L17.0625,4.30355 C17.0625,1.938 15.2384375,0 13,0 C10.76075,0 8.9375,1.938 8.9375,4.30355 Z M10.5625,4.30355 C10.5625,2.8713 11.66425,1.7 13,1.7 C14.33575,1.7 15.4375,2.8713 15.4375,4.30355 L15.4375,5.40515 C14.65425,5.2054 13.8376875,5.1 13,5.1 C12.1615,5.1 11.3449375,5.2054 10.5625,5.40515 L10.5625,4.30355 Z M4.0625,16.39905 C4.0625,11.11715 8.0900625,6.8 13,6.8 C17.909125,6.8 21.9375,11.11715 21.9375,16.39905 L21.9375,22.1 L4.0625,22.1 L4.0625,16.39905 Z M1.625,25.5 C1.625,24.56585 2.354625,23.8 3.2410625,23.8 L22.7589375,23.8 C23.645375,23.8 24.375,24.56585 24.375,25.5 C24.375,26.4333 23.645375,27.2 22.7589375,27.2 L3.2410625,27.2 C2.354625,27.2 1.625,26.4333 1.625,25.5 Z M9.75,29.3845 L9.75,28.9 L16.25,28.9 L16.25,29.3845 C16.25,29.75085 16.1728125,30.10955 16.0249375,30.44615 C15.5390625,31.54265 14.34875,32.3 13,32.3 C11.1938125,32.3 9.75,30.9604 9.75,29.3845 Z" id="path-1"></path>
    </defs>
    <g id="Desktop-Aviso-de-cookies" stroke="none" stroke-width="1" fill="none" fill-rule="evenodd">
        <g id="Home---cookies---desktop" transform="translate(-59.000000, -26.000000)">
            <g id="Group-4" transform="translate(59.000000, 26.000000)">
                <mask id="mask-2" fill="white">
                    <use xlink:href="#path-1"></use>
                </mask>
                <g id="Clip-2"></g>
                <polygon id="Fill-1" fill="#000000" mask="url(#mask-2)" points="-5 37 29 37 29 -5 -5 -5"></polygon>
                <polygon id="Fill-3" fill="#4A4A4A" mask="url(#mask-2)" points="-11 41 36 41 36 -9 -11 -9"></polygon>
            </g>
        </g>
    </g>
</svg>