<?xml version="1.0" encoding="UTF-8"?>
<svg width="44px" height="44px" viewBox="0 0 44 44" version="1.1" xmlns="http://www.w3.org/2000/svg" xmlns:xlink="http://www.w3.org/1999/xlink">
    <!-- Generator: Sketch 52.3 (67297) - http://www.bohemiancoding.com/sketch -->
    <title>Group 3</title>
    <desc>Created with Sketch.</desc>
    <g id="hoover" stroke="none" stroke-width="1" fill="none" fill-rule="evenodd">
        <g id="ICONOS_HOOVER" transform="translate(-992.000000, -144.000000)">
            <g id="Group-3" transform="translate(992.000000, 144.000000)">
                <path d="M0.749978885,29.9666996 C0.617494401,29.9656504 0.487430348,29.931616 0.371880518,29.8677609 C0.0157781927,29.6627746 -0.105602705,29.2130659 0.100122316,28.8609137 L14.5446615,4.24262695 C16.0803353,1.61759694 18.9218346,0 21.9973348,0 C25.072835,0 27.9143343,1.61759694 29.4500081,4.24262695 L43.876824,28.8550938 C44.0299857,29.0848128 44.0411142,29.3792815 43.9057152,29.6195837 C43.7703163,29.8598859 43.5107517,30.0063348 43.2318421,29.9997894 C42.9529325,29.993244 42.700741,29.8347855 42.5771108,29.5884045 L28.1562028,4.98175755 C26.8941687,2.80512525 24.5448093,1.46173413 22.0002887,1.46173413 C19.4557682,1.46173413 17.1064087,2.80512525 15.8443747,4.98175755 L1.39983546,29.5942244 C1.26654645,29.8240592 1.01867322,29.9661316 0.749978885,29.9666996" id="Path" fill="#E20714"></path>
                <path d="M28.127923,4.61624275 C26.868606,2.38011253 24.5243047,1 21.9852623,1 C19.44622,1 17.1019186,2.38011253 15.8426017,4.61624275 L7,20.161676 L7,40.257138 C7.00324583,42.3228985 8.65355514,43.9967079 10.6903124,44 L33.3096876,44 C35.3477908,44 37,42.3242636 37,40.257138 L37,20.155697 L28.127923,4.61624275 Z" id="Path" fill="#FFF8DB"></path>
                <path d="M9.18181818,20.299355 L17.9794721,4.62352776 C19.0502136,2.72891516 20.8944062,1.43110365 23,1.09043746 C22.6389406,1.03346745 22.2743652,1.00324378 21.9090909,1 C19.390424,1.00024331 17.0622129,2.37836448 15.797654,4.6174986 L7,20.2933259 L7,40.5573472 C7.0041698,42.0464888 7.85840521,43.3943719 9.18181818,44 L9.18181818,20.299355 Z" id="Path" fill="#FFE56F"></path>
                <path d="M17,38.88117 L17,44 L27.1980482,44 C27.640954,44 28,43.6673648 28,43.2570384 L28,28 L23.7818599,28 L17,38.88117 Z" id="Path" fill="#C44040"></path>
                <path d="M25.987988,26 L25.2852853,26 L24,28 L28,28 L28,27.8113208 C27.9966899,26.8100845 27.0914723,25.9999956 25.975976,26" id="Path" fill="#B00000"></path>
                <path d="M16,42.7028571 L16,43.2742857 C16,43.6750866 16.305698,44 16.6827957,44 L18,44 L18,39 L16,42.7028571 Z" id="Path" fill="#B00000"></path>
                <path d="M18,29.9930108 L18,39 L24,28 L19.8994413,28 C18.859665,28 18.0167598,28.8923013 18.0167598,29.9930108" id="Path" fill="#CC5959"></path>
                <path d="M18.2409639,30.1864348 C18.2409639,29.0858994 19.1498798,28.1937391 20.2710843,28.1937391 L24.7108434,28.1937391 L26,26 L18.0301205,26 C16.9112642,25.9999952 16.00332,26.8885571 16,27.9867826 L16,43 L18.2409639,39.192 L18.2409639,30.1864348 Z" id="Path" fill="#B40D0D"></path>
            </g>
        </g>
    </g>
</svg>