<?xml version="1.0" encoding="UTF-8"?>
<svg width="40px" height="35px" viewBox="0 0 40 35" version="1.1" xmlns="http://www.w3.org/2000/svg" xmlns:xlink="http://www.w3.org/1999/xlink">
    <!-- Generator: Sketch 52.3 (67297) - http://www.bohemiancoding.com/sketch -->
    <title>tarjeta-03</title>
    <desc>Created with Sketch.</desc>
    <g id="hoover" stroke="none" stroke-width="1" fill="none" fill-rule="evenodd">
        <g id="ICONOS_HOOVER" transform="translate(-628.000000, -158.000000)">
            <g id="Group-11-Copy" transform="translate(590.000000, 158.000000)">
                <g id="tarjeta-03" transform="translate(37.000000, 0.000000)">
                    <path d="M7.72,3.85 C8.09629718,2.61208465 9.35192941,1.86303508 10.62,2.12 L28.15,6.06 L7.09,6.06 L7.72,3.85 Z M5.8,3.3 L5,6.07 C2.74562442,6.18251195 0.98110968,8.05289757 1,10.31 L1,29.81 C0.983323486,32.1329323 2.84717023,34.0325363 5.17,34.06 L36.83,34.06 C39.1528298,34.0325363 41.0166765,32.1329323 41,29.81 L41,10.31 C41.0073163,8.22515524 39.4978728,6.44435112 37.44,6.11 L37.36,6.11 L11.06,0.19 C10.7550411,0.118943483 10.443121,0.0820497038 10.13,0.08 C8.13619249,0.0860937394 6.37969073,1.39231445 5.8,3.3 Z" id="Shape" fill="#E20714"></path>
                    <path d="M5,6.08 C3.85738773,6.1137843 2.77959372,6.61850163 2.02203437,7.47454369 C1.26447502,8.33058575 0.89457736,9.46176002 1,10.6 L1,29 C0.76,32.42 3.11,34 4.82,34 L8.82,34 L19.74,6 L5,6.08 Z" id="Path" fill="#E62C37"></path>
                    <path d="M10.06,19.25 C10.06,20.3545695 10.9554305,21.25 12.06,21.25 C13.1645695,21.25 14.06,20.3545695 14.06,19.25 C14.06,18.1454305 13.1645695,17.25 12.06,17.25 C10.9554305,17.25 10.06,18.1454305 10.06,19.25 Z" id="Path" fill="#FFFFFF"></path>
                </g>
            </g>
        </g>
    </g>
</svg>