<?xml version="1.0" encoding="UTF-8"?>
<svg width="270px" height="268px" viewBox="0 0 270 268" version="1.1" xmlns="http://www.w3.org/2000/svg" xmlns:xlink="http://www.w3.org/1999/xlink">
    <!-- Generator: Sketch 52.3 (67297) - http://www.bohemiancoding.com/sketch -->
    <title>Group 4</title>
    <desc>Created with Sketch.</desc>
    <defs>
        <path d="M120.823571,0 C102.278714,0 87.2521429,14.9946 87.2521429,33.5 L87.2521429,202.6482 C86.1778571,216.7383 74.5822857,227.8 60.4755714,227.8 C45.6638571,227.8 33.6184286,215.5993 33.6184286,200.5109 L33.6184286,106.0342 C41.4137143,103.2604 46.9865714,95.8301 46.9865714,87.1 C46.9865714,78.3699 41.4137143,70.9396 33.6184286,68.1591 L33.6184286,66.598 C33.6184286,62.1961 35.1157143,57.9617 37.7275714,54.8797 C39.1241429,53.2181 39.9902857,52.1662 41.8904286,49.848 C45.3415714,45.6404 47.4431429,43.1413 52.0357143,37.9153 C54.4797143,35.1348 54.2044286,30.9004 51.4112857,28.4616 C48.6248571,26.0228 44.3814286,26.3042 41.9374286,29.0847 C37.2374286,34.438 35.0351429,37.0443 31.4832857,41.3792 C29.6301429,43.6438 28.7975714,44.6488 27.4547143,46.2501 C22.7748571,51.791 20.1831429,59.0806 20.1831429,66.598 L20.1831429,68.1256 C12.3341429,70.8726 6.70085714,78.3364 6.70085714,87.1 C6.70085714,95.8703 12.3341429,103.3341 20.1831429,106.0744 L20.1831429,200.5109 C20.1831429,222.9559 38.2042857,241.2 60.4755714,241.2 C70.7618571,241.2 80.135,237.3073 87.2521429,230.9155 L87.2521429,261.3 C87.2521429,265.0051 90.2534286,268 93.9664286,268 L268.578143,268 C272.291143,268 275.299143,265.0051 275.299143,261.3 L275.299143,33.5 C275.299143,14.9946 260.265857,0 241.727714,0 L120.823571,0 Z M100.680714,33.5 C100.680714,22.3914 109.698,13.4 120.823571,13.4 L241.727714,13.4 C252.853286,13.4 261.863857,22.3914 261.863857,33.5 L261.863857,254.6 L100.680714,254.6 L100.680714,33.5 Z M147.707571,53.6 C143.994571,53.6 140.993286,56.5949 140.993286,60.3 L140.993286,127.3 C140.993286,130.9984 143.994571,134 147.707571,134 L214.843714,134 C218.55,134 221.558,130.9984 221.558,127.3 L221.558,60.3 C221.558,56.5949 218.55,53.6 214.843714,53.6 L147.707571,53.6 Z M154.415143,120.6 L208.129429,120.6 L208.129429,67 L154.415143,67 L154.415143,120.6 Z" id="path-1"></path>
    </defs>
    <g id="Page-1" stroke="none" stroke-width="1" fill="none" fill-rule="evenodd">
        <g id="Artboard-Copy" transform="translate(-655.000000, -926.000000)">
            <g id="Group-4" transform="translate(649.000000, 926.000000)">
                <mask id="mask-2" fill="white">
                    <use xlink:href="#path-1"></use>
                </mask>
                <g id="Clip-2"></g>
                <polygon id="Fill-1" fill="#EB0000" mask="url(#mask-2)" points="-26.8705714 301.5 308.870571 301.5 308.870571 -33.5 -26.8705714 -33.5"></polygon>
                <polygon id="Fill-3" fill="#EB0000" mask="url(#mask-2)" points="-53.7142857 328.3 335.714286 328.3 335.714286 -60.3 -53.7142857 -60.3"></polygon>
            </g>
        </g>
    </g>
</svg>