<?xml version="1.0" encoding="utf-8"?>
<!-- Generator: Adobe Illustrator 23.1.1, SVG Export Plug-In . SVG Version: 6.00 Build 0)  -->
<svg version="1.1" id="Layer_1" xmlns="http://www.w3.org/2000/svg" xmlns:xlink="http://www.w3.org/1999/xlink" x="0px" y="0px"
	 viewBox="0 0 40.6 40.6" style="enable-background:new 0 0 40.6 40.6;" xml:space="preserve">
<style type="text/css">
	.st0{clip-path:url(#SVGID_2_);fill:#E31313;}
	.st1{clip-path:url(#SVGID_4_);fill:#FFFFFF;}
	.st2{clip-path:url(#SVGID_6_);fill:#FFFFFF;}
	.st3{clip-path:url(#SVGID_8_);fill:#FFFFFF;}
	.st4{clip-path:url(#SVGID_10_);fill:#FFFFFF;}
	.st5{clip-path:url(#SVGID_12_);fill:#A6A3A2;}
	.st6{clip-path:url(#SVGID_14_);fill:#A6A3A2;}
	.st7{clip-path:url(#SVGID_16_);fill:#A6A3A2;}
</style>
<g>
	<g>
		<defs>
			<rect id="SVGID_1_" x="0.6" width="40" height="40"/>
		</defs>
		<clipPath id="SVGID_2_">
			<use xlink:href="#SVGID_1_"  style="overflow:visible;"/>
		</clipPath>
		<path class="st0" d="M35.9,40H5.3H5.2c-0.2,0-0.3,0-0.5-0.1c-1.8-0.3-3.2-1.6-3.8-3.2c-0.2-0.6-0.3-1.1-0.3-1.7v-0.1V5.1V5
			c0-0.3,0-0.6,0.1-0.9C1.2,1.9,3,0.3,5.1,0c0.1,0,0.2,0,0.3,0h30.5c0,0,0,0,0.1,0c0.2,0,0.3,0,0.5,0.1c1.1,0.2,2.1,0.8,2.9,1.8
			c0.7,0.9,1.1,1.8,1.1,3V5v30.2v0.1c0,0.2,0,0.4-0.1,0.6C40,38.1,38.2,39.8,35.9,40C36.1,40,36,40,35.9,40"/>
	</g>
	<g>
		<defs>
			<rect id="SVGID_3_" x="0.6" width="40" height="40"/>
		</defs>
		<clipPath id="SVGID_4_">
			<use xlink:href="#SVGID_3_"  style="overflow:visible;"/>
		</clipPath>
		<path class="st1" d="M22.8,21.5c0,0.7-0.1,1.3-0.4,1.9c-0.2,0.6-0.6,1.1-1,1.5s-0.9,0.8-1.5,1c-0.6,0.3-1.2,0.4-1.8,0.4
			c-0.7,0-1.3-0.1-1.8-0.4c-0.6-0.3-1.1-0.6-1.5-1s-0.8-1-1-1.5c-0.2-0.6-0.4-1.2-0.4-1.9c0-0.7,0.1-1.4,0.4-2
			c0.2-0.6,0.6-1.1,1-1.6c0.4-0.4,0.9-0.8,1.5-1c0.6-0.2,1.2-0.4,1.8-0.4c0.7,0,1.3,0.1,1.8,0.4c0.6,0.2,1.1,0.6,1.5,1
			s0.8,0.9,1,1.5C22.7,20.1,22.8,20.8,22.8,21.5"/>
	</g>
	<g>
		<defs>
			<rect id="SVGID_5_" x="0.6" width="40" height="40"/>
		</defs>
		<clipPath id="SVGID_6_">
			<use xlink:href="#SVGID_5_"  style="overflow:visible;"/>
		</clipPath>
		<path class="st2" d="M13,24.9c-0.6,0.5-1.2,0.9-1.9,1.1c-0.7,0.3-1.5,0.4-2.2,0.4c-0.6,0-1.2-0.1-1.7-0.2
			c-0.6-0.1-1.1-0.3-1.6-0.6s-0.9-0.6-1.3-1s-0.7-0.8-1-1.3s-0.5-1-0.6-1.5c-0.2-0.5-0.2-1.1-0.2-1.7s0.1-1.2,0.2-1.7
			c0.2-0.5,0.4-1.1,0.6-1.5c0.3-0.5,0.6-0.9,1-1.3c0.4-0.4,0.8-0.7,1.3-1s1-0.5,1.5-0.6c0.5-0.2,1.1-0.2,1.7-0.2
			c0.8,0,1.5,0.1,2.2,0.4c0.7,0.3,1.4,0.6,1.9,1.1l-1.3,2.2c-0.4-0.4-0.8-0.7-1.3-0.9c-0.5-0.2-1-0.3-1.6-0.3
			c-0.5,0-1.1,0.1-1.5,0.3c-0.5,0.2-0.9,0.5-1.3,0.8c-0.4,0.4-0.6,0.8-0.8,1.3c-0.2,0.5-0.3,1-0.3,1.5s0.1,1.1,0.3,1.5
			c0.2,0.5,0.5,0.9,0.8,1.3c0.4,0.4,0.8,0.6,1.3,0.8c0.5,0.2,1,0.3,1.5,0.3s1.1-0.1,1.6-0.3c0.5-0.2,0.9-0.5,1.3-0.9L13,24.9z"/>
	</g>
	<g>
		<defs>
			<rect id="SVGID_7_" x="0.6" width="40" height="40"/>
		</defs>
		<clipPath id="SVGID_8_">
			<use xlink:href="#SVGID_7_"  style="overflow:visible;"/>
		</clipPath>
		<path class="st3" d="M34.3,20c0,0.6-0.1,1.1-0.2,1.6c-0.1,0.5-0.4,1-0.6,1.5c-0.3,0.5-0.6,0.9-1,1.3s-0.8,0.7-1.3,1
			s-1,0.5-1.5,0.6s-1.1,0.2-1.7,0.2h-3.7V13.8H28c0.6,0,1.1,0.1,1.7,0.2c0.5,0.1,1,0.4,1.5,0.6c0.5,0.3,0.9,0.6,1.3,1s0.7,0.8,1,1.3
			s0.5,1,0.6,1.5S34.3,19.4,34.3,20 M31.8,20c0-0.5-0.1-1-0.3-1.4c-0.2-0.4-0.5-0.8-0.8-1.2c-0.3-0.3-0.7-0.6-1.2-0.8
			c-0.5-0.2-0.9-0.3-1.5-0.3h-1.2v7.4H28c0.5,0,1-0.1,1.5-0.3c0.5-0.2,0.8-0.5,1.2-0.8c0.3-0.3,0.6-0.7,0.8-1.2
			C31.7,21,31.8,20.5,31.8,20"/>
	</g>
	<g>
		<defs>
			<rect id="SVGID_9_" x="0.6" width="40" height="40"/>
		</defs>
		<clipPath id="SVGID_10_">
			<use xlink:href="#SVGID_9_"  style="overflow:visible;"/>
		</clipPath>
		<rect x="35.7" y="17" class="st4" width="2.4" height="9.3"/>
	</g>
	<g>
		<defs>
			<rect id="SVGID_11_" x="0.6" width="40" height="40"/>
		</defs>
		<clipPath id="SVGID_12_">
			<use xlink:href="#SVGID_11_"  style="overflow:visible;"/>
		</clipPath>
		<path class="st5" d="M18.1,23c-0.5,0-1-0.4-1-0.9c-0.2-3.5,0.5-6.5,2.1-8.9c1.4-2.1,3.4-3.6,5.8-4.3c2.3-0.7,4.8-0.6,7.1,0.2
			c2.4,0.8,4.3,2.4,5.5,4.5c0.3,0.5,0.1,1.1-0.4,1.4c-0.5,0.3-1.1,0.1-1.4-0.4c-1.9-3.3-6.3-4.9-10.3-3.8c-2.1,0.6-6.8,2.9-6.4,11.1
			C19.1,22.5,18.7,22.9,18.1,23L18.1,23"/>
	</g>
	<g>
		<defs>
			<rect id="SVGID_13_" x="0.6" width="40" height="40"/>
		</defs>
		<clipPath id="SVGID_14_">
			<use xlink:href="#SVGID_13_"  style="overflow:visible;"/>
		</clipPath>
		<path class="st6" d="M20.2,21.6c0,1.2-1,2.2-2.2,2.2s-2.2-1-2.2-2.2s1-2.2,2.2-2.2C19.3,19.4,20.2,20.4,20.2,21.6"/>
	</g>
	<g>
		<defs>
			<rect id="SVGID_15_" x="0.6" width="40" height="40"/>
		</defs>
		<clipPath id="SVGID_16_">
			<use xlink:href="#SVGID_15_"  style="overflow:visible;"/>
		</clipPath>
		<path class="st7" d="M38.9,14.2c0,0.3-0.1,0.5-0.2,0.8c-0.1,0.2-0.2,0.5-0.4,0.6c-0.2,0.2-0.4,0.3-0.6,0.4
			c-0.2,0.1-0.5,0.2-0.8,0.2s-0.5-0.1-0.8-0.2c-0.2-0.1-0.5-0.2-0.6-0.4c-0.2-0.2-0.3-0.4-0.4-0.6c-0.1-0.2-0.2-0.5-0.2-0.8
			s0.1-0.5,0.2-0.8c0.1-0.2,0.2-0.5,0.4-0.6c0.2-0.2,0.4-0.3,0.6-0.4c0.2-0.1,0.5-0.2,0.8-0.2s0.5,0.1,0.8,0.2
			c0.2,0.1,0.5,0.2,0.6,0.4c0.2,0.2,0.3,0.4,0.4,0.6C38.9,13.7,38.9,13.9,38.9,14.2"/>
	</g>
</g>
</svg>
