<?xml version="1.0" encoding="UTF-8"?>
<svg width="22px" height="22px" viewBox="0 0 22 22" version="1.1" xmlns="http://www.w3.org/2000/svg" xmlns:xlink="http://www.w3.org/1999/xlink">
    <!-- Generator: Sketch 52.3 (67297) - http://www.bohemiancoding.com/sketch -->
    <title>Group 6</title>
    <desc>Created with Sketch.</desc>
    <g id="Symbols" stroke="none" stroke-width="1" fill="none" fill-rule="evenodd">
        <g id="Footer-Copy" transform="translate(-1009.000000, -78.000000)" fill-rule="nonzero">
            <g id="Group-6" transform="translate(1009.000000, 78.000000)">
                <path d="M20.7862069,0 L1.2137931,0 C0.543433683,-4.10476759e-17 8.20953519e-17,0.543433683 0,1.2137931 L0,20.7862069 C8.20953519e-17,21.4565663 0.543433683,22 1.2137931,22 L11.7586207,22 L11.7586207,13.492069 L8.89482759,13.492069 L8.89482759,10.1617241 L11.7586207,10.1617241 L11.7586207,7.71137931 C11.7586207,4.87034483 13.4958621,3.32275862 16.0296552,3.32275862 C16.8835107,3.32089652 17.7368733,3.36394449 18.5862069,3.45172414 L18.5862069,6.42172414 L16.8413793,6.42172414 C15.4606897,6.42172414 15.1913793,7.07413793 15.1913793,8.03758621 L15.1913793,10.157931 L18.4913793,10.157931 L18.0627586,13.4882759 L15.1724138,13.4882759 L15.1724138,22 L20.7862069,22 C21.4565663,22 22,21.4565663 22,20.7862069 L22,1.2137931 C22,0.543433683 21.4565663,4.10476759e-17 20.7862069,0 Z" id="Shape" fill="#898F9C"></path>
                <path d="M15.1724138,22 L15.1724138,13.492069 L18.0437931,13.492069 L18.4724138,10.1617241 L15.1724138,10.1617241 L15.1724138,8.04137931 C15.1724138,7.07793103 15.4417241,6.42551724 16.8224138,6.42551724 L18.5862069,6.42551724 L18.5862069,3.45172414 C17.7356149,3.36381155 16.8809827,3.32076341 16.0258621,3.32275862 C13.4882759,3.32275862 11.7586207,4.87034483 11.7586207,7.71137931 L11.7586207,10.1617241 L8.89482759,10.1617241 L8.89482759,13.492069 L11.7586207,13.492069 L11.7586207,22 L15.1724138,22 Z" id="f" fill="#FFFFFF"></path>
            </g>
        </g>
    </g>
</svg>