<?xml version="1.0" encoding="UTF-8"?>
<svg width="22px" height="22px" viewBox="0 0 22 22" version="1.1" xmlns="http://www.w3.org/2000/svg" xmlns:xlink="http://www.w3.org/1999/xlink">
    <!-- Generator: Sketch 52.3 (67297) - http://www.bohemiancoding.com/sketch -->
    <title>Group 2</title>
    <desc>Created with Sketch.</desc>
    <g id="Symbols" stroke="none" stroke-width="1" fill="none" fill-rule="evenodd">
        <g id="Footer-Copy" transform="translate(-1009.000000, -234.000000)">
            <g id="Group-2" transform="translate(1009.000000, 234.000000)">
                <g id="Group-3">
                    <polygon id="Clip-2" points="6.25e-05 0.00996836158 21.989625 0.00996836158 21.989625 21.8757062 6.25e-05 21.8757062"></polygon>
                    <path d="M21.9896875,17.3846237 C21.9896875,19.865652 19.9680625,21.8757311 17.4730625,21.8757311 L4.5174375,21.8757311 C2.0226875,21.8757311 6.25e-05,19.865652 6.25e-05,17.3846237 L6.25e-05,4.50182147 C6.25e-05,2.02153898 2.0226875,0.00996836158 4.5174375,0.00996836158 L17.4730625,0.00996836158 C19.9680625,0.00996836158 21.9896875,2.02153898 21.9896875,4.50182147 L21.9896875,17.3846237 Z" id="Fill-1" fill="#898F9C"></path>
                </g>
                <path d="M5.15653087,2.75 C6.1044077,2.75 6.875,3.60351315 6.875,4.65473696 C6.875,5.70533903 6.1044077,6.55661395 5.15653087,6.55661395 C4.20584534,6.55661395 3.4375,5.70533903 3.4375,4.65473696 C3.4375,3.60351315 4.20584534,2.75 5.15653087,2.75 Z M3.67286826,18.5625 L6.6392947,18.5625 L6.6392947,8.00039909 L3.67286826,8.00039909 L3.67286826,18.5625 Z" id="Fill-4" fill="#FFFFFF"></path>
                <path d="M8.9375,7.82764551 L12.1095171,7.82764551 L12.1095171,9.2961826 L12.1548567,9.2961826 C12.5961035,8.45145782 13.6748599,7.5625 15.2831625,7.5625 C18.6316533,7.5625 19.25,9.78502094 19.25,12.674829 L19.25,18.5625 L15.9445943,18.5625 L15.9445943,13.3422424 C15.9445943,12.0973981 15.9233023,10.4951509 14.2256982,10.4951509 C12.5055496,10.4951509 12.2429057,11.852979 12.2429057,13.253018 L12.2429057,18.5625 L8.9375,18.5625 L8.9375,7.82764551 Z" id="Fill-6" fill="#FFFFFF"></path>
            </g>
        </g>
    </g>
</svg>