<?xml version="1.0" encoding="UTF-8"?>
<svg width="22px" height="22px" viewBox="0 0 22 22" version="1.1" xmlns="http://www.w3.org/2000/svg" xmlns:xlink="http://www.w3.org/1999/xlink">
    <!-- Generator: Sketch 52.3 (67297) - http://www.bohemiancoding.com/sketch -->
    <title>Group 5</title>
    <desc>Created with Sketch.</desc>
    <g id="Symbols" stroke="none" stroke-width="1" fill="none" fill-rule="evenodd">
        <g id="Footer-Copy" transform="translate(-1009.000000, -130.000000)" fill="#898F9C">
            <g id="Group-5" transform="translate(1009.000000, 130.000000)">
                <path d="M10.8651053,1.95742105 C13.7662105,1.95742105 14.1095263,1.96842105 15.2552632,2.02052632 C16.3147368,2.06915789 16.8902105,2.24631579 17.2728947,2.39510526 C17.7800526,2.59194737 18.1418947,2.82757895 18.5222632,3.20736842 C18.9026316,3.58773684 19.1376842,3.94957895 19.3351053,4.45673684 C19.4838947,4.84 19.6604737,5.41489474 19.7091053,6.47436842 C19.7612105,7.62010526 19.7722105,7.96342105 19.7722105,10.8645263 C19.7722105,13.7656316 19.7612105,14.1095263 19.7091053,15.2552632 C19.6604737,16.3141579 19.4838947,16.8896316 19.3351053,17.2723158 C19.1376842,17.7794737 18.9026316,18.1413158 18.5222632,18.5216842 C18.1418947,18.9020526 17.7800526,19.1371053 17.2728947,19.3345263 C16.8902105,19.4833158 16.3147368,19.6604737 15.2552632,19.7085263 C14.1101053,19.7606316 13.7662105,19.7716316 10.8651053,19.7716316 C7.964,19.7716316 7.62010526,19.7606316 6.47494737,19.7085263 C5.41547368,19.6604737 4.84,19.4833158 4.45731579,19.3345263 C3.95015789,19.1371053 3.58831579,18.9020526 3.20794737,18.5216842 C2.82815789,18.1413158 2.59252632,17.7794737 2.39510526,17.2723158 C2.24631579,16.8896316 2.06973684,16.3141579 2.02110526,15.2552632 C1.969,14.1095263 1.958,13.7656316 1.958,10.8645263 C1.958,7.96342105 1.969,7.62010526 2.02110526,6.47436842 C2.06973684,5.41489474 2.24631579,4.84 2.39510526,4.45673684 C2.59252632,3.94957895 2.82815789,3.58773684 3.20794737,3.20736842 C3.58831579,2.82757895 3.95015789,2.59194737 4.45731579,2.39510526 C4.84,2.24631579 5.41547368,2.06915789 6.47494737,2.02052632 C7.62068421,1.96842105 7.964,1.95742105 10.8651053,1.95742105 M10.8651053,-3.55271368e-15 C7.91421053,-3.55271368e-15 7.54426316,0.0121578947 6.38578947,0.0654210526 C5.22905263,0.118105263 4.43936842,0.301631579 3.74810526,0.570263158 C3.03368421,0.847578947 2.42810526,1.21926316 1.82368421,1.82310526 C1.21984211,2.42752632 0.848157895,3.03310526 0.570842105,3.74752632 C0.302210526,4.43878947 0.118684211,5.22847368 0.0654210526,6.38521053 C0.0127368421,7.54368421 1.61648472e-13,7.91363158 1.61648472e-13,10.8645263 C1.61648472e-13,13.8154211 0.0127368421,14.1853684 0.0654210526,15.3444211 C0.118684211,16.5005789 0.302210526,17.2902632 0.570842105,17.9815263 C0.848157895,18.6959474 1.21984211,19.3021053 1.82368421,19.9059474 C2.42810526,20.5097895 3.03368421,20.8814737 3.74810526,21.1593684 C4.43936842,21.4274211 5.22905263,21.6115263 6.38578947,21.6642105 C7.54426316,21.7168947 7.91421053,21.7296316 10.8651053,21.7296316 C13.816,21.7296316 14.1859474,21.7168947 15.3444211,21.6642105 C16.5011579,21.6115263 17.2908421,21.4274211 17.9821053,21.1593684 C18.6965263,20.8814737 19.3021053,20.5097895 19.9065263,19.9059474 C20.5103684,19.3021053 20.8820526,18.6959474 21.1593684,17.9815263 C21.428,17.2902632 21.6121053,16.5005789 21.6647895,15.3444211 C21.7174737,14.1853684 21.7302105,13.8154211 21.7302105,10.8645263 C21.7302105,7.91421053 21.7174737,7.54368421 21.6647895,6.38521053 C21.6121053,5.22847368 21.428,4.43878947 21.1593684,3.74752632 C20.8820526,3.03310526 20.5103684,2.42752632 19.9065263,1.82310526 C19.3021053,1.21926316 18.6965263,0.847578947 17.9821053,0.570263158 C17.2908421,0.301631579 16.5011579,0.118105263 15.3444211,0.0654210526 C14.1859474,0.0121578947 13.816,-3.55271368e-15 10.8651053,-3.55271368e-15" id="Fill-1"></path>
                <path d="M10.8651053,5.28521053 C7.78394737,5.28521053 5.28578947,7.78336842 5.28578947,10.8651053 C5.28578947,13.9456842 7.78394737,16.4438421 10.8651053,16.4438421 C13.9462632,16.4438421 16.4444211,13.9456842 16.4444211,10.8651053 C16.4444211,7.78336842 13.9462632,5.28521053 10.8651053,5.28521053 M10.8651053,14.4864211 C8.86484211,14.4864211 7.24321053,12.8647895 7.24321053,10.8651053 C7.24321053,8.86484211 8.86484211,7.24263158 10.8651053,7.24263158 C12.8653684,7.24263158 14.487,8.86484211 14.487,10.8651053 C14.487,12.8647895 12.8653684,14.4864211 10.8651053,14.4864211" id="Fill-3"></path>
                <path d="M17.9685579,5.06474737 C17.9685579,5.78495789 17.3849789,6.36853684 16.6647684,6.36853684 C15.9445579,6.36853684 15.3609789,5.78495789 15.3609789,5.06474737 C15.3609789,4.34453684 15.9445579,3.76095789 16.6647684,3.76095789 C17.3849789,3.76095789 17.9685579,4.34453684 17.9685579,5.06474737" id="Fill-5"></path>
            </g>
        </g>
    </g>
</svg>