<?xml version="1.0" encoding="UTF-8"?>
<svg width="22px" height="22px" viewBox="0 0 22 22" version="1.1" xmlns="http://www.w3.org/2000/svg" xmlns:xlink="http://www.w3.org/1999/xlink">
    <!-- Generator: Sketch 52.3 (67297) - http://www.bohemiancoding.com/sketch -->
    <title>Group 4</title>
    <desc>Created with Sketch.</desc>
    <g id="Symbols" stroke="none" stroke-width="1" fill="none" fill-rule="evenodd">
        <g id="Footer-Copy" transform="translate(-1009.000000, -182.000000)" fill-rule="nonzero">
            <g id="Group-4" transform="translate(1009.000000, 182.000000)">
                <g id="Dark_Blue" fill="#898F9C">
                    <circle id="Oval" cx="11" cy="11" r="11"></circle>
                </g>
                <g id="Logo__x2014__FIXED" transform="translate(4.895000, 6.270000)" fill="#FFFFFF">
                    <path d="M4.092,10.5325 C8.9705,10.5325 11.638,6.49 11.638,2.9865 C11.638,2.871 11.638,2.7555 11.6325,2.6455 C12.1495,2.2715 12.6005,1.804 12.958,1.2705 C12.485,1.4795 11.9735,1.6225 11.4345,1.6885 C11.9845,1.3585 12.4025,0.8415 12.6005,0.22 C12.089,0.5225 11.5225,0.7425 10.9175,0.8635 C10.4335,0.3465 9.746,0.0275 8.9815,0.0275 C7.5185,0.0275 6.3305,1.2155 6.3305,2.6785 C6.3305,2.8875 6.3525,3.091 6.402,3.2835 C4.1965,3.1735 2.244,2.1175 0.935,0.5115 C0.7095,0.902 0.5775,1.3585 0.5775,1.8425 C0.5775,2.761 1.045,3.575 1.76,4.048 C1.3255,4.037 0.9185,3.916 0.561,3.718 C0.561,3.729 0.561,3.74 0.561,3.751 C0.561,5.038 1.474,6.105 2.6895,6.3525 C2.4695,6.413 2.233,6.446 1.991,6.446 C1.8205,6.446 1.6555,6.4295 1.4905,6.3965 C1.826,7.4525 2.805,8.217 3.9655,8.239 C3.058,8.9485 1.914,9.372 0.671,9.372 C0.4565,9.372 0.2475,9.361 0.0385,9.3335 C1.199,10.0925 2.596,10.5325 4.092,10.5325" id="Shape"></path>
                </g>
            </g>
        </g>
    </g>
</svg>