<?xml version="1.0" encoding="utf-8"?>
<!-- Generator: Adobe Illustrator 22.0.1, SVG Export Plug-In . SVG Version: 6.00 Build 0)  -->
<svg version="1.1" id="Capa_1" xmlns="http://www.w3.org/2000/svg" xmlns:xlink="http://www.w3.org/1999/xlink" x="0px" y="0px"
	 viewBox="0 0 24 21" style="enable-background:new 0 0 24 21;" xml:space="preserve">
<style type="text/css">
	.st0{filter:url(#Adobe_OpacityMaskFilter);}
	.st1{fill:#FFFFFF;}
	.st2{mask:url(#mask-2_1_);fill:#EB0000;}
</style>
<title>Group 4 Copy</title>
<desc>Created with Sketch.</desc>
<g id="Móvil">
	<g id="Mobile-Copy-9" transform="translate(-75.000000, -270.000000)">
		<g id="Group-40" transform="translate(75.000000, 268.000000)">
			<g id="Group-32">
				<g id="Group-4-Copy" transform="translate(0.000000, 2.000000)">
					<g id="Clip-2">
					</g>
					<defs>
						<filter id="Adobe_OpacityMaskFilter" filterUnits="userSpaceOnUse" x="-3" y="-3" width="30" height="26.4">
							<feColorMatrix  type="matrix" values="1 0 0 0 0  0 1 0 0 0  0 0 1 0 0  0 0 0 1 0"/>
						</filter>
					</defs>
					<mask maskUnits="userSpaceOnUse" x="-3" y="-3" width="30" height="26.4" id="mask-2_1_">
						<g class="st0">
							<path id="path-1_1_" class="st1" d="M2.9,2L2.4,3.6C1.1,3.7,0,4.8,0,6.2v11.7c0,1.4,1.1,2.6,2.5,2.6h19
								c1.4,0,2.5-1.1,2.5-2.6V6.2c0-1.3-0.9-2.3-2.1-2.5c0,0,0,0,0,0L6,0.1C5.8,0.1,5.7,0,5.5,0C4.3,0,3.2,0.8,2.9,2z M4,2.3
								c0.2-0.7,1-1.2,1.7-1l10.5,2.4H3.7L4,2.3z M1.2,17.9V6.2c0-0.7,0.6-1.3,1.3-1.3h19c0.7,0,1.3,0.6,1.3,1.3v11.7
								c0,0.7-0.6,1.4-1.3,1.4h-19C1.8,19.2,1.2,18.6,1.2,17.9z M3.6,12c0,0.7,0.5,1.2,1.2,1.2S6,12.7,6,12c0-0.7-0.5-1.2-1.2-1.2
								S3.6,11.4,3.6,12z"/>
						</g>
					</mask>
					<polygon id="Fill-1" class="st2" points="-3,23.4 27,23.4 27,-3 -3,-3 					"/>
				</g>
			</g>
		</g>
	</g>
</g>
</svg>
