<?xml version="1.0" encoding="utf-8"?>
<!-- Generator: Adobe Illustrator 22.0.1, SVG Export Plug-In . SVG Version: 6.00 Build 0)  -->
<svg version="1.1" id="Capa_1" xmlns="http://www.w3.org/2000/svg" xmlns:xlink="http://www.w3.org/1999/xlink" x="0px" y="0px"
	 viewBox="0 0 22 18" style="enable-background:new 0 0 22 18;" xml:space="preserve">
<style type="text/css">
	.st0{fill:#EB0000;}
</style>
<title>Group 4</title>
<desc>Created with Sketch.</desc>
<g id="Móvil">
	<g id="Mobile-Copy-8" transform="translate(-241.000000, -551.000000)">
		<g id="Group-Copy" transform="translate(76.000000, 540.000000)">
			<g id="Group-4" transform="translate(165.000000, 11.000000)">
				<g id="Clip-2">
					<path id="path-1_1_" class="st0" d="M2.3,0C1,0,0,1,0,2.2v9.9c0,1.2,1,2.2,2.3,2.2h2.7v2.2c0,1.1,0.9,1.5,1.7,0.7l2.8-2.9h10.2
						c1.3,0,2.3-1,2.3-2.2V2.2C22,1,21,0,19.7,0H2.3z M1.1,12.1V2.2c0-0.6,0.5-1.1,1.2-1.1h17.4c0.7,0,1.2,0.5,1.2,1.1v9.9
						c0,0.6-0.5,1.1-1.2,1.1H9.3c-0.1,0-0.3,0.1-0.4,0.2l-2.8,2.9v-2.5c0-0.3-0.2-0.6-0.6-0.6H2.3C1.6,13.2,1.1,12.7,1.1,12.1z"/>
				</g>
			</g>
		</g>
	</g>
</g>
</svg>
