<?xml version="1.0" encoding="utf-8"?>
<!-- Generator: Adobe Illustrator 22.0.1, SVG Export Plug-In . SVG Version: 6.00 Build 0)  -->
<svg version="1.1" id="Capa_1" xmlns="http://www.w3.org/2000/svg" xmlns:xlink="http://www.w3.org/1999/xlink" x="0px" y="0px"
	 viewBox="0 0 25 25" style="enable-background:new 0 0 25 25;" xml:space="preserve">
<style type="text/css">
	.st0{fill:#FFFFFF;}
	.st1{fill:none;stroke:#EB0000;stroke-linecap:round;stroke-linejoin:round;}
	.st2{fill:none;stroke:#EB0000;stroke-linejoin:round;}
	.st3{fill:#FFFFFF;stroke:#EB0000;stroke-miterlimit:10;}
</style>
<title>Group 11</title>
<desc>Created with Sketch.</desc>
<g id="Móvil">
	<g id="Mobile-Copy-9" transform="translate(-74.000000, -135.000000)">
		<g id="Group-23" transform="translate(75.000000, 135.000000)">
			<g id="Group-11" transform="translate(0.000000, 1.000000)">
				<polygon id="Fill-1" class="st0" points="0.1,8 13.3,15.6 17.8,7.9 4.6,0.3 				"/>
				<g id="Group-10" transform="translate(0.000000, 0.257726)">
					<polygon id="Stroke-2" class="st1" points="0.1,7.8 13.3,15.4 17.8,7.6 4.6,0 					"/>
					<path id="Stroke-4" class="st2" d="M9.5,8C9.3,8.3,8.9,8.4,8.6,8.2C8.3,8.1,8.2,7.7,8.4,7.4C8.6,7.1,9,7,9.3,7.2
						C9.6,7.3,9.7,7.7,9.5,8z"/>
					<g id="Group-9" transform="translate(0.000000, 11.368421)">
						<path id="Fill-6" class="st3" d="M17.5,5.4l-7.1,1.5c-0.7,0.1-1.4-0.3-1.7-1c-0.3-1,0.2-2.2,1.2-2.6l5.1-2.7
							c1.6-0.7,3.4-0.7,5.1,0l2.9,1.3v6.9h-2.3c-0.5,0-1,0.1-1.4,0.2l-6.7,2.1c-0.7,0.3-1.5,0.2-2.2,0L0.3,7.1C0,6.9-0.1,6.6,0,6.3
							l0.3-0.7C0.5,5,1.2,4.7,1.9,4.8L8.6,6"/>
						<path id="Stroke-8" class="st1" d="M17.5,5.4l-7.1,1.5c-0.7,0.1-1.4-0.3-1.7-1c-0.3-1,0.2-2.2,1.2-2.6l5.1-2.7
							c1.6-0.7,3.4-0.7,5.1,0l2.9,1.3v6.9h-2.3c-0.5,0-1,0.1-1.4,0.2l-6.7,2.1c-0.7,0.3-1.5,0.2-2.2,0L0.3,7.1C0,6.9-0.1,6.6,0,6.3
							l0.3-0.7C0.5,5,1.2,4.7,1.9,4.8L8.6,6"/>
					</g>
				</g>
			</g>
		</g>
	</g>
</g>
</svg>
