<?xml version="1.0" encoding="UTF-8"?>
<svg width="42px" height="37px" viewBox="0 0 42 37" version="1.1" xmlns="http://www.w3.org/2000/svg" xmlns:xlink="http://www.w3.org/1999/xlink">
    <!-- Generator: Sketch 52.3 (67297) - http://www.bohemiancoding.com/sketch -->
    <title>Group 9</title>
    <desc>Created with Sketch.</desc>
    <g id="Symbols" stroke="none" stroke-width="1" fill="none" fill-rule="evenodd" stroke-linecap="round" stroke-linejoin="round">
        <g id="Footer-+-productos" transform="translate(-1150.000000, -1202.000000)" stroke="#EC0000">
            <g id="Group-32" transform="translate(1129.000000, 1202.000000)">
                <g id="Group-9" transform="translate(22.000000, 0.000000)">
                    <path d="M11.4723,0.7131 L11.4723,9.2411 C11.4723,10.1681 11.6253,10.8761 11.9353,11.3611 C12.2453,11.8461 12.7313,12.2001 13.3943,12.4221 C14.6283,12.7741 15.9513,12.9471 17.3623,13.1731 L33.4473,15.8931" id="Stroke-1"></path>
                    <path d="M37.8453,25.7712 L37.8453,22.4682 C37.8453,21.6062 37.6833,20.7322 37.4703,19.9532 C36.9693,18.1292 35.6283,16.6092 33.8383,15.9942 C33.7023,15.9452 33.5733,15.9062 33.4513,15.8772 L33.4513,15.1722 C33.4513,14.1922 33.2413,13.2152 32.7663,12.3582 C31.7183,10.4602 30.4493,8.7252 28.9573,7.3742 C24.3903,3.2372 17.1163,0.5842 7.0903,0.5002 L4.9023,0.5002 C3.7643,0.5002 2.6973,1.6092 2.6973,2.6972 L2.6973,18.0742 C2.6973,18.0742 2.1153,18.2412 1.9933,18.2782 C1.4773,18.4502 1.0993,18.7252 0.8603,19.1022 C0.6183,19.4782 0.4993,20.0272 0.4993,20.7482 L0.4993,30.7432 L0.5323,30.7432 C0.8243,33.5012 3.1563,35.6492 5.9913,35.6492 C7.7873,35.6492 9.3763,34.7842 10.3783,33.4522 L30.1633,33.4522 C31.1653,34.7842 32.7543,35.6492 34.5503,35.6492 C37.5843,35.6492 40.0423,33.1912 40.0423,30.1572 C40.0423,28.3622 39.1773,26.7732 37.8453,25.7712 Z" id="Stroke-3"></path>
                    <path d="M40.0426,30.1574 C40.0426,33.1914 37.5846,35.6494 34.5506,35.6494 C31.5166,35.6494 29.0586,33.1914 29.0586,30.1574 C29.0586,27.1234 31.5166,24.6654 34.5506,24.6654 C37.5846,24.6654 40.0426,27.1234 40.0426,30.1574 Z" id="Stroke-5"></path>
                    <path d="M11.484,30.1574 C11.484,33.1914 9.026,35.6494 5.992,35.6494 C2.959,35.6494 0.5,33.1914 0.5,30.1574 C0.5,27.1234 2.959,24.6654 5.992,24.6654 C9.026,24.6654 11.484,27.1234 11.484,30.1574 Z" id="Stroke-7"></path>
                </g>
            </g>
        </g>
    </g>
</svg>