<?xml version="1.0" encoding="UTF-8"?>
<svg width="43px" height="45px" viewBox="0 0 43 45" version="1.1" xmlns="http://www.w3.org/2000/svg" xmlns:xlink="http://www.w3.org/1999/xlink">
    <!-- Generator: Sketch 52.3 (67297) - http://www.bohemiancoding.com/sketch -->
    <title>Group 7</title>
    <desc>Created with Sketch.</desc>
    <g id="Symbols" stroke="none" stroke-width="1" fill="none" fill-rule="evenodd" stroke-linejoin="round">
        <g id="Footer-+-productos" transform="translate(-1316.000000, -1198.000000)" stroke="#EC0000">
            <g id="Group-7" transform="translate(1317.000000, 1199.000000)">
                <polygon id="Stroke-1" stroke-linecap="round" points="0 14.8363516 19.059579 27 20.1954638 26.4065934 23.0351758 24.6263736 25.8748878 22.8461538 27.0107726 21.0659341 31 14.5972088 7.84328454 0"></polygon>
                <path d="M16.8651144,14.5002533 C16.590029,14.9778019 15.9786129,15.1416179 15.4995492,14.8666056 C15.0215235,14.5891111 14.8575104,13.9780276 15.1351909,13.500479 C15.4102762,13.0229305 16.0216923,12.8571288 16.4986799,13.1346232 C16.9787817,13.4096356 17.1422758,14.0227047 16.8651144,14.5002533 Z" id="Stroke-3"></path>
                <path d="M31.3358461,31.8226006 L18.5788372,34.7126724 C17.2685321,34.9434386 15.9942852,34.1476134 15.5743828,32.8387815 C14.9555791,30.9105247 15.8628476,28.8122296 17.6581923,28.0106207 L26.8035748,22.9846603 C29.6940391,21.6717799 32.9799794,21.6717799 35.8686989,22.9846603 L41,25.3183484 L41,38.2846323 L36.8550626,38.2846323 C36.0001365,38.2846323 35.1475368,38.4159204 34.3269241,38.6732912 L22.3678462,42.6593579 C21.0778965,43.1266739 19.672212,43.1127932 18.3909861,42.6200293 L0.586423966,35.0168905 C0.0397365556,34.7462174 -0.118453844,34.0643293 0.0856815614,33.4986919 L0.534663137,32.263312 C0.951657683,31.1060108 2.21427297,30.5542541 3.37801925,30.7595724 L15.3795527,32.9330544" id="Stroke-5" stroke-linecap="round"></path>
            </g>
        </g>
    </g>
</svg>