<?xml version="1.0" encoding="utf-8"?>
<!-- Generator: Adobe Illustrator 22.0.1, SVG Export Plug-In . SVG Version: 6.00 Build 0)  -->
<svg version="1.1" id="Capa_1" xmlns="http://www.w3.org/2000/svg" xmlns:xlink="http://www.w3.org/1999/xlink" x="0px" y="0px"
	 viewBox="0 0 24 24" style="enable-background:new 0 0 24 24;" xml:space="preserve">
<style type="text/css">
	.st0{filter:url(#Adobe_OpacityMaskFilter);}
	.st1{fill:#FFFFFF;}
	.st2{mask:url(#mask-2_1_);fill:#EB0000;}
	.st3{filter:url(#Adobe_OpacityMaskFilter_1_);}
	.st4{mask:url(#mask-2_2_);fill:#EB0000;}
</style>
<title>Group 4</title>
<desc>Created with Sketch.</desc>
<g id="Móvil">
	<g id="Mobile-Copy-9" transform="translate(-75.000000, -311.000000)">
		<g id="Group-40" transform="translate(75.000000, 268.000000)">
			<g id="Group-35" transform="translate(0.000000, 43.000000)">
				<g id="Group-4">
					<g id="Clip-2">
					</g>
					<defs>
						<filter id="Adobe_OpacityMaskFilter" filterUnits="userSpaceOnUse" x="-2.3" y="-2.3" width="28.5" height="28.5">
							<feColorMatrix  type="matrix" values="1 0 0 0 0  0 1 0 0 0  0 0 1 0 0  0 0 0 1 0"/>
						</filter>
					</defs>
					<mask maskUnits="userSpaceOnUse" x="-2.3" y="-2.3" width="28.5" height="28.5" id="mask-2_1_">
						<g class="st0">
							<path id="path-1_1_" class="st1" d="M0.4,12c0,0.3,0.2,0.5,0.5,0.5h10.6v7.6c0,1.4-1.2,2.5-2.6,2.5c-1.5,0-2.6-1.1-2.6-2.5
								c0-0.3-0.2-0.5-0.5-0.5c-0.3,0-0.5,0.2-0.5,0.5c0,2,1.7,3.5,3.7,3.5s3.7-1.6,3.7-3.5v-7.6h10.6c0.3,0,0.5-0.2,0.5-0.5
								c0-6.4-5.2-11.6-11.6-11.6C5.6,0.4,0.4,5.6,0.4,12z M12,1.4c5.7,0,10.3,4.4,10.6,10H1.4C1.7,5.9,6.3,1.4,12,1.4z"/>
						</g>
					</mask>
					<polygon id="Fill-1" class="st2" points="-2.3,26.3 26.3,26.3 26.3,-2.3 -2.3,-2.3 					"/>
					<defs>
						<filter id="Adobe_OpacityMaskFilter_1_" filterUnits="userSpaceOnUse" x="-2.3" y="-2.3" width="28.5" height="28.5">
							<feColorMatrix  type="matrix" values="1 0 0 0 0  0 1 0 0 0  0 0 1 0 0  0 0 0 1 0"/>
						</filter>
					</defs>
					<mask maskUnits="userSpaceOnUse" x="-2.3" y="-2.3" width="28.5" height="28.5" id="mask-2_2_">
						<g class="st3">
							<path id="path-1_2_" class="st1" d="M1.2,12c0,0.3,0.2,0.5,0.5,0.5h9.8v7c0,1.3-1.1,2.3-2.5,2.3c-1.4,0-2.5-1-2.5-2.3
								c0-0.3-0.2-0.5-0.5-0.5s-0.5,0.2-0.5,0.5c0,1.8,1.5,3.3,3.4,3.3s3.4-1.5,3.4-3.3v-7h9.8c0.3,0,0.5-0.2,0.5-0.5
								C22.8,6,18,1.2,12,1.2C6,1.2,1.2,6,1.2,12z M12,2.2c5.3,0,9.6,4.1,9.8,9.3H2.2C2.4,6.3,6.7,2.2,12,2.2z"/>
						</g>
					</mask>
					<polygon id="Fill-3" class="st4" points="-2.3,26.3 26.3,26.3 26.3,-2.3 -2.3,-2.3 					"/>
				</g>
			</g>
		</g>
	</g>
</g>
</svg>
