<?xml version="1.0" encoding="UTF-8"?>
<svg width="70px" height="70px" viewBox="0 0 70 70" version="1.1" xmlns="http://www.w3.org/2000/svg" xmlns:xlink="http://www.w3.org/1999/xlink">
    <!-- Generator: Sketch 52.3 (67297) - http://www.bohemiancoding.com/sketch -->
    <title>Group 11</title>
    <desc>Created with Sketch.</desc>
    <defs>
        <polygon id="path-1" points="0.000117647059 0.178235294 29.8089412 0.178235294 29.8089412 29.9870392 0.000117647059 29.9870392"></polygon>
        <polygon id="path-3" points="0.0815294118 0.178235294 29.8903529 0.178235294 29.8903529 29.9870392 0.0815294118 29.9870392"></polygon>
    </defs>
    <g id="Home" stroke="none" stroke-width="1" fill="none" fill-rule="evenodd">
        <g id="Home-F-(1)-Copy-2" transform="translate(-345.000000, -1090.000000)">
            <g id="Group-11" transform="translate(345.000000, 1090.000000)">
                <path d="M29.5591341,70 L22.6745999,70 C22.4308804,70 22.2335366,69.8024745 22.2335366,69.5591689 L22.2335366,48.2078655 C22.2335366,47.9643625 22.0361928,47.7670344 21.7926707,47.7670344 L0.441063288,47.7670344 C0.197541097,47.7670344 0,47.5697062 0,47.3262032 L0,40.4408311 C0,40.1973282 0.197541097,40 0.441063288,40 L29.5591341,40 C29.8026562,40 30,40.1973282 30,40.4408311 L30,69.5591689 C30,69.8024745 29.8026562,70 29.5591341,70" id="Fill-1" fill="#6D6F70"></path>
                <g id="Group-5">
                    <mask id="mask-2" fill="white">
                        <use xlink:href="#path-1"></use>
                    </mask>
                    <g id="Clip-4"></g>
                    <path d="M29.5640392,29.9870392 L0.244823529,29.9870392 C0.10972549,29.9870392 0.000117647059,29.8774314 0.000117647059,29.7421373 L0.000117647059,22.514098 C0.000117647059,22.3788039 0.10972549,22.2691961 0.244823529,22.2691961 L21.8473725,22.2691961 C21.9824706,22.2691961 22.0922745,22.1595882 22.0922745,22.0244902 L22.0922745,0.423117647 C22.0922745,0.287823529 22.2018824,0.178215686 22.3369804,0.178215686 L29.5640392,0.178215686 C29.6991373,0.178215686 29.8089412,0.287823529 29.8089412,0.423117647 L29.8089412,29.7421373 C29.8089412,29.8774314 29.6991373,29.9870392 29.5640392,29.9870392" id="Fill-3" fill="#EC0000" mask="url(#mask-2)"></path>
                </g>
                <g id="Group-8" transform="translate(40.000000, 0.000000)">
                    <mask id="mask-4" fill="white">
                        <use xlink:href="#path-3"></use>
                    </mask>
                    <g id="Clip-7"></g>
                    <path d="M29.4523137,29.9870392 L0.519568627,29.9870392 C0.277607843,29.9870392 0.0815294118,29.7909608 0.0815294118,29.549 L0.0815294118,0.616254902 C0.0815294118,0.374294118 0.277607843,0.178215686 0.519568627,0.178215686 L7.36015686,0.178215686 C7.60211765,0.178215686 7.79819608,0.374294118 7.79819608,0.616254902 L7.79819608,21.8311569 C7.79819608,22.0731176 7.99447059,22.2691961 8.23643137,22.2691961 L29.4523137,22.2691961 C29.6942745,22.2691961 29.8903529,22.4654706 29.8903529,22.7074314 L29.8903529,29.549 C29.8903529,29.7909608 29.6942745,29.9870392 29.4523137,29.9870392" id="Fill-6" fill="#6D6F70" mask="url(#mask-4)"></path>
                </g>
                <path d="M69.5591341,47.7670344 L48.2075267,47.7670344 C47.9640045,47.7670344 47.7664634,47.9643625 47.7664634,48.2078655 L47.7664634,69.5591689 C47.7664634,69.8026718 47.5691196,70 47.3255975,70 L40.4408659,70 C40.1973438,70 40,69.8026718 40,69.5591689 L40,40.4408311 C40,40.1975255 40.1973438,40 40.4408659,40 L69.5591341,40 C69.8026562,40 70,40.1975255 70,40.4408311 L70,47.3262032 C70,47.5697062 69.8026562,47.7670344 69.5591341,47.7670344" id="Fill-9" fill="#EC0000"></path>
            </g>
        </g>
    </g>
</svg>