<?xml version="1.0" encoding="utf-8"?>
<!-- Generator: Adobe Illustrator 22.0.1, SVG Export Plug-In . SVG Version: 6.00 Build 0)  -->
<svg version="1.1" id="Capa_1" xmlns="http://www.w3.org/2000/svg" xmlns:xlink="http://www.w3.org/1999/xlink" x="0px" y="0px"
	 viewBox="0 0 22 29" style="enable-background:new 0 0 22 29;" xml:space="preserve">
<style type="text/css">
	.st0{fill:#EB0000;}
</style>
<title>Group 4</title>
<desc>Created with Sketch.</desc>
<g id="Móvil">
	<g id="Mobile-Copy-8" transform="translate(-105.000000, -540.000000)">
		<g id="Group-Copy" transform="translate(76.000000, 540.000000)">
			<g id="Group-4" transform="translate(29.000000, 0.000000)">
				<g id="Clip-2">
					<path id="path-1_1_" class="st0" d="M0,11.7L0,11.7c0,1.7,0.6,3.5,1.7,5.7c0.7,1.4,1.7,3,2.8,4.5c1,1.4,2,2.7,3.1,3.9
						c0.4,0.4,0.7,0.8,1,1.2c0.2,0.2,0.3,0.3,0.4,0.4c1.1,1.2,2.9,1.2,4,0c0.1-0.1,0.2-0.2,0.4-0.4c0.3-0.3,0.6-0.7,1-1.2
						c1-1.2,2.1-2.5,3.1-3.9c1.1-1.6,2.1-3.1,2.8-4.5c1.1-2.1,1.7-4,1.7-5.6c0,0,0,0,0,0s0,0,0,0c0-6.1-4.9-11-11-11S0,5.5,0,11.7z
						 M10,26.4c-0.1-0.1-0.2-0.2-0.4-0.4c-0.3-0.3-0.6-0.7-1-1.1c-1-1.2-2-2.5-3-3.8c-1.1-1.5-2-3-2.7-4.4c-1-1.9-1.5-3.6-1.5-5
						c0,0,0,0,0,0c0,0,0,0,0,0C1.4,6.3,5.7,2,11,2c5.3,0,9.6,4.3,9.6,9.6c0,0,0,0,0,0c0,0,0,0,0,0c0,1.4-0.5,3-1.5,5
						c-0.7,1.4-1.6,2.8-2.7,4.4c-0.9,1.3-2,2.6-3,3.8c-0.4,0.4-0.7,0.8-1,1.1c-0.2,0.2-0.3,0.3-0.4,0.4c-0.3,0.3-0.6,0.4-1,0.4
						C10.6,26.8,10.3,26.7,10,26.4z M8.2,8.9c0,1.5,1.2,2.8,2.7,2.8c1.5,0,2.8-1.2,2.8-2.8c0-1.5-1.2-2.7-2.8-2.7
						C9.5,6.2,8.2,7.4,8.2,8.9z"/>
				</g>
			</g>
		</g>
	</g>
</g>
</svg>
