<?xml version="1.0" encoding="utf-8"?>
<!-- Generator: Adobe Illustrator 23.0.1, SVG Export Plug-In . SVG Version: 6.00 Build 0)  -->
<svg version="1.1" id="Icons" xmlns="http://www.w3.org/2000/svg" xmlns:xlink="http://www.w3.org/1999/xlink" x="0px" y="0px"
	 viewBox="0 0 25 25" style="enable-background:new 0 0 25 25;" xml:space="preserve">
<style type="text/css">
	.st0{fill:#7BB482;}
	.st1{fill:#58A060;}
	.st2{fill:#70AD76;}
	.st3{fill:#7DB583;}
	.st4{fill:#88BC8E;}
</style>
<title>inversiones_2</title>
<path class="st0" d="M20.1,17.3c-0.1,0.1-0.1,0.1-0.2,0.1l-16,4.9c-0.3,0.1-0.5-0.1-0.6-0.3l-2.8-9c-0.1-0.2,0.1-0.5,0.3-0.6
	c0,0,0,0,0,0l16-4.9c0.2-0.1,0.5,0.1,0.6,0.3l2.8,9C20.3,17,20.2,17.1,20.1,17.3z"/>
<path class="st1" d="M12.5,16.2c-0.8,0.9-2.2,0.9-3,0.1c-0.9-0.8-0.9-2.2-0.1-3c0.8-0.9,2.1-0.9,3-0.1
	C13.2,13.9,13.3,15.3,12.5,16.2C12.5,16.2,12.5,16.2,12.5,16.2z"/>
<path class="st1" d="M4.7,21.6l-2.9-9.5l-0.9,0.3c-0.3,0.1-0.4,0.3-0.3,0.6l2.8,9c0,0.1,0.1,0.2,0.2,0.3c0.1,0.1,0.2,0.1,0.4,0
	l1.4-0.4C5,22,4.8,21.8,4.7,21.6C4.7,21.6,4.7,21.6,4.7,21.6z"/>
<path class="st2" d="M21.6,15.8c-0.1,0.1-0.1,0.1-0.2,0.1l-16,4.9c-0.1,0-0.3,0-0.4,0c-0.1-0.1-0.2-0.2-0.2-0.3l-2.8-9
	c-0.1-0.3,0.1-0.5,0.3-0.6l16-4.9c0.2-0.1,0.5,0.1,0.6,0.3c0,0,0,0,0,0l2.8,9C21.7,15.5,21.7,15.7,21.6,15.8z"/>
<path class="st1" d="M13.9,14.7c-0.8,0.9-2.2,0.9-3,0.1s-0.9-2.2-0.1-3c0.8-0.9,2.1-0.9,3-0.1C14.7,12.5,14.8,13.8,13.9,14.7
	C14,14.7,13.9,14.7,13.9,14.7z"/>
<path class="st1" d="M6.2,20.1l-2.9-9.5l-0.9,0.3C2.1,11,1.9,11.2,2,11.5c0,0,0,0,0,0l2.8,9c0.1,0.3,0.3,0.4,0.6,0.3l1.4-0.4
	C6.5,20.5,6.2,20.3,6.2,20.1z"/>
<path class="st3" d="M23,14.2c-0.1,0.1-0.1,0.1-0.2,0.1l-16,4.9c-0.3,0.1-0.5-0.1-0.6-0.3l-2.8-9C3.3,9.6,3.5,9.4,3.7,9.3l16-4.9
	c0.1,0,0.3,0,0.4,0c0.1,0.1,0.2,0.2,0.2,0.3l2.8,9C23.1,13.9,23.1,14.1,23,14.2z"/>
<path class="st1" d="M15.3,13.1c-0.8,0.9-2.2,0.9-3,0.1c-0.9-0.8-0.9-2.2-0.1-3c0.8-0.9,2.2-0.9,3-0.1
	C16.1,10.9,16.1,12.2,15.3,13.1C15.3,13.1,15.3,13.1,15.3,13.1z"/>
<path class="st1" d="M7.5,18.5L4.6,9L3.7,9.3C3.5,9.3,3.3,9.6,3.4,9.9l2.8,9c0.1,0.2,0.3,0.4,0.6,0.3c0,0,0,0,0,0l1.4-0.4
	C7.9,18.9,7.6,18.7,7.5,18.5z"/>
<path class="st4" d="M24.4,12.5c-0.1,0.1-0.1,0.1-0.2,0.1l-16,4.9c-0.1,0-0.3,0-0.4,0c-0.1-0.1-0.2-0.2-0.2-0.3l-2.8-9
	C4.7,7.9,4.9,7.7,5.1,7.6l16-4.9c0.1,0,0.3,0,0.4,0c0.1,0.1,0.2,0.2,0.2,0.3l2.8,9C24.5,12.2,24.5,12.4,24.4,12.5z"/>
<path class="st1" d="M16.7,11.4c-0.8,0.9-2.2,0.9-3,0.1c-0.9-0.8-0.9-2.2-0.1-3c0.8-0.9,2.1-0.9,3-0.1C17.5,9.2,17.6,10.5,16.7,11.4
	C16.8,11.4,16.7,11.4,16.7,11.4z"/>
<path class="st1" d="M9,16.8L6,7.3L5.1,7.6C4.9,7.7,4.7,7.9,4.8,8.2c0,0,0,0,0,0l2.8,9c0.1,0.2,0.3,0.4,0.6,0.3c0,0,0,0,0,0l1.4-0.4
	C9.3,17.2,9,17.1,9,16.8C9,16.8,9,16.8,9,16.8z"/>
</svg>
