<?xml version="1.0" encoding="UTF-8"?>
<svg width="32px" height="30px" viewBox="0 0 32 30" version="1.1" xmlns="http://www.w3.org/2000/svg" xmlns:xlink="http://www.w3.org/1999/xlink">
    <!-- Generator: Sketch 52.1 (67048) - http://www.bohemiancoding.com/sketch -->
    <title>FA_SANTANDER_SYR_NEG_RGB copia copia</title>
    <desc>Created with Sketch.</desc>
    <g id="Symbols" stroke="none" stroke-width="1" fill="none" fill-rule="evenodd">
        <g id="Header-Blanco" transform="translate(-15.000000, -28.000000)" fill="#EC0000" fill-rule="nonzero">
            <g id="FA_SANTANDER_SYR_NEG_RGB-copia-copia" transform="translate(15.000000, 28.000000)">
                <path d="M22.8421053,13.8125 C22.8,12.75 22.4842105,11.6666667 21.9368421,10.7083333 L16.9894737,2.22916667 C16.6105263,1.58333333 16.3578947,0.895833333 16.2105263,0.1875 L16,0.541666667 C14.7789474,2.64583333 14.7789474,5.22916667 16,7.33333333 L19.9578947,14.125 C21.1789474,16.2291667 21.1789474,18.8125 19.9578947,20.9166667 L19.7473684,21.2708333 C19.6,20.5625 19.3473684,19.875 18.9684211,19.2291667 L15.3473684,13 L13.0315789,9.04166667 C12.6526316,8.39583333 12.4,7.70833333 12.2526316,7 L12.0421053,7.35416667 C10.8210526,9.4375 10.8210526,12.0208333 12.0210526,14.125 C12.0210526,14.125 12.0210526,14.125 12.0210526,14.125 L16,20.8958333 C17.2210526,23 17.2210526,25.5833333 16,27.6875 L15.7894737,28.0416667 C15.6421053,27.3333333 15.3894737,26.6458333 15.0105263,26 L10.0631579,17.5208333 C9.38947368,16.375 9.09473684,15.1041667 9.15789474,13.8333333 C3.85263158,15.1875 0.189473684,18.1041667 0.189473684,21.4791667 C0.189473684,26.1666667 7.26315789,29.9583333 16,29.9583333 C24.7368421,29.9583333 31.8105263,26.1666667 31.8105263,21.4791667 C31.8105263,18.1041667 28.1473684,15.1875 22.8421053,13.8125 Z" id="Shape"></path>
            </g>
        </g>
    </g>
</svg>