<?xml version="1.0" encoding="UTF-8"?>
<svg width="132px" height="23px" viewBox="0 0 132 23" version="1.1" xmlns="http://www.w3.org/2000/svg" xmlns:xlink="http://www.w3.org/1999/xlink">
    <!-- Generator: Sketch 52.1 (67048) - http://www.bohemiancoding.com/sketch -->
    <title>FA_SANTANDER_PVR_NEG_RGB copia copia</title>
    <desc>Created with Sketch.</desc>
    <g id="Symbols" stroke="none" stroke-width="1" fill="none" fill-rule="evenodd">
        <g id="Header-Blanco" transform="translate(-15.000000, -14.000000)" fill="#EC0000" fill-rule="nonzero">
            <g id="FA_SANTANDER_PVR_NEG_RGB-copia-copia" transform="translate(15.000000, 14.000000)">
                <path d="M17.4327406,10.1970234 C17.4003679,9.40184266 17.157572,8.59107016 16.7367259,7.87384833 L12.9167382,1.52799433 C12.6253832,1.04464918 12.4311465,0.530120482 12.3178418,0 L12.1559779,0.265060241 C11.2171674,1.83982991 11.2171674,3.77321049 12.1559779,5.34798016 L15.199019,10.4309001 C16.1378296,12.0056697 16.1378296,13.9390503 15.199019,15.51382 L15.0371551,15.7788802 C14.9238504,15.2487597 14.7296137,14.734231 14.4382587,14.2508859 L11.6541999,9.57335223 L9.87369712,6.61091425 C9.58234212,6.1275691 9.38810546,5.6130404 9.27480074,5.08291991 L9.11293685,5.34798016 C8.1741263,6.90715804 8.1741263,8.84053863 9.09675046,10.4153083 L12.1559779,15.51382 C13.0947885,17.0885897 13.0947885,19.0219702 12.1559779,20.5967399 L11.994114,20.8618001 C11.8808093,20.3316797 11.6865727,19.817151 11.3952177,19.3338058 L7.59141631,12.9567682 C7.07345187,12.0992204 6.84684243,11.1481219 6.89540159,10.1970234 C2.81643164,11.2260808 0,13.3933381 0,15.9192062 C0,19.4273565 5.43862661,22.2650602 12.1559779,22.2650602 C18.8733292,22.2650602 24.3119559,19.4273565 24.3119559,15.9192062 C24.3119559,13.3933381 21.4955242,11.2260808 17.4327406,10.1970234 Z M28.8927039,21.0333097 C28.941263,20.1289865 29.0707541,19.5209072 29.3297364,18.8192771 C30.6084611,19.3961729 32.2594727,19.6768249 33.5058246,19.6768249 C35.6262416,19.6768249 36.8240343,19.0219702 36.8240343,17.7122608 C36.8240343,16.4337349 35.9499693,15.8412473 33.813366,14.9369242 L32.647946,14.453579 C30.4951563,13.5492558 29.0383814,12.3798724 29.0383814,10.0566974 C29.0383814,7.54642098 30.8350705,5.94046775 34.5417535,5.94046775 C36.0309013,5.94046775 37.4229307,6.14316088 38.7178418,6.57973069 C38.6530963,7.4528703 38.4912324,8.13890858 38.2646229,8.77817151 C37.0344574,8.3416017 35.5776824,8.13890858 34.5255671,8.13890858 C32.5346413,8.13890858 31.6282036,8.88731396 31.6282036,10.0566974 C31.6282036,11.1948972 32.5184549,11.8653437 34.1209074,12.5201984 L35.351073,13.0191354 C38.2484365,14.2041106 39.4624157,15.4670446 39.4624157,17.5875266 C39.4624157,20.1133948 37.4714899,21.859674 33.602943,21.859674 C31.7091355,21.8752658 30.1714286,21.6102055 28.8927039,21.0333097 Z M51.715512,10.5244507 L51.715512,21.5166549 L49.4170448,21.5166549 L49.2875536,20.1913536 C48.6562845,21.1580439 47.6689148,21.7817151 46.0664623,21.7817151 C43.055794,21.7817151 41.0486818,19.6768249 41.0486818,15.9815734 C41.0486818,12.1148122 43.2014715,9.91637137 47.4261189,9.91637137 C49.0285714,9.91637137 50.3882281,10.0878809 51.715512,10.5244507 Z M49.1904353,19.0219702 L49.1904353,12.1148122 C48.6724709,12.0212615 48.0897609,11.990078 47.3937462,11.990078 C44.7877376,11.990078 43.5737584,13.5336641 43.5737584,15.9971651 C43.5737584,18.2423813 44.512569,19.817151 46.7462906,19.817151 C47.7336603,19.8015592 48.5267934,19.5053154 49.1904353,19.0219702 Z M64.5675046,14.1261517 L64.5675046,21.5166549 L62.0586143,21.5166549 L62.0586143,14.5471297 C62.0586143,12.8164422 61.459718,11.9744862 58.9508277,11.9744862 C58.3519313,11.9744862 57.6559166,12.0368533 56.9599019,12.1459957 L56.9599019,21.5166549 L54.4510116,21.5166549 L54.4510116,10.5244507 C56.0534641,10.1502481 57.8015941,9.91637137 59.0155733,9.91637137 C63.2078479,9.91637137 64.5675046,11.4755493 64.5675046,14.1261517 Z M71.5276517,19.7236003 C72.2560392,19.7236003 72.9358676,19.5988661 73.4862048,19.3961729 C73.4214592,20.0510276 73.3243409,20.799433 73.1948498,21.438696 C72.5150215,21.7037562 71.786634,21.7973069 71.0744329,21.7973069 C68.6302882,21.7973069 67.0763948,20.7214741 67.0763948,18.0396882 L67.0763948,6.50177179 C67.8533415,6.25230333 68.8083384,6.14316088 69.5852851,6.14316088 L69.5852851,10.3061658 L73.5509503,10.3061658 C73.5023912,11.0545712 73.4376456,11.7406095 73.3243409,12.3798724 L69.5852851,12.3798724 L69.5852851,17.7746279 C69.5852851,19.1622962 70.3136726,19.7236003 71.5276517,19.7236003 Z M84.9947272,10.5244507 L84.9947272,21.5166549 L82.69626,21.5166549 L82.5667689,20.1913536 C81.9354997,21.1580439 80.94813,21.7817151 79.3456775,21.7817151 C76.3350092,21.7817151 74.327897,19.6768249 74.327897,15.9815734 C74.327897,12.1148122 76.4806867,9.91637137 80.7053342,9.91637137 C82.323973,9.91637137 83.6674433,10.0878809 84.9947272,10.5244507 Z M82.4858369,19.0219702 L82.4858369,12.1148122 C81.9678725,12.0212615 81.3851625,11.990078 80.6891478,11.990078 C78.0831392,11.990078 76.86916,13.5336641 76.86916,15.9971651 C76.86916,18.2423813 77.8079706,19.817151 80.0416922,19.817151 C81.0290619,19.8015592 81.822195,19.5053154 82.4858369,19.0219702 Z M97.8467198,14.1261517 L97.8467198,21.5166549 L95.3378296,21.5166549 L95.3378296,14.5471297 C95.3378296,12.8164422 94.7389332,11.9744862 92.2300429,11.9744862 C91.6311465,11.9744862 90.9351318,12.0368533 90.2391171,12.1459957 L90.2391171,21.5166549 L87.7302269,21.5166549 L87.7302269,10.5244507 C89.3326793,10.1502481 91.0808093,9.91637137 92.2947885,9.91637137 C96.5032495,9.91637137 97.8467198,11.4755493 97.8467198,14.1261517 Z M110.585408,6.1275691 L110.585408,21.5166549 L108.286941,21.5166549 L108.157449,20.1133948 C107.52618,21.1424522 106.538811,21.7817151 104.887799,21.7817151 C101.877131,21.7817151 99.8700184,19.6768249 99.8700184,15.9815734 C99.8700184,12.1148122 102.022808,9.91637137 106.247456,9.91637137 C106.911097,9.91637137 107.52618,9.97873848 108.125077,10.0878809 L108.125077,6.45499646 C108.869651,6.18993622 109.759902,6.1275691 110.585408,6.1275691 Z M108.10889,18.9751949 L108.10889,12.1927711 C107.445248,12.0680369 106.76542,11.9744862 106.101778,11.9744862 C103.609074,11.9744862 102.427468,13.471297 102.427468,15.9815734 C102.427468,18.2267895 103.366278,19.8015592 105.6,19.8015592 C106.58737,19.8015592 107.412876,19.4741318 108.10889,18.9751949 Z M123.210791,16.8235294 L115.198529,16.8235294 C115.522256,18.7880936 116.703863,19.7236003 118.937584,19.7236003 C120.313427,19.7236003 121.705457,19.4429483 122.951809,18.8816442 C122.85469,19.5209072 122.725199,20.3472714 122.563335,21.080085 C121.414102,21.579022 120.216309,21.7817151 118.872839,21.7817151 C114.664378,21.7817151 112.641079,19.5364989 112.641079,15.7788802 C112.641079,12.5046067 114.211159,9.90077959 118.209197,9.90077959 C121.786389,9.90077959 123.340282,12.1615875 123.340282,14.9369242 C123.356468,15.6229624 123.307909,16.1842665 123.210791,16.8235294 Z M115.149969,14.7965982 L120.815205,14.7965982 C120.815205,12.9879518 119.811649,11.9433026 118.079706,11.9433026 C116.299203,11.9277108 115.360392,12.9255847 115.149969,14.7965982 Z M132,9.99433026 C132,10.7271439 131.902882,11.6002835 131.773391,12.0680369 C131.174494,12.0056697 130.591784,11.9744862 129.879583,11.9744862 C129.2645,11.9744862 128.649418,12.0212615 128.034335,12.0992204 L128.034335,21.5166549 L125.525445,21.5166549 L125.525445,10.5244507 C126.593746,10.1658398 128.406622,9.91637137 129.814838,9.91637137 C130.591784,9.91637137 131.449663,9.93196315 132,9.99433026 Z" id="Shape"></path>
            </g>
        </g>
    </g>
</svg>