<?xml version="1.0" encoding="UTF-8"?>
<svg width="369px" height="369px" viewBox="0 0 369 369" version="1.1" xmlns="http://www.w3.org/2000/svg" xmlns:xlink="http://www.w3.org/1999/xlink">
    <!-- Generator: Sketch 52.3 (67297) - http://www.bohemiancoding.com/sketch -->
    <title>Group 3</title>
    <desc>Created with Sketch.</desc>
    <defs>
        <path d="M0,94.3048182 C0,120.998939 14.1236,145.717455 38.1833,163.203242 L38.1833,188.303485 C38.1833,203.177455 50.7525,215.084667 66.0888,215.084667 L72.2193,215.084667 C87.5556,215.084667 100.1248,203.177455 100.1248,188.303485 L100.1248,186.736394 C106.0275,187.459667 111.9905,187.821303 117.987,187.821303 C120.2382,187.821303 122.5028,187.767727 124.7808,187.653879 L124.7808,188.303485 C124.7808,203.177455 137.3634,215.084667 152.693,215.084667 L158.8302,215.084667 C174.1665,215.084667 186.7424,203.177455 186.7424,188.303485 L186.7424,170.348909 C202.2797,161.522303 214.9494,149.775818 223.5455,136.140788 L240.0878,136.140788 C255.4241,136.140788 268,124.226879 268,109.359606 L268,88.6592727 C268,73.785303 255.4241,61.8780909 240.0878,61.8780909 L228.7112,61.8780909 C225.6962,55.4021212 221.77,49.2208182 217.0264,43.4279394 L225.1736,22.2320303 C226.1451,19.7005758 225.4885,16.8342727 223.5254,14.9725152 C204.9396,-2.62042424 190.7088,-3.81248485 172.3106,11.3092727 C155.6209,4.43818182 137.1222,0.781636364 117.987,0.781636364 C53.1377,0.781636364 0,42.2425758 0,94.3048182 Z M51.5766,188.303485 L51.5766,159.727515 C51.5766,157.510818 50.4845,155.448152 48.6487,154.195818 C26.2975,138.980303 13.4,117.355788 13.4,94.3048182 C13.4,50.4664545 59.9114,14.1755758 117.987,14.1755758 C136.7537,14.1755758 154.7968,18.0330303 170.7562,25.2255758 C173.1816,26.3104848 176.0224,25.8751818 177.9922,24.1004848 C191.6535,11.7847576 198.5746,10.9141515 211.0165,21.6962727 L203.0837,42.3497273 C202.1859,44.6869697 202.6683,47.3389697 204.3366,49.2074242 C210.3733,55.9713636 215.0097,63.3246364 218.0716,71.0462424 C219.0833,73.5977879 221.5556,75.2720303 224.3026,75.2720303 L240.0878,75.2720303 C248.1814,75.2720303 254.6,81.3461818 254.6,88.6592727 L254.6,109.359606 C254.6,116.672697 248.1814,122.746848 240.0878,122.746848 L219.7466,122.746848 C217.3346,122.746848 215.1102,124.046061 213.9243,126.135515 C206.0719,139.958061 193.2213,151.898758 176.9269,160.450788 C174.7159,161.609364 173.3357,163.89303 173.3357,166.377606 L173.3357,188.303485 C173.3357,195.616576 166.9238,201.690727 158.8302,201.690727 L152.693,201.690727 C144.6061,201.690727 138.1875,195.616576 138.1875,188.303485 L138.1875,180.46803 C138.1875,176.516818 134.7839,173.422818 130.8577,173.797848 C126.4558,174.213061 122.1879,174.427364 117.987,174.427364 C110.1011,174.427364 102.2822,173.737576 94.5906,172.378091 C90.4902,171.654818 86.7248,174.809091 86.7248,178.974606 L86.7248,188.303485 C86.7248,195.616576 80.3129,201.690727 72.2193,201.690727 L66.0888,201.690727 C57.9952,201.690727 51.5766,195.616576 51.5766,188.303485 Z M84.2056,41.4322424 C80.8757,43.0462121 79.4888,47.051 81.1035,50.3793939 C82.7115,53.7077879 86.7248,55.1007576 90.048,53.4867879 C106.0744,45.725 121.7859,45.725 137.8056,53.4867879 C141.1355,55.1007576 145.1421,53.7077879 146.7568,50.3793939 C148.3715,47.051 146.9779,43.0462121 143.648,41.4322424 C133.7923,36.657303 123.8629,34.2664848 113.9268,34.2664848 C103.9974,34.2664848 94.0613,36.657303 84.2056,41.4322424 Z" id="path-1"></path>
    </defs>
    <g id="Page-1" stroke="none" stroke-width="1" fill="none" fill-rule="evenodd">
        <g id="Artboard-Copy" transform="translate(-702.000000, -1717.000000)">
            <g id="Group-3" transform="translate(703.000000, 1718.000000)">
                <circle id="Oval-Copy-5" stroke="#979797" fill="#EB0000" cx="183.5" cy="183.5" r="183.5"></circle>
                <g id="Group-4-Copy-3" transform="translate(50.000000, 76.000000)">
                    <mask id="mask-2" fill="white">
                        <use xlink:href="#path-1"></use>
                    </mask>
                    <g id="Clip-2"></g>
                    <polygon id="Fill-1" fill="#020203" mask="url(#mask-2)" points="-33.5 248.569515 301.5 248.569515 301.5 -32.7032121 -33.5 -32.7032121"></polygon>
                    <polygon id="Fill-3" fill="#FFFFFF" mask="url(#mask-2)" points="-60.3 302.145273 328.3 302.145273 328.3 -86.2789697 -60.3 -86.2789697"></polygon>
                </g>
            </g>
        </g>
    </g>
</svg>