<?xml version="1.0" encoding="utf-8"?>
<!-- Generator: Adobe Illustrator 23.0.1, SVG Export Plug-In . SVG Version: 6.00 Build 0)  -->
<svg version="1.1" id="Icons" xmlns="http://www.w3.org/2000/svg" xmlns:xlink="http://www.w3.org/1999/xlink" x="0px" y="0px"
	 viewBox="0 0 37 32" style="enable-background:new 0 0 37 32;" xml:space="preserve">
<style type="text/css">
	.st0{fill:none;stroke:#EC0000;stroke-width:2;stroke-miterlimit:10;}
	.st1{fill:none;stroke:#EC0000;stroke-miterlimit:10;}
</style>
<title>Stroke_Home 88px copy 47 copia 3</title>
<polyline class="st0" points="15.1,23.2 16.4,23.2 17.8,23.2 "/>
<path class="st0" d="M21.9,23.2h10c1.8,0,3.2-1.5,3.2-3.2V4.2c0-1.8-1.5-3.2-3.2-3.2H5.1C3.3,1,1.8,2.4,1.8,4.2c0,0,0,0,0,0V20
	c0,1.8,1.5,3.2,3.2,3.2h6.8"/>
<line class="st0" x1="1.8" y1="10.3" x2="35.2" y2="10.3"/>
<line class="st0" x1="1.8" y1="6.6" x2="35.2" y2="6.6"/>
<path class="st0" d="M16.9,31c-0.1,0-0.3-0.1-0.3-0.2L12.1,25c-0.6-0.7-0.4-1.8,0.3-2.4c0.7-0.6,1.8-0.4,2.4,0.3l1.8,2.4l5.7-9.4
	c0.5-0.8,1.5-1.1,2.3-0.6c0.8,0.5,1,1.5,0.6,2.3l-7.9,13.2C17.2,30.9,17.1,31,16.9,31L16.9,31z"/>
<rect x="-2036.7" y="-2336.2" class="st1" width="5135.9" height="7265.2"/>
</svg>
