<?xml version="1.0" encoding="utf-8"?>
<!-- Generator: Adobe Illustrator 23.0.1, SVG Export Plug-In . SVG Version: 6.00 Build 0)  -->
<svg version="1.1" id="Icons" xmlns="http://www.w3.org/2000/svg" xmlns:xlink="http://www.w3.org/1999/xlink" x="0px" y="0px"
	 viewBox="0 0 43 32" style="enable-background:new 0 0 43 32;" xml:space="preserve">
<style type="text/css">
	.st0{fill:none;stroke:#EC0000;stroke-miterlimit:10;}
	.st1{clip-path:url(#SVGID_2_);}
	.st2{clip-path:url(#SVGID_4_);}
	.st3{clip-path:url(#SVGID_6_);}
	.st4{clip-path:url(#SVGID_8_);}
	.st5{clip-path:url(#SVGID_10_);}
	.st6{clip-path:url(#SVGID_12_);}
	.st7{fill:#E31313;}
</style>
<title>Stroke_Home 88px copy 47 copia 4</title>
<rect x="-2030.7" y="-2570.2" class="st0" width="5135.9" height="7265.2"/>
<g>
	<defs>
		<path id="SVGID_1_" d="M33.7,31c-1.6,0-2.8-1.3-2.8-2.8c0-1.6,1.3-2.8,2.8-2.8s2.8,1.3,2.8,2.8l0,0C36.5,29.7,35.2,31,33.7,31z
			 M18.7,31c-1.6,0-2.8-1.3-2.8-2.8c0-1.6,1.3-2.8,2.8-2.8s2.8,1.3,2.8,2.8c0,0,0,0,0,0C21.5,29.7,20.2,31,18.7,31z M15.9,19.7
			c0.4,1.2,1.5,2,2.7,2h15.1c1.2,0,2.3-0.8,2.7-2l3.5-11.2H12.5L15.9,19.7z M41.2,6.6c0.5,0,0.9,0.4,0.9,0.9c0,0.1,0,0.2,0,0.3
			l-3.9,12.4c-0.6,2-2.4,3.3-4.5,3.3H18.6c-2.1,0-3.9-1.3-4.5-3.3L8.7,2.9H1.8c-0.5,0-0.9-0.4-0.9-0.9S1.3,1,1.8,1c0,0,0,0,0,0h7.6
			c0.4,0,0.8,0.3,0.9,0.7l1.6,5H41.2z"/>
	</defs>
	<clipPath id="SVGID_2_">
		<use xlink:href="#SVGID_1_"  style="overflow:visible;"/>
	</clipPath>
	<g class="st1">
		<g>
			<defs>
				<rect id="SVGID_3_" x="-121" y="-539.1" width="1350.4" height="1910.2"/>
			</defs>
			<clipPath id="SVGID_4_">
				<use xlink:href="#SVGID_3_"  style="overflow:visible;"/>
			</clipPath>
			<g class="st2">
				<g>
					<g>
						<defs>
							<rect id="SVGID_5_" x="0.9" y="1" width="42.2" height="30"/>
						</defs>
						<clipPath id="SVGID_6_">
							<use xlink:href="#SVGID_5_"  style="overflow:visible;"/>
						</clipPath>
						<g class="st3">
							<g>
								<defs>
									<rect id="SVGID_7_" x="0.9" y="1" width="42.2" height="30"/>
								</defs>
								<clipPath id="SVGID_8_">
									<use xlink:href="#SVGID_7_"  style="overflow:visible;"/>
								</clipPath>
								<g class="st4">
									<rect x="-3.8" y="-3.7" width="50.6" height="39.4"/>
								</g>
							</g>
							<g>
								<defs>
									<rect id="SVGID_9_" x="-1" y="-6.5" width="45" height="45"/>
								</defs>
								<clipPath id="SVGID_10_">
									<use xlink:href="#SVGID_9_"  style="overflow:visible;"/>
								</clipPath>
								<g class="st5">
									<g>
										<defs>
											<rect id="SVGID_11_" x="0.9" y="1" width="42.2" height="30"/>
										</defs>
										<clipPath id="SVGID_12_">
											<use xlink:href="#SVGID_11_"  style="overflow:visible;"/>
										</clipPath>
										<g class="st6">
											<rect x="-5.7" y="-11.2" class="st7" width="54.4" height="54.4"/>
										</g>
									</g>
								</g>
							</g>
						</g>
					</g>
				</g>
			</g>
		</g>
	</g>
</g>
</svg>
