<?xml version="1.0" encoding="UTF-8"?>
<svg width="45px" height="44px" viewBox="0 0 45 44" version="1.1" xmlns="http://www.w3.org/2000/svg" xmlns:xlink="http://www.w3.org/1999/xlink">
    <!-- Generator: Sketch 52.3 (67297) - http://www.bohemiancoding.com/sketch -->
    <title>Group 2</title>
    <desc>Created with Sketch.</desc>
    <g id="hoover" stroke="none" stroke-width="1" fill="none" fill-rule="evenodd">
        <g id="ICONOS_HOOVER" transform="translate(-1331.000000, -145.000000)">
            <g id="Group-2" transform="translate(1331.000000, 145.000000)">
                <path d="M22.1707303,43.5899941 C21.3740526,43.586316 20.58408,43.4426376 19.8361376,43.1653836 L1.71386176,35.0388092 C1.25599215,34.8237304 0.904211792,34.4299682 0.739169302,33.947796 C0.581121995,33.485505 0.6104965,32.9788089 0.820880046,32.5383248 L1.07768524,31.8483326 C1.08489016,31.8237602 1.09467317,31.800036 1.10686765,31.7775642 C1.79578969,30.387679 3.3017696,29.6148707 4.81887005,29.872714 L16.2817202,31.8955116 C16.1007395,29.8846746 17.2158043,27.9830756 19.0482126,27.1776165 L28.4507847,23.0494582 C31.6131622,21.6501806 35.2104262,21.6501806 38.3728037,23.0494582 L43.6256373,25.4084058 C43.8945357,25.5275423 44.068493,25.7958259 44.0692099,26.0925006 L44.0692099,38.3708226 C44.0692099,38.7844651 43.7373485,39.1197885 43.3279767,39.1197885 L39.067345,39.1197885 C38.2587918,39.1191106 37.4545165,39.2383281 36.680224,39.4736306 L24.3827569,43.2184599 C23.6748981,43.4652454 22.9312126,43.5908182 22.1824033,43.5899941" id="Path" fill="#FBDADC"></path>
                <path d="M21.8213554,35.9327531 L19.854461,30.7371711 L16.656069,30 C16.2206993,30.8092519 16.0318524,31.7305082 16.1132762,32.6479186 L5.02396087,30.7017869 C4.65928852,30.6365036 4.2838915,30.6732113 3.93837526,30.8079395 C3.74766699,30.8799688 3.62628725,31.0698569 3.63974095,31.2751271 C3.65319465,31.4803973 3.79829673,31.6524535 3.99674008,31.6984422 L21.8213554,35.9327531 Z" id="Path" fill="#F9CDD0"></path>
                <path d="M35.3734398,37.2123185 L23.4086522,39.9251082 C22.3822096,40.1548104 21.4771492,40.7623761 20.8697826,41.6294478 C20.6053459,41.9980799 20.5647242,42.4843766 20.7642699,42.8925791 C20.9638155,43.3007817 21.3706989,43.5637321 21.8211291,43.5755796 C22.5699384,43.5764037 23.313624,43.4508309 24.0214828,43.2040453 L36.3189498,39.4592161 C37.0932423,39.2239135 37.8975176,39.1046961 38.7060709,39.1053739 L42.9667025,39.1053739 C43.3760743,39.1053739 43.7079357,38.7700505 43.7079357,38.3564081 L43.7079357,37 L38.8519829,37.0000132 C37.6813249,36.9988698 36.5117431,37.0717464 35.3500939,37.2182159" id="Path" fill="#F9CDD0"></path>
                <path d="M22.3874484,26.2783663 C22.2584046,26.2773406 22.1317876,26.2428177 22.0197501,26.1781111 L1.00841576,13.9056864 C0.657202226,13.6978824 0.535233088,13.2442487 0.734101112,12.8854415 L7.88962775,0.371224725 C8.09519718,0.0157503686 8.54618511,-0.10541648 8.89933909,0.0999457551 L29.9106734,12.3723705 C30.0830711,12.4688764 30.2094929,12.6317542 30.2611637,12.8239307 C30.3128345,13.0161073 30.2853579,13.2212318 30.1849881,13.3926153 L23.0352979,25.9009347 C22.9036177,26.1338279 22.6587362,26.2777907 22.3932849,26.2783663" id="Path" fill="#00A15C"></path>
                <path d="M2.67764954,14.019785 L10.195038,0.856857606 L8.89933909,0.101994386 C8.73005591,0.00174403218 8.5281431,-0.0259927403 8.3385166,0.0249541761 C8.14889011,0.0759010924 7.98727674,0.201306382 7.88962775,0.373273356 L0.734101112,12.8874902 C0.535233088,13.2462973 0.657202226,13.699931 1.00841576,13.907735 L2.9461277,15.0400298 C2.59432342,14.8323159 2.47440756,14.3766232 2.67764954,14.019785" id="Path" fill="#0DA664"></path>
                <path d="M24.3917709,34.3019558 C24.2628326,34.3001573 24.1364036,34.2656856 24.0240725,34.2017005 L3.01273822,21.9292758 C2.84168988,21.8314385 2.71738111,21.6675126 2.66838579,21.4751784 C2.61168202,21.2771312 2.63695686,21.0643103 2.73842357,20.8854415 L9.89395021,8.37122472 C10.0995196,8.01575037 10.5505076,7.89458352 10.9036616,8.09994576 L31.9149959,20.4195494 C32.2669698,20.6296296 32.3887335,21.0851171 32.1893105,21.4456916 L25.0337839,33.9245242 C24.9030032,34.1583171 24.6575517,34.3026151 24.3917709,34.3019558" id="Path" fill="#1AAB6C"></path>
                <path d="M17.9771934,24.74659 C16.1334087,24.74659 14.6387259,23.2363144 14.6387259,21.373295 C14.6387259,19.5102756 16.1334087,18 17.9771934,18 C19.8209781,18 21.315661,19.5102756 21.315661,21.373295 C21.315661,23.2363144 19.8209781,24.74659 17.9771934,24.74659" id="Path" fill="#00A15C"></path>
                <path d="M4.681972,22.019785 L12.205197,8.85685761 L10.9036616,8.10199439 C10.7343784,8.00174403 10.5324656,7.97400726 10.3428391,8.02495418 C10.1532126,8.07590109 9.9915992,8.20130638 9.89395021,8.37327336 L2.73842357,20.8874902 C2.63695686,21.0663589 2.61168202,21.2791798 2.66838579,21.4772271 C2.71738111,21.6695612 2.84168988,21.8334871 3.01273822,21.9313245 L4.95045016,23.0636193 C4.59864588,22.8559053 4.47873002,22.4002126 4.681972,22.0433745" id="Path" fill="#26AF74"></path>
                <path d="M19.1981805,35.3454724 C17.689572,35.3477021 16.3491109,34.3734522 15.8713859,32.9275511 C15.1243386,30.6329646 16.2296927,28.1410579 18.4219284,27.1776165 L27.8186641,23.0494582 C30.9810416,21.6501806 34.5783056,21.6501806 37.7406831,23.0494582 L42.9935167,25.4084058 C43.2624151,25.5275423 43.4363723,25.7958259 43.4370893,26.0925006 L43.4370893,31.7067958 C43.4370954,31.9048958 43.3588157,32.0947975 43.2196372,32.2343206 C43.0804586,32.3738438 42.8919047,32.4514365 42.6958561,32.4498643 L32.8555478,32.4498643 L19.8168476,35.3218829 C19.6124369,35.3568653 19.4055021,35.3746186 19.1981805,35.3749592" id="Path" fill="#FBDADC"></path>
                <path d="M27.4418432,25.4496874 C30.6052163,24.0520109 36.0156349,23.4740688 40.6322919,23.8868846 L38.7295989,23.0494582 C35.5672214,21.6501806 31.9699574,21.6501806 28.8075799,23.0494582 L19.4108443,27.1776165 C18.78839,27.4442285 18.2322329,27.8470665 17.7824659,28.3570902 C17.5960598,28.5858272 17.5903855,28.9142395 17.7687761,29.1494116 C17.9471668,29.3845837 18.2624969,29.46439 18.5295355,29.3419508 L27.4418432,25.4496874 Z" id="Path" fill="#FCE6E7"></path>
                <path d="M32.8579829,33.0825632 L19.8192826,35.9545818 C19.614872,35.9895643 19.4079371,36.0073175 19.2006156,36.0076581 C17.692007,36.0098879 16.3515459,35.0356379 15.873821,33.5897369 C15.8102903,33.3972291 15.7615091,33.2000685 15.7279089,33 C15.5712826,33.7856606 15.6215981,34.5991066 15.873821,35.3589476 C16.3481638,36.8030622 17.6830826,37.7790749 19.1889426,37.7827662 C19.3844711,37.7839844 19.5797408,37.7681999 19.7725908,37.7355872 C19.814971,37.7300695 19.8562887,37.7181413 19.8951569,37.700203 L30.5934279,33.9376817 C31.3717846,33.6612033 32.1672544,33.436621 32.9747125,33.2653816 L33.7859835,33.0943579 L32.8579829,33.0825632 Z" id="Path" fill="#F8C1C4"></path>
            </g>
        </g>
    </g>
</svg>