<?xml version="1.0" encoding="UTF-8"?>
<svg width="24px" height="24px" viewBox="0 0 24 24" version="1.1" xmlns="http://www.w3.org/2000/svg" xmlns:xlink="http://www.w3.org/1999/xlink">
    <!-- Generator: Sketch 52.1 (67048) - http://www.bohemiancoding.com/sketch -->
    <title>Group 4 Copy</title>
    <desc>Created with Sketch.</desc>
    <defs>
        <path d="M8.3994,7.8006 C8.3994,9.7374 9.105,11.5092 10.2744,12.8736 L7.9008,15.2466 C7.8876,15.2604 7.8744,15.2742 7.8624,15.2886 C6.9426,14.7456 5.7372,14.8692 4.9464,15.66 L0.7038,19.9026 C-0.2334,20.8392 -0.2334,22.3596 0.7038,23.2968 C1.6404,24.234 3.1608,24.234 4.0974,23.2968 L8.3406,19.0542 C9.1326,18.2622 9.255,17.0538 8.7084,16.1328 C8.7228,16.1208 8.7366,16.1082 8.7492,16.095 L11.1222,13.722 C12.4866,14.8938 14.2608,15.6006 16.1994,15.6006 C20.5074,15.6006 23.9994,12.108 23.9994,7.8006 C23.9994,3.4926 20.5074,0.0006 16.1994,0.0006 C11.8914,0.0006 8.3994,3.4926 8.3994,7.8006 Z M9.5994,7.8006 C9.5994,4.1556 12.5538,1.2006 16.1994,1.2006 C19.8444,1.2006 22.7994,4.1556 22.7994,7.8006 C22.7994,11.4456 19.8444,14.4006 16.1994,14.4006 C12.5538,14.4006 9.5994,11.4456 9.5994,7.8006 Z M1.5522,22.4478 C1.0836,21.9792 1.0836,21.2196 1.5522,20.751 L5.7948,16.5084 C6.2634,16.0392 7.0236,16.0392 7.4916,16.5084 C7.9602,16.977 7.9602,17.7366 7.4916,18.2046 L3.2496,22.4478 C3.015,22.6824 2.7078,22.8 2.4006,22.8 C2.094,22.8 1.7862,22.6824 1.5522,22.4478 Z" id="path-1"></path>
    </defs>
    <g id="Symbols" stroke="none" stroke-width="1" fill="none" fill-rule="evenodd">
        <g id="Header_Desktop-Tarjetas" transform="translate(-1153.000000, -18.000000)">
            <g id="Group-4-Copy" transform="translate(1153.000000, 18.000000)">
                <mask id="mask-2" fill="white">
                    <use xlink:href="#path-1"></use>
                </mask>
                <use id="Clip-2" fill="#FFFFFF" xlink:href="#path-1"></use>
            </g>
        </g>
    </g>
</svg>