<?xml version="1.0" encoding="UTF-8"?>
<svg width="41px" height="41px" viewBox="0 0 41 41" version="1.1" xmlns="http://www.w3.org/2000/svg" xmlns:xlink="http://www.w3.org/1999/xlink">
    <!-- Generator: Sketch 52.3 (67297) - http://www.bohemiancoding.com/sketch -->
    <title>SANTANDER_GUIA_MARCA-02</title>
    <desc>Created with Sketch.</desc>
    <g id="hoover" stroke="none" stroke-width="1" fill="none" fill-rule="evenodd">
        <g id="ICONOS_HOOVER" transform="translate(-1488.000000, -156.000000)">
            <g id="SANTANDER_GUIA_MARCA-02" transform="translate(1488.000000, 156.000000)">
                <path d="M1,20 C1,20.5025791 1.40742088,20.91 1.91,20.91 L20.09,20.91 L20.09,33.91 C19.9761118,36.3373147 17.974985,38.2467513 15.545,38.2467513 C13.115015,38.2467513 11.1138882,36.3373147 11,33.91 C11,33.4074209 10.5925791,33 10.09,33 C9.58742088,33 9.18,33.4074209 9.18,33.91 C9.31547411,37.3271988 12.1251169,40.0276609 15.545,40.0276609 C18.9648831,40.0276609 21.7745259,37.3271988 21.91,33.91 L21.91,20.91 L40.09,20.91 C40.5925791,20.91 41,20.5025791 41,20 C41,8.954305 32.045695,0 21,0 C9.954305,0 1,8.954305 1,20 Z" id="Path" fill="#26D8D8"></path>
                <path d="M18.92,0.75 C28.65,0.75 36.6,9.69 37.08,20.92 L0.76,20.92 C1.23,9.69 9.18,0.75 18.92,0.75 Z" id="Path" fill="#00D1D1"></path>
            </g>
        </g>
    </g>
</svg>