<?xml version="1.0" encoding="utf-8"?>
<!-- Generator: Adobe Illustrator 23.0.1, SVG Export Plug-In . SVG Version: 6.00 Build 0)  -->
<svg version="1.1" id="Icons" xmlns="http://www.w3.org/2000/svg" xmlns:xlink="http://www.w3.org/1999/xlink" x="0px" y="0px"
	 viewBox="0 0 32 32" style="enable-background:new 0 0 32 32;" xml:space="preserve">
<style type="text/css">
	.st0{fill:none;stroke:#EC0000;stroke-linecap:round;stroke-linejoin:round;}
	.st1{fill:#FFFFFF;stroke:#EC0000;stroke-linecap:round;stroke-linejoin:round;}
	.st2{fill:none;stroke:#EC0000;stroke-miterlimit:10;}
</style>
<title>Stroke_Home 88px copy 47 copia 6</title>
<polyline class="st0" points="19.1,13.2 21.2,9.7 6.1,1 1,9.9 4.5,11.9 "/>
<circle class="st1" cx="12.7" cy="15.3" r="1.9"/>
<polyline class="st0" points="19.1,13.2 21.2,9.7 6.1,1 1,9.9 4.5,11.9 "/>
<polyline class="st0" points="21.6,17.2 22.7,15.2 7.7,6.5 2.6,15.4 12.6,21.2 "/>
<path class="st0" d="M23.9,23.1l-9.4,2c-1,0.2-1.9-0.4-2.2-1.3l0,0c-0.5-1.4,0.2-2.8,1.5-3.4l6.7-2.9c2.1-0.9,4.5-0.9,6.7,0l3.8,1.7
	v8.7h-3c-0.6,0-1.3,0.1-1.9,0.3l-8.8,2.7c-0.9,0.3-2,0.3-2.9,0L1.5,25c-0.4-0.2-0.6-0.7-0.4-1.1c0,0,0,0,0,0l0.2-0.5
	c0.4-0.8,1.2-1.2,2.1-1.1l8.8,1.5"/>
<circle class="st1" cx="12.7" cy="15.3" r="1.9"/>
<rect x="-2352.2" y="-2094.2" class="st2" width="5135.9" height="7265.2"/>
</svg>
