<?xml version="1.0" encoding="UTF-8"?>
<svg width="369px" height="369px" viewBox="0 0 369 369" version="1.1" xmlns="http://www.w3.org/2000/svg" xmlns:xlink="http://www.w3.org/1999/xlink">
    <!-- Generator: Sketch 52.3 (67297) - http://www.bohemiancoding.com/sketch -->
    <title>Group 5</title>
    <desc>Created with Sketch.</desc>
    <defs>
        <path d="M6.4789,27.8692667 C6.4789,31.5860667 9.4738,34.6026 13.1789,34.6026 C16.8773,34.6026 19.8789,31.5860667 19.8789,27.8692667 C19.8789,20.3346667 25.9491,14.2342667 33.4464,14.2342667 C40.9437,14.2342667 47.0206,20.3346667 47.0206,27.8692667 C47.0206,35.3971333 40.9437,41.511 33.4464,41.511 C29.748,41.511 26.7464,44.5275333 26.7464,48.2376 L26.7464,64.9026 C26.7464,68.6194 29.748,71.6292 33.4464,71.6292 C37.1448,71.6292 40.1464,68.6194 40.1464,64.9026 L40.1464,54.1292667 C51.7977,51.1329333 60.4206,40.5144667 60.4206,27.8692667 C60.4206,12.8943333 48.3472,0.760866667 33.4464,0.760866667 C18.5523,0.760866667 6.4789,12.8943333 6.4789,27.8692667 Z M33.4464,94.2801333 C37.1448,94.2801333 40.1464,91.2636 40.1464,87.5468 C40.1464,83.8232667 37.1448,80.8134667 33.4464,80.8134667 C29.748,80.8134667 26.7464,83.8232667 26.7464,87.5468 C26.7464,91.2636 29.748,94.2801333 33.4464,94.2801333 Z" id="path-1"></path>
        <path d="M27.9122,0.02015625 C12.6228,0.02015625 0,12.013125 0,26.8884375 L0,147.839375 C0,162.714688 12.6228,174.707656 27.9122,174.707656 L60.3,174.707656 L60.3,201.29375 C60.3,214.704375 71.7637,219.562031 81.1772,209.940781 L115.6688,174.640469 L240.0878,174.640469 C255.3772,174.640469 268,162.6475 268,147.778906 L268,26.8884375 C268,12.013125 255.3772,0.02015625 240.0878,0.02015625 L27.9122,0.02015625 Z M13.4,147.839375 L13.4,26.8884375 C13.4,19.5985937 19.8655,13.4576562 27.9122,13.4576562 L240.0878,13.4576562 C248.1345,13.4576562 254.6,19.5985937 254.6,26.8884375 L254.6,147.778906 C254.6,155.062031 248.1345,161.202969 240.0878,161.202969 L112.8548,161.202969 C111.0592,161.202969 109.3306,161.928594 108.071,163.218594 L73.7,198.39125 L73.7,167.988906 C73.7,164.286875 70.6984,161.270156 67,161.270156 L27.9122,161.270156 C19.8655,161.270156 13.4,155.129219 13.4,147.839375 Z" id="path-3"></path>
    </defs>
    <g id="Page-1" stroke="none" stroke-width="1" fill="none" fill-rule="evenodd">
        <g id="Artboard-Copy" transform="translate(-1107.000000, -1717.000000)">
            <g id="Group-5" transform="translate(1108.000000, 1718.000000)">
                <circle id="Oval-Copy-6" stroke="#979797" fill="#EB0000" cx="183.5" cy="183.5" r="183.5"></circle>
                <g id="Group-Copy" transform="translate(49.000000, 80.000000)">
                    <g id="Group-4" transform="translate(101.000000, 54.000000)">
                        <mask id="mask-2" fill="white">
                            <use xlink:href="#path-1"></use>
                        </mask>
                        <g id="Clip-2"></g>
                        <polygon id="Fill-1" fill="#020203" mask="url(#mask-2)" points="-214.3464 296.158933 147.3464 296.158933 147.3464 -67.2256 -214.3464 -67.2256"></polygon>
                        <polygon id="Fill-3" fill="#FFFFFF" mask="url(#mask-2)" points="-227.8 309.733333 160.8 309.733333 160.8 -80.8 -227.8 -80.8"></polygon>
                    </g>
                    <g id="Group-4">
                        <mask id="mask-4" fill="white">
                            <use xlink:href="#path-3"></use>
                        </mask>
                        <g id="Clip-2"></g>
                        <polygon id="Fill-1" fill="#020203" mask="url(#mask-4)" points="-33.5 248.573594 301.5 248.573594 301.5 -33.5735937 -33.5 -33.5735937"></polygon>
                        <polygon id="Fill-3" fill="#FFFFFF" mask="url(#mask-4)" points="-60.3 302.34375 328.3 302.34375 328.3 -87.34375 -60.3 -87.34375"></polygon>
                    </g>
                </g>
            </g>
        </g>
    </g>
</svg>