<?xml version="1.0" encoding="UTF-8"?>
<svg width="156px" height="232px" viewBox="0 0 156 232" version="1.1" xmlns="http://www.w3.org/2000/svg" xmlns:xlink="http://www.w3.org/1999/xlink">
    <!-- Generator: Sketch 52.3 (67297) - http://www.bohemiancoding.com/sketch -->
    <title>Group 21</title>
    <desc>Created with Sketch.</desc>
    <g id="Page-1" stroke="none" stroke-width="1" fill="none" fill-rule="evenodd">
        <g id="Artboard-Copy" transform="translate(-2854.000000, -1811.000000)">
            <g id="Group-21" transform="translate(2856.000000, 1813.000000)">
                <path d="M92.9376229,76 C129.092694,83.9139014 152,107.090204 152,157.255823 L152,212.751389 C152,221.173808 145.204515,228 136.818268,228 L53.0416033,228 L53.0416033,211.5999 C53.0416033,209.841639 52.5817068,208.114405 51.7065307,206.592302 L29,167.0159" id="Stroke-1" stroke="#E20714" stroke-width="4" stroke-linecap="round" stroke-linejoin="round"></path>
                <g id="Group-6">
                    <path d="M93.727,116.617133 L93.8945455,15.8076691 C93.8945455,7.24074124 86.9267273,0.295607216 78.3300909,0.295607216 L15.5644545,0.295607216 C6.96781818,0.295607216 0,7.24074124 0,15.8076691 L0,151.442659 C0,160.009587 6.96781818,166.455442 15.5644545,166.455442 L72.4262727,166.455442" id="Fill-3" fill="#E20714"></path>
                    <path d="M93.727,116.617133 L93.8945455,15.8076691 C93.8945455,7.24074124 86.9267273,0.295607216 78.3300909,0.295607216 L15.5644545,0.295607216 C6.96781818,0.295607216 0,7.24074124 0,15.8076691 L0,151.442659 C0,160.009587 6.96781818,166.455442 15.5644545,166.455442 L72.4262727,166.455442" id="Stroke-5" stroke="#E20714" stroke-width="4" stroke-linecap="round" stroke-linejoin="round"></path>
                </g>
                <path d="" id="Stroke-7" stroke="#FEFEFE" stroke-width="4" stroke-linecap="round" stroke-linejoin="round"></path>
                <path d="M66,20 L42,20" id="Stroke-9" stroke="#FEFEFE" stroke-width="4" stroke-linecap="round" stroke-linejoin="round"></path>
                <path d="M23,82 C23,66.5362534 35.5356693,54 51.0008606,54 C66.4643307,54 79,66.5362534 79,82 C79,97.4637466 66.4643307,110 51.0008606,110 C35.5356693,110 23,97.4637466 23,82" id="Fill-11" fill="#FEFEFE"></path>
                <path d="M23,82 C23,66.5362534 35.5356693,54 51.0008606,54 C66.4643307,54 79,66.5362534 79,82 C79,97.4637466 66.4643307,110 51.0008606,110 C35.5356693,110 23,97.4637466 23,82 Z" id="Stroke-13" stroke="#FEFEFE" stroke-width="4" stroke-linecap="round" stroke-linejoin="round"></path>
                <path d="M48.3899107,94.7293324 C45.5447189,94.4913906 43.4461377,93.5413352 42,92.4491995 L43.4915397,89.7428255 C44.9847609,90.8349612 47.1304256,91.7850166 49.5098266,91.7850166 C52.7283237,91.7850166 54.5477667,90.5970194 54.5477667,88.5086094 C54.5477667,85.9443158 51.236784,85.08841 48.0636889,83.6641829 C45.2184971,82.382036 42.5128744,80.7198671 42.5128744,77.015507 C42.5128744,73.882892 44.7510247,71.4606787 48.3899107,70.9385762 L48.3899107,66 L51.7025749,66 L51.7025749,70.8906455 C54.0819758,71.1748062 55.9939044,72.1248615 57.2079874,73.0749169 L55.5735155,75.6392106 C54.2686285,74.6429363 52.2625328,73.7870305 50.022701,73.7870305 C47.4566474,73.7870305 45.8255386,74.8791662 45.8255386,76.8734266 C45.8255386,79.1056288 48.3899107,80.1036149 51.1897005,81.2899003 C54.4552811,82.6679086 58,84.2342161 58,88.0327258 C58,91.5950055 55.7601682,94.015507 51.7025749,94.6334709 L51.7025749,100 L48.3899107,100 L48.3899107,94.7293324 Z" id="Fill-15" fill="#E20714"></path>
                <g id="Group-20" transform="translate(40.000000, 92.000000)">
                    <path d="M74.9557818,49.2093103 L34.0746909,8.36793103 C32.1073273,6.43862069 29.8497818,4.82827586 27.3832364,3.59724138 C21.7506,0.786896552 15.2957818,0.08 9.18814545,1.60413793 C1.50869091,3.51965517 -2.13412727,12.2972414 1.93878182,19.0731034 L31.1055091,67.5972414 C31.1055091,78.8506897 36.5861455,90.9644828 44.5575091,98.9213793" id="Fill-17" fill="#FEFEFE"></path>
                    <path d="M74.9557818,49.2093103 L34.0746909,8.36793103 C32.1073273,6.43862069 29.8497818,4.82827586 27.3832364,3.59724138 C21.7506,0.786896552 15.2957818,0.08 9.18814545,1.60413793 C1.50869091,3.51965517 -2.13412727,12.2972414 1.93878182,19.0731034 L31.1055091,67.5972414 C31.1055091,78.8506897 36.5861455,90.9644828 44.5575091,98.9213793" id="Stroke-19" stroke="#E20714" stroke-width="4" stroke-linecap="round" stroke-linejoin="round"></path>
                </g>
            </g>
        </g>
    </g>
</svg>