<?xml version="1.0" encoding="UTF-8"?>
<svg width="145px" height="212px" viewBox="0 0 145 212" version="1.1" xmlns="http://www.w3.org/2000/svg" xmlns:xlink="http://www.w3.org/1999/xlink">
    <!-- Generator: Sketch 52.3 (67297) - http://www.bohemiancoding.com/sketch -->
    <title>Group 17</title>
    <desc>Created with Sketch.</desc>
    <g id="Page-1" stroke="none" stroke-width="1" fill="none" fill-rule="evenodd">
        <g id="Artboard-Copy" transform="translate(-2549.000000, -1467.000000)">
            <g id="Group-17" transform="translate(2553.000000, 1471.000000)">
                <path d="M20,73 C20,59.1930834 31.1925619,48 45.0007684,48 C58.8074381,48 70,59.1930834 70,73 C70,86.8069166 58.8074381,98 45.0007684,98 C31.1925619,98 20,86.8069166 20,73 Z" id="Stroke-1" stroke="#E20714" stroke-width="7" stroke-linecap="round" stroke-linejoin="round"></path>
                <path d="M42.9905413,85.1943913 C40.3231739,84.9774444 38.3557541,84.1112174 37,83.1154466 L38.3983184,80.6478703 C39.7982133,81.6436411 41.809774,82.5098681 44.0404624,82.5098681 C47.0578035,82.5098681 48.7635313,81.4266942 48.7635313,79.5225556 C48.7635313,77.1845232 45.659485,76.4041386 42.6847084,75.1055785 C40.017341,73.9365623 37.4808198,72.4210553 37.4808198,69.0435505 C37.4808198,66.1873427 39.5790857,63.9788541 42.9905413,63.5028195 L42.9905413,59 L46.096164,59 L46.096164,63.4591179 C48.3268523,63.7182056 50.1192853,64.5844326 51.2574882,65.4506596 L49.7251708,67.788692 C48.5018392,66.8803242 46.6211245,66.0999396 44.5212822,66.0999396 C42.1156069,66.0999396 40.5864425,67.0957104 40.5864425,68.9140066 C40.5864425,70.9492498 42.9905413,71.8591783 45.6153442,72.9407915 C48.6768261,74.1972108 52,75.6253147 52,79.0886618 C52,82.3366227 49.9001576,84.5435505 46.096164,85.1069882 L46.096164,90 L42.9905413,90 L42.9905413,85.1943913 Z" id="Fill-3" fill="#E21219"></path>
                <path d="M85.3180186,67 C117.91359,74.1329243 137,95.0220917 137,140.237157 L137,190.256186 C137,197.847445 130.873536,204 123.31447,204 L47.785693,204 L47.785693,189.218331 C47.785693,187.633582 47.3695266,186.076799 46.5805124,184.704904 L28,150.817687" id="Stroke-5" stroke="#E20714" stroke-width="7" stroke-linecap="round" stroke-linejoin="round"></path>
                <path d="M83.8501104,104.308646 L84,13.9100837 C84,6.22788876 77.7664459,0 70.0757174,0 L13.9242826,0 C6.23355408,0 0,6.22788876 0,13.9100837 L0,135.537633 C0,143.219828 6.23355408,149 13.9242826,149 L64.7940397,149" id="Stroke-7" stroke="#E20714" stroke-width="7" stroke-linecap="round" stroke-linejoin="round"></path>
                <path d="" id="Stroke-9" stroke="#E20714" stroke-width="7" stroke-linecap="round" stroke-linejoin="round"></path>
                <path d="M59,17 L38,17" id="Stroke-11" stroke="#E20714" stroke-width="7" stroke-linecap="round" stroke-linejoin="round"></path>
                <path d="M103,125.407603 L66.3350758,88.7723339 C64.5706111,87.0417165 62.5458918,85.5972154 60.3337272,84.4929609 C55.2819984,81.9720436 49.4928814,81.3379478 44.0151405,82.7051201 C37.1276868,84.423365 33.8605614,92.2969784 37.5134214,98.3750181 L63.6721129,141.901825 C63.6721129,151.99632 68.5875179,162.862556 75.7367753,170 L103,125.407603 Z" id="Fill-13" fill="#FEFEFE"></path>
                <path d="M103,125.407603 L66.3350758,88.7723339 C64.5706111,87.0417165 62.5458918,85.5972154 60.3337272,84.4929609 C55.2819984,81.9720436 49.4928814,81.3379478 44.0151405,82.7051201 C37.1276868,84.423365 33.8605614,92.2969784 37.5134214,98.3750181 L63.6721129,141.901825 C63.6721129,151.99632 68.5875179,162.862556 75.7367753,170 L103,125.407603 Z" id="Stroke-15" stroke="#E20714" stroke-width="7" stroke-linecap="round" stroke-linejoin="round"></path>
            </g>
        </g>
    </g>
</svg>